{"glyphs":{"0":{"ha":1389,"x_min":0,"x_max":1215,"o":"m 0 174 l 0 1042 l 174 1042 l 174 1215 l 1042 1215 l 1042 1042 l 1215 1042 l 1215 174 l 1042 174 l 1042 0 l 174 0 l 174 174 l 0 174 m 347 521 l 521 521 l 521 694 l 694 694 l 694 868 l 868 868 l 868 1042 l 347 1042 l 347 521 m 694 347 l 521 347 l 521 174 l 868 174 l 868 521 l 694 521 l 694 347 z "},"1":{"ha":1389,"x_min":0,"x_max":1042,"o":"m 0 0 l 0 174 l 347 174 l 347 868 l 174 868 l 174 1042 l 347 1042 l 347 1215 l 694 1215 l 694 174 l 1042 174 l 1042 0 l 0 0 z "},"2":{"ha":1389,"x_min":0,"x_max":1042,"o":"m 0 347 l 174 347 l 174 521 l 347 521 l 347 694 l 694 694 l 694 1042 l 347 1042 l 347 868 l 0 868 l 0 1042 l 174 1042 l 174 1215 l 868 1215 l 868 1042 l 1042 1042 l 1042 694 l 868 694 l 868 521 l 521 521 l 521 347 l 347 347 l 347 174 l 868 174 l 868 347 l 1042 347 l 1042 0 l 0 0 l 0 347 z "},"3":{"ha":1389,"x_min":0,"x_max":1042,"o":"m 0 174 l 0 347 l 347 347 l 347 174 l 694 174 l 694 521 l 347 521 l 347 694 l 694 694 l 694 1042 l 347 1042 l 347 868 l 0 868 l 0 1042 l 174 1042 l 174 1215 l 868 1215 l 868 1042 l 1042 1042 l 1042 694 l 868 694 l 868 521 l 1042 521 l 1042 174 l 868 174 l 868 0 l 174 0 l 174 174 l 0 174 z "},"4":{"ha":1389,"x_min":0,"x_max":1215,"o":"m 0 347 l 0 694 l 174 694 l 174 868 l 347 868 l 347 1042 l 521 1042 l 521 1215 l 1042 1215 l 1042 521 l 1215 521 l 1215 347 l 1042 347 l 1042 174 l 1215 174 l 1215 0 l 521 0 l 521 174 l 694 174 l 694 347 l 0 347 m 347 694 l 347 521 l 694 521 l 694 868 l 521 868 l 521 694 l 347 694 z "},"5":{"ha":1389,"x_min":0,"x_max":1042,"o":"m 0 174 l 0 347 l 347 347 l 347 174 l 694 174 l 694 694 l 0 694 l 0 1215 l 1042 1215 l 1042 1042 l 347 1042 l 347 868 l 868 868 l 868 694 l 1042 694 l 1042 174 l 868 174 l 868 0 l 174 0 l 174 174 l 0 174 z "},"6":{"ha":1389,"x_min":0,"x_max":1042,"o":"m 0 174 l 0 868 l 174 868 l 174 1042 l 347 1042 l 347 1215 l 868 1215 l 868 1042 l 521 1042 l 521 868 l 347 868 l 347 694 l 868 694 l 868 521 l 1042 521 l 1042 174 l 868 174 l 868 0 l 174 0 l 174 174 l 0 174 m 347 174 l 694 174 l 694 521 l 347 521 l 347 174 z "},"7":{"ha":1389,"x_min":0,"x_max":1042,"o":"m 0 868 l 0 1215 l 1042 1215 l 1042 694 l 868 694 l 868 521 l 694 521 l 694 0 l 347 0 l 347 521 l 521 521 l 521 694 l 694 694 l 694 1042 l 347 1042 l 347 868 l 0 868 z "},"8":{"ha":1389,"x_min":0,"x_max":1042,"o":"m 0 174 l 0 521 l 174 521 l 174 694 l 0 694 l 0 1042 l 174 1042 l 174 1215 l 868 1215 l 868 1042 l 1042 1042 l 1042 694 l 868 694 l 868 521 l 1042 521 l 1042 174 l 868 174 l 868 0 l 174 0 l 174 174 l 0 174 m 347 174 l 694 174 l 694 521 l 347 521 l 347 174 m 347 694 l 694 694 l 694 1042 l 347 1042 l 347 694 z "},"9":{"ha":1389,"x_min":0,"x_max":1042,"o":"m 0 694 l 0 1042 l 174 1042 l 174 1215 l 868 1215 l 868 1042 l 1042 1042 l 1042 347 l 868 347 l 868 174 l 694 174 l 694 0 l 174 0 l 174 174 l 521 174 l 521 347 l 694 347 l 694 521 l 174 521 l 174 694 l 0 694 m 347 694 l 694 694 l 694 1042 l 347 1042 l 347 694 z "},"\u0000":{"ha":1389,"x_min":0,"x_max":0,"o":""},"\r":{"ha":1389,"x_min":0,"x_max":1389,"o":"m 0 174 l 174 174 l 174 347 l 347 347 l 347 1215 l 1389 1215 l 1389 694 l 694 694 l 694 0 l 521 0 l 521 -174 l 0 -174 l 0 174 m 694 868 l 1042 868 l 1042 1042 l 694 1042 l 694 868 z "},"\u0001":{"ha":1389,"x_min":0,"x_max":1389,"o":"m 0 0 l 0 1042 l 174 1042 l 174 0 l 0 0 m 347 347 l 347 521 l 1042 521 l 1042 347 l 868 347 l 868 174 l 521 174 l 521 347 l 347 347 m 347 694 l 347 868 l 521 868 l 521 694 l 347 694 m 1042 868 l 1042 694 l 868 694 l 868 868 l 1042 868 m 1389 0 l 1215 0 l 1215 1042 l 1389 1042 l 1389 0 m 174 0 l 1215 0 l 1215 -174 l 174 -174 l 174 0 m 174 1042 l 174 1215 l 1215 1215 l 1215 1042 l 174 1042 z "},"\u0002":{"ha":1389,"x_min":0,"x_max":1389,"o":"m 0 0 l 0 1042 l 174 1042 l 174 1215 l 1215 1215 l 1215 1042 l 1389 1042 l 1389 0 l 1215 0 l 1215 -174 l 174 -174 l 174 0 l 0 0 m 347 347 l 521 347 l 521 174 l 868 174 l 868 347 l 1042 347 l 1042 521 l 347 521 l 347 347 m 347 868 l 347 694 l 521 694 l 521 868 l 347 868 m 1042 868 l 868 868 l 868 694 l 1042 694 l 1042 868 z "},"\u0003":{"ha":1389,"x_min":0,"x_max":1215,"o":"m 0 521 l 0 1042 l 174 1042 l 174 1215 l 521 1215 l 521 1042 l 694 1042 l 694 1215 l 1042 1215 l 1042 1042 l 1215 1042 l 1215 521 l 1042 521 l 1042 347 l 868 347 l 868 174 l 694 174 l 694 0 l 521 0 l 521 174 l 347 174 l 347 347 l 174 347 l 174 521 l 0 521 z "},"\u0004":{"ha":1389,"x_min":0,"x_max":1215,"o":"m 0 521 l 0 694 l 174 694 l 174 868 l 347 868 l 347 1042 l 521 1042 l 521 1215 l 694 1215 l 694 1042 l 868 1042 l 868 868 l 1042 868 l 1042 694 l 1215 694 l 1215 521 l 1042 521 l 1042 347 l 868 347 l 868 174 l 694 174 l 694 0 l 521 0 l 521 174 l 347 174 l 347 347 l 174 347 l 174 521 l 0 521 z "},"\u0005":{"ha":1389,"x_min":0,"x_max":1215,"o":"m 0 174 l 0 694 l 347 694 l 347 868 l 174 868 l 174 1042 l 347 1042 l 347 1215 l 868 1215 l 868 1042 l 1042 1042 l 1042 868 l 868 868 l 868 694 l 1215 694 l 1215 174 l 868 174 l 868 347 l 694 347 l 694 0 l 868 0 l 868 -174 l 347 -174 l 347 0 l 521 0 l 521 347 l 347 347 l 347 174 l 0 174 z "},"\u0006":{"ha":1389,"x_min":0,"x_max":1215,"o":"m 0 347 l 0 521 l 174 521 l 174 694 l 347 694 l 347 868 l 521 868 l 521 1215 l 694 1215 l 694 868 l 868 868 l 868 694 l 1042 694 l 1042 521 l 1215 521 l 1215 347 l 1042 347 l 1042 174 l 694 174 l 694 0 l 868 0 l 868 -174 l 347 -174 l 347 0 l 521 0 l 521 174 l 174 174 l 174 347 l 0 347 z "},"\u0007":{"ha":1389,"x_min":347,"x_max":1042,"o":"m 868 347 l 868 174 l 521 174 l 521 347 l 347 347 l 347 694 l 521 694 l 521 868 l 868 868 l 868 694 l 1042 694 l 1042 347 l 868 347 z "},"\b":{"ha":1389,"x_min":0,"x_max":1389,"o":"m 0 -174 l 0 1215 l 1389 1215 l 1389 -174 l 0 -174 m 347 347 l 521 347 l 521 174 l 868 174 l 868 347 l 1042 347 l 1042 694 l 868 694 l 868 868 l 521 868 l 521 694 l 347 694 l 347 347 z "},"\t":{"ha":1389,"x_min":174,"x_max":1215,"o":"m 174 174 l 174 868 l 347 868 l 347 1042 l 1042 1042 l 1042 868 l 1215 868 l 1215 174 l 1042 174 l 1042 0 l 347 0 l 347 174 l 174 174 m 347 347 l 521 347 l 521 174 l 868 174 l 868 347 l 1042 347 l 1042 694 l 868 694 l 868 868 l 521 868 l 521 694 l 347 694 l 347 347 z "},"\n":{"ha":1389,"x_min":0,"x_max":1389,"o":"m 0 -174 l 0 1215 l 1389 1215 l 1389 -174 l 0 -174 m 347 174 l 347 0 l 1042 0 l 1042 174 l 1215 174 l 1215 868 l 1042 868 l 1042 1042 l 347 1042 l 347 868 l 174 868 l 174 174 l 347 174 m 347 347 l 347 694 l 521 694 l 521 868 l 868 868 l 868 694 l 1042 694 l 1042 347 l 868 347 l 868 174 l 521 174 l 521 347 l 347 347 z "},"\u000b":{"ha":1389,"x_min":0,"x_max":1389,"o":"m 0 0 l 0 521 l 174 521 l 174 694 l 694 694 l 694 868 l 868 868 l 868 1042 l 694 1042 l 694 1215 l 1389 1215 l 1389 521 l 1215 521 l 1215 694 l 1042 694 l 1042 0 l 868 0 l 868 -174 l 174 -174 l 174 0 l 0 0 m 347 0 l 694 0 l 694 521 l 347 521 l 347 0 z "},"\f":{"ha":1389,"x_min":174,"x_max":1215,"o":"m 347 347 l 347 521 l 174 521 l 174 1042 l 347 1042 l 347 1215 l 1042 1215 l 1042 1042 l 1215 1042 l 1215 521 l 1042 521 l 1042 347 l 868 347 l 868 174 l 1215 174 l 1215 0 l 868 0 l 868 -174 l 521 -174 l 521 0 l 174 0 l 174 174 l 521 174 l 521 347 l 347 347 m 521 521 l 868 521 l 868 1042 l 521 1042 l 521 521 z "},"\u000e":{"ha":1389,"x_min":0,"x_max":1389,"o":"m 0 174 l 174 174 l 174 1215 l 1389 1215 l 1389 174 l 1215 174 l 1215 0 l 868 0 l 868 347 l 1042 347 l 1042 694 l 521 694 l 521 0 l 347 0 l 347 -174 l 0 -174 l 0 174 m 521 868 l 1042 868 l 1042 1042 l 521 1042 l 521 868 z "},"\u000f":{"ha":1389,"x_min":0,"x_max":1389,"o":"m 0 0 l 0 174 l 347 174 l 347 0 l 0 0 m 0 347 l 0 694 l 347 694 l 347 868 l 521 868 l 521 1215 l 868 1215 l 868 868 l 1042 868 l 1042 694 l 1389 694 l 1389 347 l 1042 347 l 1042 174 l 868 174 l 868 -174 l 521 -174 l 521 174 l 347 174 l 347 347 l 0 347 m 0 868 l 0 1042 l 347 1042 l 347 868 l 0 868 m 1042 174 l 1389 174 l 1389 0 l 1042 0 l 1042 174 m 1042 868 l 1042 1042 l 1389 1042 l 1389 868 l 1042 868 m 521 347 l 868 347 l 868 694 l 521 694 l 521 347 z "},"\u0010":{"ha":1389,"x_min":0,"x_max":1215,"o":"m 0 0 l 0 1215 l 174 1215 l 174 1042 l 521 1042 l 521 868 l 868 868 l 868 694 l 1215 694 l 1215 521 l 868 521 l 868 347 l 521 347 l 521 174 l 174 174 l 174 0 l 0 0 z "},"\u0011":{"ha":1389,"x_min":0,"x_max":1215,"o":"m 0 521 l 0 694 l 347 694 l 347 868 l 694 868 l 694 1042 l 1042 1042 l 1042 1215 l 1215 1215 l 1215 0 l 1042 0 l 1042 174 l 694 174 l 694 347 l 347 347 l 347 521 l 0 521 z "},"\u0012":{"ha":1389,"x_min":174,"x_max":1215,"o":"m 347 174 l 174 174 l 174 347 l 521 347 l 521 694 l 174 694 l 174 868 l 347 868 l 347 1042 l 521 1042 l 521 1215 l 868 1215 l 868 1042 l 1042 1042 l 1042 868 l 1215 868 l 1215 694 l 868 694 l 868 347 l 1215 347 l 1215 174 l 1042 174 l 1042 0 l 868 0 l 868 -174 l 521 -174 l 521 0 l 347 0 l 347 174 z "},"\u0013":{"ha":1389,"x_min":174,"x_max":1215,"o":"m 174 0 l 174 174 l 521 174 l 521 0 l 174 0 m 174 347 l 174 1215 l 521 1215 l 521 347 l 174 347 m 868 0 l 868 174 l 1215 174 l 1215 0 l 868 0 m 868 347 l 868 1215 l 1215 1215 l 1215 347 l 868 347 z "},"\u0014":{"ha":1389,"x_min":0,"x_max":1389,"o":"m 1389 0 l 1042 0 l 1042 1042 l 868 1042 l 868 0 l 521 0 l 521 521 l 174 521 l 174 694 l 0 694 l 0 1042 l 174 1042 l 174 1215 l 1389 1215 l 1389 0 m 347 694 l 521 694 l 521 1042 l 347 1042 l 347 694 z "},"\u0015":{"ha":1389,"x_min":0,"x_max":1389,"o":"m 0 0 l 0 174 l 347 174 l 347 0 l 694 0 l 694 174 l 347 174 l 347 347 l 174 347 l 174 694 l 347 694 l 347 868 l 174 868 l 174 1042 l 347 1042 l 347 1215 l 1215 1215 l 1215 1042 l 1389 1042 l 1389 868 l 1042 868 l 1042 1042 l 521 1042 l 521 868 l 868 868 l 868 694 l 1042 694 l 1042 347 l 868 347 l 868 174 l 1042 174 l 1042 0 l 868 0 l 868 -174 l 174 -174 l 174 0 l 0 0 m 694 347 l 694 694 l 521 694 l 521 347 l 694 347 z "},"\u0016":{"ha":1389,"x_min":174,"x_max":1215,"o":"m 174 0 l 174 521 l 1215 521 l 1215 0 l 174 0 z "},"\u0017":{"ha":1389,"x_min":0,"x_max":1389,"o":"m 0 -174 l 0 0 l 521 0 l 521 174 l 347 174 l 347 347 l 174 347 l 174 521 l 521 521 l 521 694 l 174 694 l 174 868 l 347 868 l 347 1042 l 521 1042 l 521 1215 l 868 1215 l 868 1042 l 1042 1042 l 1042 868 l 1215 868 l 1215 694 l 868 694 l 868 521 l 1215 521 l 1215 347 l 1042 347 l 1042 174 l 868 174 l 868 0 l 1389 0 l 1389 -174 l 0 -174 z "},"\u0018":{"ha":1389,"x_min":174,"x_max":1215,"o":"m 174 694 l 174 868 l 347 868 l 347 1042 l 521 1042 l 521 1215 l 868 1215 l 868 1042 l 1042 1042 l 1042 868 l 1215 868 l 1215 694 l 868 694 l 868 0 l 521 0 l 521 694 l 174 694 z "},"\u0019":{"ha":1389,"x_min":174,"x_max":1215,"o":"m 174 347 l 174 521 l 521 521 l 521 1215 l 868 1215 l 868 521 l 1215 521 l 1215 347 l 1042 347 l 1042 174 l 868 174 l 868 0 l 521 0 l 521 174 l 347 174 l 347 347 l 174 347 z "},"\u001a":{"ha":1389,"x_min":0,"x_max":1215,"o":"m 0 521 l 0 694 l 694 694 l 694 868 l 521 868 l 521 1042 l 868 1042 l 868 868 l 1042 868 l 1042 694 l 1215 694 l 1215 521 l 1042 521 l 1042 347 l 868 347 l 868 174 l 521 174 l 521 347 l 694 347 l 694 521 l 0 521 z "},"\u001b":{"ha":1389,"x_min":0,"x_max":1215,"o":"m 0 521 l 0 694 l 174 694 l 174 868 l 347 868 l 347 1042 l 694 1042 l 694 868 l 521 868 l 521 694 l 1215 694 l 1215 521 l 521 521 l 521 347 l 694 347 l 694 174 l 347 174 l 347 347 l 174 347 l 174 521 l 0 521 z "},"\u001c":{"ha":1389,"x_min":0,"x_max":1215,"o":"m 0 174 l 0 868 l 347 868 l 347 347 l 1215 347 l 1215 174 l 0 174 z "},"\u001d":{"ha":1389,"x_min":0,"x_max":1389,"o":"m 0 521 l 0 694 l 174 694 l 174 868 l 347 868 l 347 1042 l 521 1042 l 521 694 l 868 694 l 868 1042 l 1042 1042 l 1042 868 l 1215 868 l 1215 694 l 1389 694 l 1389 521 l 1215 521 l 1215 347 l 1042 347 l 1042 174 l 868 174 l 868 521 l 521 521 l 521 174 l 347 174 l 347 347 l 174 347 l 174 521 l 0 521 z "},"\u001e":{"ha":1389,"x_min":0,"x_max":1389,"o":"m 0 174 l 0 521 l 174 521 l 174 694 l 347 694 l 347 868 l 521 868 l 521 1042 l 868 1042 l 868 868 l 1042 868 l 1042 694 l 1215 694 l 1215 521 l 1389 521 l 1389 174 l 0 174 z "},"\u001f":{"ha":1389,"x_min":0,"x_max":1389,"o":"m 0 694 l 0 1042 l 1389 1042 l 1389 694 l 1215 694 l 1215 521 l 1042 521 l 1042 347 l 868 347 l 868 174 l 521 174 l 521 347 l 347 347 l 347 521 l 174 521 l 174 694 l 0 694 z "}," ":{"ha":1389,"x_min":0,"x_max":0,"o":""},"!":{"ha":1389,"x_min":174,"x_max":868,"o":"m 174 694 l 174 1042 l 347 1042 l 347 1215 l 694 1215 l 694 1042 l 868 1042 l 868 694 l 694 694 l 694 347 l 347 347 l 347 694 l 174 694 m 347 0 l 347 174 l 694 174 l 694 0 l 347 0 z "},"\"":{"ha":1389,"x_min":174,"x_max":1042,"o":"m 694 694 l 694 1215 l 1042 1215 l 1042 694 l 694 694 m 174 694 l 174 1215 l 521 1215 l 521 694 l 174 694 z "},"#":{"ha":1389,"x_min":0,"x_max":1215,"o":"m 0 347 l 0 521 l 174 521 l 174 694 l 0 694 l 0 868 l 174 868 l 174 1215 l 521 1215 l 521 868 l 694 868 l 694 1215 l 1042 1215 l 1042 868 l 1215 868 l 1215 694 l 1042 694 l 1042 521 l 1215 521 l 1215 347 l 1042 347 l 1042 0 l 694 0 l 694 347 l 521 347 l 521 0 l 174 0 l 174 347 l 0 347 m 694 694 l 521 694 l 521 521 l 694 521 l 694 694 z "},"$":{"ha":1389,"x_min":0,"x_max":1042,"o":"m 0 174 l 0 347 l 694 347 l 694 521 l 174 521 l 174 694 l 0 694 l 0 868 l 174 868 l 174 1042 l 347 1042 l 347 1215 l 694 1215 l 694 1042 l 1042 1042 l 1042 868 l 347 868 l 347 694 l 868 694 l 868 521 l 1042 521 l 1042 347 l 868 347 l 868 174 l 694 174 l 694 0 l 347 0 l 347 174 l 0 174 z "},"%":{"ha":1389,"x_min":0,"x_max":1215,"o":"m 0 0 l 0 174 l 174 174 l 174 347 l 347 347 l 347 521 l 521 521 l 521 694 l 694 694 l 694 868 l 868 868 l 868 1042 l 1215 1042 l 1215 868 l 1042 868 l 1042 694 l 868 694 l 868 521 l 694 521 l 694 347 l 521 347 l 521 174 l 347 174 l 347 0 l 0 0 m 0 694 l 0 1042 l 347 1042 l 347 694 l 0 694 m 868 347 l 1215 347 l 1215 0 l 868 0 l 868 347 z "},"&":{"ha":1389,"x_min":0,"x_max":1215,"o":"m 0 174 l 0 521 l 174 521 l 174 694 l 347 694 l 347 868 l 174 868 l 174 1042 l 347 1042 l 347 1215 l 868 1215 l 868 1042 l 1042 1042 l 1042 868 l 868 868 l 868 694 l 694 694 l 694 521 l 868 521 l 868 694 l 1215 694 l 1215 521 l 1042 521 l 1042 174 l 1215 174 l 1215 0 l 868 0 l 868 174 l 694 174 l 694 347 l 521 347 l 521 521 l 347 521 l 347 174 l 694 174 l 694 0 l 174 0 l 174 174 l 0 174 m 694 868 l 694 1042 l 521 1042 l 521 868 l 694 868 z "},"'":{"ha":1389,"x_min":0,"x_max":521,"o":"m 0 694 l 0 868 l 174 868 l 174 1215 l 521 1215 l 521 868 l 347 868 l 347 694 l 0 694 z "},"(":{"ha":1389,"x_min":174,"x_max":868,"o":"m 174 347 l 174 868 l 347 868 l 347 1042 l 521 1042 l 521 1215 l 868 1215 l 868 1042 l 694 1042 l 694 868 l 521 868 l 521 347 l 694 347 l 694 174 l 868 174 l 868 0 l 521 0 l 521 174 l 347 174 l 347 347 l 174 347 z "},")":{"ha":1389,"x_min":174,"x_max":868,"o":"m 174 0 l 174 174 l 347 174 l 347 347 l 521 347 l 521 868 l 347 868 l 347 1042 l 174 1042 l 174 1215 l 521 1215 l 521 1042 l 694 1042 l 694 868 l 868 868 l 868 347 l 694 347 l 694 174 l 521 174 l 521 0 l 174 0 z "},"*":{"ha":1389,"x_min":0,"x_max":1389,"o":"m 0 521 l 0 694 l 347 694 l 347 868 l 174 868 l 174 1042 l 521 1042 l 521 868 l 868 868 l 868 1042 l 1215 1042 l 1215 868 l 1042 868 l 1042 694 l 1389 694 l 1389 521 l 1042 521 l 1042 347 l 1215 347 l 1215 174 l 868 174 l 868 347 l 521 347 l 521 174 l 174 174 l 174 347 l 347 347 l 347 521 l 0 521 z "},"+":{"ha":1389,"x_min":0,"x_max":1042,"o":"m 694 174 l 347 174 l 347 521 l 0 521 l 0 694 l 347 694 l 347 1042 l 694 1042 l 694 694 l 1042 694 l 1042 521 l 694 521 l 694 174 z "},",":{"ha":1389,"x_min":174,"x_max":694,"o":"m 694 0 l 521 0 l 521 -174 l 174 -174 l 174 0 l 347 0 l 347 347 l 694 347 l 694 0 z "},"-":{"ha":1389,"x_min":0,"x_max":1042,"o":"m 0 521 l 0 694 l 1042 694 l 1042 521 l 0 521 z "},".":{"ha":1389,"x_min":347,"x_max":694,"o":"m 694 347 l 694 0 l 347 0 l 347 347 l 694 347 z "},"/":{"ha":1389,"x_min":0,"x_max":1215,"o":"m 0 347 l 174 347 l 174 521 l 347 521 l 347 694 l 521 694 l 521 868 l 694 868 l 694 1042 l 868 1042 l 868 1215 l 1215 1215 l 1215 1042 l 1042 1042 l 1042 868 l 868 868 l 868 694 l 694 694 l 694 521 l 521 521 l 521 347 l 347 347 l 347 174 l 174 174 l 174 0 l 0 0 l 0 347 z "},":":{"ha":1389,"x_min":347,"x_max":694,"o":"m 694 347 l 694 0 l 347 0 l 347 347 l 694 347 m 694 694 l 347 694 l 347 1042 l 694 1042 l 694 694 z "},";":{"ha":1389,"x_min":174,"x_max":694,"o":"m 694 174 l 521 174 l 521 0 l 174 0 l 174 174 l 347 174 l 347 521 l 694 521 l 694 174 m 694 694 l 347 694 l 347 1042 l 694 1042 l 694 694 z "},"<":{"ha":1389,"x_min":0,"x_max":868,"o":"m 0 521 l 0 694 l 174 694 l 174 868 l 347 868 l 347 1042 l 521 1042 l 521 1215 l 868 1215 l 868 1042 l 694 1042 l 694 868 l 521 868 l 521 694 l 347 694 l 347 521 l 521 521 l 521 347 l 694 347 l 694 174 l 868 174 l 868 0 l 521 0 l 521 174 l 347 174 l 347 347 l 174 347 l 174 521 l 0 521 z "},"=":{"ha":1389,"x_min":0,"x_max":1042,"o":"m 0 174 l 0 347 l 1042 347 l 1042 174 l 0 174 m 0 694 l 0 868 l 1042 868 l 1042 694 l 0 694 z "},">":{"ha":1389,"x_min":174,"x_max":1042,"o":"m 347 174 l 347 347 l 521 347 l 521 521 l 694 521 l 694 694 l 521 694 l 521 868 l 347 868 l 347 1042 l 174 1042 l 174 1215 l 521 1215 l 521 1042 l 694 1042 l 694 868 l 868 868 l 868 694 l 1042 694 l 1042 521 l 868 521 l 868 347 l 694 347 l 694 174 l 521 174 l 521 0 l 174 0 l 174 174 l 347 174 z "},"?":{"ha":1389,"x_min":0,"x_max":1042,"o":"m 0 868 l 0 1042 l 174 1042 l 174 1215 l 868 1215 l 868 1042 l 1042 1042 l 1042 694 l 868 694 l 868 521 l 694 521 l 694 347 l 347 347 l 347 521 l 521 521 l 521 694 l 694 694 l 694 1042 l 347 1042 l 347 868 l 0 868 m 347 0 l 347 174 l 694 174 l 694 0 l 347 0 z "},"@":{"ha":1389,"x_min":0,"x_max":1215,"o":"m 0 174 l 0 1042 l 174 1042 l 174 1215 l 1042 1215 l 1042 1042 l 1215 1042 l 1215 347 l 521 347 l 521 868 l 868 868 l 868 1042 l 347 1042 l 347 174 l 868 174 l 868 0 l 174 0 l 174 174 l 0 174 z "},"A":{"ha":1389,"x_min":0,"x_max":1042,"o":"m 0 0 l 0 868 l 174 868 l 174 1042 l 347 1042 l 347 1215 l 694 1215 l 694 1042 l 868 1042 l 868 868 l 1042 868 l 1042 0 l 694 0 l 694 347 l 347 347 l 347 0 l 0 0 m 347 868 l 347 521 l 694 521 l 694 868 l 347 868 z "},"B":{"ha":1389,"x_min":0,"x_max":1215,"o":"m 0 0 l 0 174 l 174 174 l 174 1042 l 0 1042 l 0 1215 l 1042 1215 l 1042 1042 l 1215 1042 l 1215 694 l 1042 694 l 1042 521 l 1215 521 l 1215 174 l 1042 174 l 1042 0 l 0 0 m 521 174 l 868 174 l 868 521 l 521 521 l 521 174 m 521 694 l 868 694 l 868 1042 l 521 1042 l 521 694 z "},"C":{"ha":1389,"x_min":0,"x_max":1215,"o":"m 0 347 l 0 868 l 174 868 l 174 1042 l 347 1042 l 347 1215 l 1042 1215 l 1042 1042 l 1215 1042 l 1215 868 l 868 868 l 868 1042 l 521 1042 l 521 868 l 347 868 l 347 347 l 521 347 l 521 174 l 868 174 l 868 347 l 1215 347 l 1215 174 l 1042 174 l 1042 0 l 347 0 l 347 174 l 174 174 l 174 347 l 0 347 z "},"D":{"ha":1389,"x_min":0,"x_max":1215,"o":"m 0 0 l 0 174 l 174 174 l 174 1042 l 0 1042 l 0 1215 l 868 1215 l 868 1042 l 1042 1042 l 1042 868 l 1215 868 l 1215 347 l 1042 347 l 1042 174 l 868 174 l 868 0 l 0 0 m 521 174 l 694 174 l 694 347 l 868 347 l 868 868 l 694 868 l 694 1042 l 521 1042 l 521 174 z "},"E":{"ha":1389,"x_min":0,"x_max":1215,"o":"m 0 0 l 0 174 l 174 174 l 174 1042 l 0 1042 l 0 1215 l 1215 1215 l 1215 868 l 1042 868 l 1042 1042 l 521 1042 l 521 694 l 694 694 l 694 868 l 868 868 l 868 347 l 694 347 l 694 521 l 521 521 l 521 174 l 1042 174 l 1042 347 l 1215 347 l 1215 0 l 0 0 z "},"F":{"ha":1389,"x_min":0,"x_max":1215,"o":"m 0 0 l 0 174 l 174 174 l 174 1042 l 0 1042 l 0 1215 l 1215 1215 l 1215 868 l 1042 868 l 1042 1042 l 521 1042 l 521 694 l 694 694 l 694 868 l 868 868 l 868 347 l 694 347 l 694 521 l 521 521 l 521 174 l 694 174 l 694 0 l 0 0 z "},"G":{"ha":1389,"x_min":0,"x_max":1215,"o":"m 0 347 l 0 868 l 174 868 l 174 1042 l 347 1042 l 347 1215 l 1042 1215 l 1042 1042 l 1215 1042 l 1215 868 l 868 868 l 868 1042 l 521 1042 l 521 868 l 347 868 l 347 347 l 521 347 l 521 174 l 868 174 l 868 347 l 694 347 l 694 521 l 1215 521 l 1215 0 l 347 0 l 347 174 l 174 174 l 174 347 l 0 347 z "},"H":{"ha":1389,"x_min":0,"x_max":1042,"o":"m 0 0 l 0 1215 l 347 1215 l 347 694 l 694 694 l 694 1215 l 1042 1215 l 1042 0 l 694 0 l 694 521 l 347 521 l 347 0 l 0 0 z "},"I":{"ha":1389,"x_min":174,"x_max":868,"o":"m 694 174 l 868 174 l 868 0 l 174 0 l 174 174 l 347 174 l 347 1042 l 174 1042 l 174 1215 l 868 1215 l 868 1042 l 694 1042 l 694 174 z "},"J":{"ha":1389,"x_min":0,"x_max":1215,"o":"m 0 174 l 0 521 l 347 521 l 347 174 l 694 174 l 694 1042 l 521 1042 l 521 1215 l 1215 1215 l 1215 1042 l 1042 1042 l 1042 174 l 868 174 l 868 0 l 174 0 l 174 174 l 0 174 z "},"K":{"ha":1389,"x_min":0,"x_max":1215,"o":"m 0 0 l 0 174 l 174 174 l 174 1042 l 0 1042 l 0 1215 l 521 1215 l 521 694 l 694 694 l 694 868 l 868 868 l 868 1215 l 1215 1215 l 1215 868 l 1042 868 l 1042 694 l 868 694 l 868 521 l 1042 521 l 1042 347 l 1215 347 l 1215 0 l 868 0 l 868 347 l 694 347 l 694 521 l 521 521 l 521 0 l 0 0 z "},"L":{"ha":1389,"x_min":0,"x_max":1215,"o":"m 0 0 l 0 174 l 174 174 l 174 1042 l 0 1042 l 0 1215 l 694 1215 l 694 1042 l 521 1042 l 521 174 l 868 174 l 868 347 l 1042 347 l 1042 521 l 1215 521 l 1215 0 l 0 0 z "},"M":{"ha":1389,"x_min":0,"x_max":1215,"o":"m 0 0 l 0 1215 l 347 1215 l 347 1042 l 521 1042 l 521 868 l 694 868 l 694 1042 l 868 1042 l 868 1215 l 1215 1215 l 1215 0 l 868 0 l 868 521 l 694 521 l 694 347 l 521 347 l 521 521 l 347 521 l 347 0 l 0 0 z "},"N":{"ha":1389,"x_min":0,"x_max":1215,"o":"m 0 0 l 0 1215 l 347 1215 l 347 1042 l 521 1042 l 521 868 l 694 868 l 694 694 l 868 694 l 868 1215 l 1215 1215 l 1215 0 l 868 0 l 868 347 l 694 347 l 694 521 l 521 521 l 521 694 l 347 694 l 347 0 l 0 0 z "},"O":{"ha":1389,"x_min":0,"x_max":1215,"o":"m 0 347 l 0 868 l 174 868 l 174 1042 l 347 1042 l 347 1215 l 868 1215 l 868 1042 l 1042 1042 l 1042 868 l 1215 868 l 1215 347 l 1042 347 l 1042 174 l 868 174 l 868 0 l 347 0 l 347 174 l 174 174 l 174 347 l 0 347 m 347 347 l 521 347 l 521 174 l 694 174 l 694 347 l 868 347 l 868 868 l 694 868 l 694 1042 l 521 1042 l 521 868 l 347 868 l 347 347 z "},"P":{"ha":1389,"x_min":0,"x_max":1215,"o":"m 0 0 l 0 174 l 174 174 l 174 1042 l 0 1042 l 0 1215 l 1042 1215 l 1042 1042 l 1215 1042 l 1215 694 l 1042 694 l 1042 521 l 521 521 l 521 174 l 694 174 l 694 0 l 0 0 m 521 694 l 868 694 l 868 1042 l 521 1042 l 521 694 z "},"Q":{"ha":1389,"x_min":0,"x_max":1042,"o":"m 0 347 l 0 1042 l 174 1042 l 174 1215 l 868 1215 l 868 1042 l 1042 1042 l 1042 347 l 868 347 l 868 174 l 1042 174 l 1042 0 l 521 0 l 521 174 l 174 174 l 174 347 l 0 347 m 347 347 l 521 347 l 521 521 l 694 521 l 694 1042 l 347 1042 l 347 347 z "},"R":{"ha":1389,"x_min":0,"x_max":1215,"o":"m 0 0 l 0 174 l 174 174 l 174 1042 l 0 1042 l 0 1215 l 1042 1215 l 1042 1042 l 1215 1042 l 1215 694 l 1042 694 l 1042 347 l 1215 347 l 1215 0 l 868 0 l 868 347 l 694 347 l 694 521 l 521 521 l 521 0 l 0 0 m 521 694 l 868 694 l 868 1042 l 521 1042 l 521 694 z "},"S":{"ha":1389,"x_min":0,"x_max":1042,"o":"m 0 174 l 0 347 l 347 347 l 347 174 l 694 174 l 694 347 l 521 347 l 521 521 l 347 521 l 347 694 l 174 694 l 174 868 l 0 868 l 0 1042 l 174 1042 l 174 1215 l 868 1215 l 868 1042 l 1042 1042 l 1042 868 l 694 868 l 694 1042 l 347 1042 l 347 868 l 521 868 l 521 694 l 694 694 l 694 521 l 868 521 l 868 347 l 1042 347 l 1042 174 l 868 174 l 868 0 l 174 0 l 174 174 l 0 174 z "},"T":{"ha":1389,"x_min":0,"x_max":1042,"o":"m 0 868 l 0 1215 l 1042 1215 l 1042 868 l 868 868 l 868 1042 l 694 1042 l 694 174 l 868 174 l 868 0 l 174 0 l 174 174 l 347 174 l 347 1042 l 174 1042 l 174 868 l 0 868 z "},"U":{"ha":1389,"x_min":0,"x_max":1042,"o":"m 0 0 l 0 1215 l 347 1215 l 347 174 l 694 174 l 694 1215 l 1042 1215 l 1042 0 l 0 0 z "},"V":{"ha":1389,"x_min":0,"x_max":1042,"o":"m 0 347 l 0 1215 l 347 1215 l 347 347 l 694 347 l 694 1215 l 1042 1215 l 1042 347 l 868 347 l 868 174 l 694 174 l 694 0 l 347 0 l 347 174 l 174 174 l 174 347 l 0 347 z "},"W":{"ha":1389,"x_min":0,"x_max":1215,"o":"m 0 0 l 0 1215 l 347 1215 l 347 521 l 521 521 l 521 694 l 694 694 l 694 521 l 868 521 l 868 1215 l 1215 1215 l 1215 0 l 868 0 l 868 174 l 694 174 l 694 347 l 521 347 l 521 174 l 347 174 l 347 0 l 0 0 z "},"X":{"ha":1389,"x_min":0,"x_max":1215,"o":"m 0 0 l 0 174 l 174 174 l 174 347 l 347 347 l 347 694 l 174 694 l 174 868 l 0 868 l 0 1215 l 347 1215 l 347 868 l 521 868 l 521 694 l 694 694 l 694 868 l 868 868 l 868 1215 l 1215 1215 l 1215 868 l 1042 868 l 1042 694 l 868 694 l 868 347 l 1042 347 l 1042 174 l 1215 174 l 1215 0 l 868 0 l 868 174 l 694 174 l 694 347 l 521 347 l 521 174 l 347 174 l 347 0 l 0 0 z "},"Y":{"ha":1389,"x_min":0,"x_max":1042,"o":"m 0 694 l 0 1215 l 347 1215 l 347 694 l 694 694 l 694 1215 l 1042 1215 l 1042 694 l 868 694 l 868 521 l 694 521 l 694 174 l 868 174 l 868 0 l 174 0 l 174 174 l 347 174 l 347 521 l 174 521 l 174 694 l 0 694 z "},"Z":{"ha":1389,"x_min":0,"x_max":1215,"o":"m 0 0 l 0 174 l 174 174 l 174 347 l 347 347 l 347 521 l 521 521 l 521 694 l 694 694 l 694 868 l 868 868 l 868 1042 l 347 1042 l 347 868 l 174 868 l 174 694 l 0 694 l 0 1215 l 1215 1215 l 1215 868 l 1042 868 l 1042 694 l 868 694 l 868 521 l 694 521 l 694 347 l 521 347 l 521 174 l 868 174 l 868 347 l 1042 347 l 1042 521 l 1215 521 l 1215 0 l 0 0 z "},"[":{"ha":1389,"x_min":174,"x_max":868,"o":"m 174 0 l 174 1215 l 868 1215 l 868 1042 l 521 1042 l 521 174 l 868 174 l 868 0 l 174 0 z "},"\\":{"ha":1389,"x_min":0,"x_max":1215,"o":"m 0 1042 l 0 1215 l 347 1215 l 347 1042 l 521 1042 l 521 868 l 694 868 l 694 694 l 868 694 l 868 521 l 1042 521 l 1042 347 l 1215 347 l 1215 0 l 1042 0 l 1042 174 l 868 174 l 868 347 l 694 347 l 694 521 l 521 521 l 521 694 l 347 694 l 347 868 l 174 868 l 174 1042 l 0 1042 z "},"]":{"ha":1389,"x_min":174,"x_max":868,"o":"m 174 0 l 174 174 l 521 174 l 521 1042 l 174 1042 l 174 1215 l 868 1215 l 868 0 l 174 0 z "},"^":{"ha":1389,"x_min":0,"x_max":1215,"o":"m 0 521 l 0 694 l 174 694 l 174 868 l 347 868 l 347 1042 l 521 1042 l 521 1215 l 694 1215 l 694 1042 l 868 1042 l 868 868 l 1042 868 l 1042 694 l 1215 694 l 1215 521 l 868 521 l 868 694 l 694 694 l 694 868 l 521 868 l 521 694 l 347 694 l 347 521 l 0 521 z "},"_":{"ha":1389,"x_min":0,"x_max":1389,"o":"m 0 -174 l 0 0 l 1389 0 l 1389 -174 l 0 -174 z "},"`":{"ha":1389,"x_min":347,"x_max":868,"o":"m 694 868 l 868 868 l 868 694 l 521 694 l 521 868 l 347 868 l 347 1215 l 694 1215 l 694 868 z "},"a":{"ha":1389,"x_min":0,"x_max":1215,"o":"m 0 174 l 0 347 l 174 347 l 174 521 l 694 521 l 694 694 l 174 694 l 174 868 l 868 868 l 868 694 l 1042 694 l 1042 174 l 1215 174 l 1215 0 l 868 0 l 868 174 l 694 174 l 694 347 l 347 347 l 347 174 l 694 174 l 694 0 l 174 0 l 174 174 l 0 174 z "},"b":{"ha":1389,"x_min":0,"x_max":1215,"o":"m 0 0 l 0 174 l 174 174 l 174 1042 l 0 1042 l 0 1215 l 521 1215 l 521 694 l 1042 694 l 1042 521 l 1215 521 l 1215 174 l 1042 174 l 1042 0 l 521 0 l 521 174 l 868 174 l 868 521 l 521 521 l 521 174 l 347 174 l 347 0 l 0 0 z "},"c":{"ha":1389,"x_min":0,"x_max":1042,"o":"m 0 174 l 0 694 l 174 694 l 174 868 l 868 868 l 868 694 l 1042 694 l 1042 521 l 694 521 l 694 694 l 347 694 l 347 174 l 694 174 l 694 347 l 1042 347 l 1042 174 l 868 174 l 868 0 l 174 0 l 174 174 l 0 174 z "},"d":{"ha":1389,"x_min":0,"x_max":1215,"o":"m 0 174 l 0 521 l 174 521 l 174 694 l 694 694 l 694 1042 l 521 1042 l 521 1215 l 1042 1215 l 1042 174 l 1215 174 l 1215 0 l 868 0 l 868 174 l 694 174 l 694 521 l 347 521 l 347 174 l 694 174 l 694 0 l 174 0 l 174 174 l 0 174 z "},"e":{"ha":1389,"x_min":0,"x_max":1042,"o":"m 0 174 l 0 694 l 174 694 l 174 868 l 868 868 l 868 694 l 1042 694 l 1042 347 l 347 347 l 347 174 l 868 174 l 868 0 l 174 0 l 174 174 l 0 174 m 347 694 l 347 521 l 694 521 l 694 694 l 347 694 z "},"f":{"ha":1389,"x_min":0,"x_max":1042,"o":"m 0 0 l 0 174 l 174 174 l 174 521 l 0 521 l 0 694 l 174 694 l 174 1042 l 347 1042 l 347 1215 l 868 1215 l 868 1042 l 1042 1042 l 1042 868 l 694 868 l 694 1042 l 521 1042 l 521 694 l 694 694 l 694 521 l 521 521 l 521 174 l 694 174 l 694 0 l 0 0 z "},"g":{"ha":1389,"x_min":0,"x_max":1215,"o":"m 0 -174 l 0 0 l 694 0 l 694 174 l 174 174 l 174 347 l 0 347 l 0 694 l 174 694 l 174 868 l 694 868 l 694 694 l 347 694 l 347 347 l 694 347 l 694 694 l 868 694 l 868 868 l 1215 868 l 1215 694 l 1042 694 l 1042 0 l 868 0 l 868 -174 l 0 -174 z "},"h":{"ha":1389,"x_min":0,"x_max":1215,"o":"m 0 0 l 0 174 l 174 174 l 174 1042 l 0 1042 l 0 1215 l 521 1215 l 521 694 l 694 694 l 694 521 l 521 521 l 521 0 l 0 0 m 694 694 l 694 868 l 1042 868 l 1042 694 l 1215 694 l 1215 0 l 868 0 l 868 694 l 694 694 z "},"i":{"ha":1389,"x_min":174,"x_max":868,"o":"m 174 0 l 174 174 l 347 174 l 347 694 l 174 694 l 174 868 l 694 868 l 694 174 l 868 174 l 868 0 l 174 0 m 347 1042 l 347 1215 l 694 1215 l 694 1042 l 347 1042 z "},"j":{"ha":1389,"x_min":0,"x_max":1042,"o":"m 0 347 l 347 347 l 347 0 l 694 0 l 694 868 l 1042 868 l 1042 0 l 868 0 l 868 -174 l 174 -174 l 174 0 l 0 0 l 0 347 m 694 1042 l 694 1215 l 1042 1215 l 1042 1042 l 694 1042 z "},"k":{"ha":1389,"x_min":0,"x_max":1215,"o":"m 0 0 l 0 174 l 174 174 l 174 1042 l 0 1042 l 0 1215 l 521 1215 l 521 521 l 694 521 l 694 694 l 868 694 l 868 868 l 1215 868 l 1215 694 l 1042 694 l 1042 521 l 868 521 l 868 347 l 1042 347 l 1042 174 l 1215 174 l 1215 0 l 868 0 l 868 174 l 694 174 l 694 347 l 521 347 l 521 0 l 0 0 z "},"l":{"ha":1389,"x_min":174,"x_max":868,"o":"m 694 174 l 868 174 l 868 0 l 174 0 l 174 174 l 347 174 l 347 1042 l 174 1042 l 174 1215 l 694 1215 l 694 174 z "},"m":{"ha":1389,"x_min":0,"x_max":1215,"o":"m 0 0 l 0 868 l 347 868 l 347 694 l 694 694 l 694 868 l 1042 868 l 1042 694 l 1215 694 l 1215 0 l 868 0 l 868 347 l 694 347 l 694 174 l 521 174 l 521 347 l 347 347 l 347 0 l 0 0 z "},"n":{"ha":1389,"x_min":0,"x_max":1042,"o":"m 0 0 l 0 868 l 868 868 l 868 694 l 1042 694 l 1042 0 l 694 0 l 694 694 l 347 694 l 347 0 l 0 0 z "},"o":{"ha":1389,"x_min":0,"x_max":1042,"o":"m 0 174 l 0 694 l 174 694 l 174 868 l 868 868 l 868 694 l 1042 694 l 1042 174 l 868 174 l 868 0 l 174 0 l 174 174 l 0 174 m 347 174 l 694 174 l 694 694 l 347 694 l 347 174 z "},"p":{"ha":1389,"x_min":0,"x_max":1215,"o":"m 0 -174 l 0 0 l 174 0 l 174 694 l 0 694 l 0 868 l 347 868 l 347 694 l 521 694 l 521 347 l 868 347 l 868 694 l 521 694 l 521 868 l 1042 868 l 1042 694 l 1215 694 l 1215 347 l 1042 347 l 1042 174 l 521 174 l 521 0 l 694 0 l 694 -174 l 0 -174 z "},"q":{"ha":1389,"x_min":0,"x_max":1215,"o":"m 0 347 l 0 694 l 174 694 l 174 868 l 694 868 l 694 694 l 347 694 l 347 347 l 694 347 l 694 694 l 868 694 l 868 868 l 1215 868 l 1215 694 l 1042 694 l 1042 0 l 1215 0 l 1215 -174 l 521 -174 l 521 0 l 694 0 l 694 174 l 174 174 l 174 347 l 0 347 z "},"r":{"ha":1389,"x_min":0,"x_max":1215,"o":"m 0 0 l 0 174 l 174 174 l 174 694 l 0 694 l 0 868 l 347 868 l 347 694 l 521 694 l 521 868 l 1042 868 l 1042 694 l 1215 694 l 1215 347 l 868 347 l 868 694 l 694 694 l 694 521 l 521 521 l 521 174 l 694 174 l 694 0 l 0 0 z "},"s":{"ha":1389,"x_min":0,"x_max":1042,"o":"m 0 0 l 0 174 l 694 174 l 694 347 l 174 347 l 174 521 l 0 521 l 0 694 l 174 694 l 174 868 l 1042 868 l 1042 694 l 347 694 l 347 521 l 868 521 l 868 347 l 1042 347 l 1042 174 l 868 174 l 868 0 l 0 0 z "},"t":{"ha":1389,"x_min":174,"x_max":1042,"o":"m 174 694 l 174 868 l 347 868 l 347 1042 l 521 1042 l 521 1215 l 694 1215 l 694 868 l 1042 868 l 1042 694 l 694 694 l 694 174 l 868 174 l 868 0 l 521 0 l 521 174 l 347 174 l 347 694 l 174 694 m 868 174 l 868 347 l 1042 347 l 1042 174 l 868 174 z "},"u":{"ha":1389,"x_min":0,"x_max":1215,"o":"m 0 174 l 0 868 l 347 868 l 347 174 l 694 174 l 694 0 l 174 0 l 174 174 l 0 174 m 694 174 l 694 868 l 1042 868 l 1042 174 l 1215 174 l 1215 0 l 868 0 l 868 174 l 694 174 z "},"v":{"ha":1389,"x_min":0,"x_max":1042,"o":"m 0 347 l 0 868 l 347 868 l 347 347 l 694 347 l 694 868 l 1042 868 l 1042 347 l 868 347 l 868 174 l 694 174 l 694 0 l 347 0 l 347 174 l 174 174 l 174 347 l 0 347 z "},"w":{"ha":1389,"x_min":0,"x_max":1215,"o":"m 0 174 l 0 868 l 347 868 l 347 521 l 521 521 l 521 694 l 694 694 l 694 521 l 868 521 l 868 868 l 1215 868 l 1215 174 l 1042 174 l 1042 0 l 694 0 l 694 174 l 521 174 l 521 0 l 174 0 l 174 174 l 0 174 z "},"x":{"ha":1389,"x_min":0,"x_max":1215,"o":"m 0 0 l 0 174 l 174 174 l 174 347 l 347 347 l 347 521 l 174 521 l 174 694 l 0 694 l 0 868 l 347 868 l 347 694 l 521 694 l 521 521 l 694 521 l 694 694 l 868 694 l 868 868 l 1215 868 l 1215 694 l 1042 694 l 1042 521 l 868 521 l 868 347 l 1042 347 l 1042 174 l 1215 174 l 1215 0 l 868 0 l 868 174 l 694 174 l 694 347 l 521 347 l 521 174 l 347 174 l 347 0 l 0 0 z "},"y":{"ha":1389,"x_min":0,"x_max":1042,"o":"m 0 -174 l 0 0 l 694 0 l 694 174 l 174 174 l 174 347 l 0 347 l 0 868 l 347 868 l 347 347 l 694 347 l 694 868 l 1042 868 l 1042 0 l 868 0 l 868 -174 l 0 -174 z "},"z":{"ha":1389,"x_min":0,"x_max":1042,"o":"m 0 0 l 0 174 l 174 174 l 174 347 l 347 347 l 347 521 l 521 521 l 521 694 l 174 694 l 174 521 l 0 521 l 0 868 l 1042 868 l 1042 694 l 868 694 l 868 521 l 694 521 l 694 347 l 521 347 l 521 174 l 868 174 l 868 347 l 1042 347 l 1042 0 l 0 0 z "},"{":{"ha":1389,"x_min":0,"x_max":1042,"o":"m 0 521 l 0 694 l 347 694 l 347 1042 l 521 1042 l 521 1215 l 1042 1215 l 1042 1042 l 694 1042 l 694 694 l 521 694 l 521 521 l 694 521 l 694 174 l 1042 174 l 1042 0 l 521 0 l 521 174 l 347 174 l 347 521 l 0 521 z "},"|":{"ha":1389,"x_min":521,"x_max":868,"o":"m 868 0 l 521 0 l 521 521 l 868 521 l 868 0 m 868 694 l 521 694 l 521 1215 l 868 1215 l 868 694 z "},"}":{"ha":1389,"x_min":0,"x_max":1042,"o":"m 0 0 l 0 174 l 347 174 l 347 521 l 521 521 l 521 694 l 347 694 l 347 1042 l 0 1042 l 0 1215 l 521 1215 l 521 1042 l 694 1042 l 694 694 l 1042 694 l 1042 521 l 694 521 l 694 174 l 521 174 l 521 0 l 0 0 z "},"~":{"ha":1389,"x_min":0,"x_max":1215,"o":"m 0 868 l 0 1042 l 174 1042 l 174 1215 l 694 1215 l 694 1042 l 868 1042 l 868 1215 l 1215 1215 l 1215 1042 l 1042 1042 l 1042 868 l 521 868 l 521 1042 l 347 1042 l 347 868 l 0 868 z "},"":{"ha":1389,"x_min":0,"x_max":1215,"o":"m 0 0 l 0 521 l 174 521 l 174 694 l 347 694 l 347 868 l 521 868 l 521 1042 l 694 1042 l 694 868 l 868 868 l 868 694 l 1042 694 l 1042 521 l 1215 521 l 1215 0 l 0 0 m 347 174 l 868 174 l 868 521 l 694 521 l 694 694 l 521 694 l 521 521 l 347 521 l 347 174 z "}," ":{"ha":1389,"x_min":0,"x_max":0,"o":""},"¡":{"ha":1389,"x_min":521,"x_max":868,"o":"m 868 0 l 521 0 l 521 694 l 868 694 l 868 0 m 868 868 l 521 868 l 521 1215 l 868 1215 l 868 868 z "},"¢":{"ha":1389,"x_min":0,"x_max":1215,"o":"m 0 347 l 0 694 l 174 694 l 174 868 l 521 868 l 521 1215 l 868 1215 l 868 868 l 1215 868 l 1215 694 l 347 694 l 347 347 l 1215 347 l 1215 174 l 868 174 l 868 -174 l 521 -174 l 521 174 l 174 174 l 174 347 l 0 347 z "},"£":{"ha":1389,"x_min":0,"x_max":1215,"o":"m 0 347 l 174 347 l 174 521 l 0 521 l 0 694 l 174 694 l 174 1042 l 347 1042 l 347 1215 l 868 1215 l 868 1042 l 1042 1042 l 1042 694 l 868 694 l 868 868 l 694 868 l 694 1042 l 521 1042 l 521 694 l 694 694 l 694 521 l 521 521 l 521 174 l 868 174 l 868 347 l 1215 347 l 1215 174 l 1042 174 l 1042 0 l 0 0 l 0 347 z "},"¤":{"ha":1389,"x_min":0,"x_max":1215,"o":"m 0 0 l 0 174 l 174 174 l 174 347 l 0 347 l 0 694 l 174 694 l 174 868 l 0 868 l 0 1042 l 347 1042 l 347 868 l 868 868 l 868 1042 l 1215 1042 l 1215 868 l 1042 868 l 1042 694 l 1215 694 l 1215 347 l 1042 347 l 1042 174 l 1215 174 l 1215 0 l 868 0 l 868 174 l 347 174 l 347 0 l 0 0 m 347 347 l 868 347 l 868 694 l 347 694 l 347 347 z "},"¥":{"ha":1389,"x_min":0,"x_max":1042,"o":"m 0 174 l 0 347 l 347 347 l 347 521 l 0 521 l 0 694 l 174 694 l 174 868 l 0 868 l 0 1215 l 347 1215 l 347 868 l 694 868 l 694 1215 l 1042 1215 l 1042 868 l 868 868 l 868 694 l 1042 694 l 1042 521 l 694 521 l 694 347 l 1042 347 l 1042 174 l 694 174 l 694 -174 l 347 -174 l 347 174 l 0 174 z "},"¦":{"ha":1389,"x_min":521,"x_max":868,"o":"m 868 0 l 521 0 l 521 521 l 868 521 l 868 0 m 868 694 l 521 694 l 521 1215 l 868 1215 l 868 694 z "},"§":{"ha":1389,"x_min":0,"x_max":1389,"o":"m 0 0 l 0 174 l 347 174 l 347 0 l 694 0 l 694 174 l 347 174 l 347 347 l 174 347 l 174 694 l 347 694 l 347 868 l 174 868 l 174 1042 l 347 1042 l 347 1215 l 1215 1215 l 1215 1042 l 1389 1042 l 1389 868 l 1042 868 l 1042 1042 l 521 1042 l 521 868 l 868 868 l 868 694 l 1042 694 l 1042 347 l 868 347 l 868 174 l 1042 174 l 1042 0 l 868 0 l 868 -174 l 174 -174 l 174 0 l 0 0 m 694 347 l 694 694 l 521 694 l 521 347 l 694 347 z "},"¨":{"ha":1389,"x_min":0,"x_max":1215,"o":"m 0 1042 l 0 1215 l 347 1215 l 347 1042 l 0 1042 m 868 1042 l 868 1215 l 1215 1215 l 1215 1042 l 868 1042 z "},"©":{"ha":1389,"x_min":0,"x_max":1215,"o":"m 0 0 l 0 1042 l 174 1042 l 174 0 l 0 0 m 174 0 l 1042 0 l 1042 -174 l 174 -174 l 174 0 m 174 1042 l 174 1215 l 1042 1215 l 1042 1042 l 174 1042 m 347 347 l 347 694 l 521 694 l 521 347 l 347 347 m 521 347 l 868 347 l 868 174 l 521 174 l 521 347 m 521 694 l 521 868 l 868 868 l 868 694 l 521 694 m 1042 0 l 1042 1042 l 1215 1042 l 1215 0 l 1042 0 z "},"ª":{"ha":1389,"x_min":174,"x_max":1215,"o":"m 174 174 l 174 347 l 1215 347 l 1215 174 l 174 174 m 174 694 l 174 1042 l 347 1042 l 347 1215 l 1042 1215 l 1042 694 l 1215 694 l 1215 521 l 347 521 l 347 694 l 174 694 m 521 694 l 694 694 l 694 1042 l 521 1042 l 521 694 z "},"«":{"ha":1389,"x_min":0,"x_max":1389,"o":"m 0 521 l 0 694 l 174 694 l 174 868 l 347 868 l 347 1042 l 694 1042 l 694 868 l 521 868 l 521 694 l 347 694 l 347 521 l 521 521 l 521 347 l 694 347 l 694 174 l 347 174 l 347 347 l 174 347 l 174 521 l 0 521 m 694 521 l 694 694 l 868 694 l 868 868 l 1042 868 l 1042 1042 l 1389 1042 l 1389 868 l 1215 868 l 1215 694 l 1042 694 l 1042 521 l 1215 521 l 1215 347 l 1389 347 l 1389 174 l 1042 174 l 1042 347 l 868 347 l 868 521 l 694 521 z "},"¬":{"ha":1389,"x_min":0,"x_max":1042,"o":"m 694 174 l 694 521 l 0 521 l 0 694 l 1042 694 l 1042 174 l 694 174 z "},"­":{"ha":1389,"x_min":174,"x_max":1215,"o":"m 174 521 l 174 694 l 1215 694 l 1215 521 l 174 521 z "},"®":{"ha":1389,"x_min":0,"x_max":1215,"o":"m 0 0 l 0 1042 l 174 1042 l 174 0 l 0 0 m 347 174 l 347 868 l 694 868 l 694 694 l 521 694 l 521 521 l 694 521 l 694 347 l 521 347 l 521 174 l 347 174 m 694 347 l 868 347 l 868 174 l 694 174 l 694 347 m 694 694 l 868 694 l 868 521 l 694 521 l 694 694 m 1042 0 l 1042 -174 l 174 -174 l 174 0 l 1042 0 m 1042 1215 l 1042 1042 l 174 1042 l 174 1215 l 1042 1215 m 1042 1042 l 1215 1042 l 1215 0 l 1042 0 l 1042 1042 z "},"¯":{"ha":1389,"x_min":0,"x_max":1389,"o":"m 0 1042 l 0 1215 l 1389 1215 l 1389 1042 l 0 1042 z "},"°":{"ha":1389,"x_min":174,"x_max":1042,"o":"m 174 694 l 174 1042 l 347 1042 l 347 1215 l 868 1215 l 868 1042 l 1042 1042 l 1042 694 l 868 694 l 868 521 l 347 521 l 347 694 l 174 694 m 521 694 l 694 694 l 694 1042 l 521 1042 l 521 694 z "},"±":{"ha":1389,"x_min":0,"x_max":1042,"o":"m 0 0 l 0 174 l 1042 174 l 1042 0 l 0 0 m 0 694 l 0 868 l 347 868 l 347 1215 l 694 1215 l 694 868 l 1042 868 l 1042 694 l 694 694 l 694 347 l 347 347 l 347 694 l 0 694 z "},"²":{"ha":1389,"x_min":174,"x_max":868,"o":"m 174 347 l 174 694 l 347 694 l 347 868 l 521 868 l 521 1042 l 174 1042 l 174 1215 l 694 1215 l 694 1042 l 868 1042 l 868 868 l 694 868 l 694 694 l 521 694 l 521 521 l 868 521 l 868 347 l 174 347 z "},"³":{"ha":1389,"x_min":174,"x_max":868,"o":"m 174 347 l 174 521 l 521 521 l 521 694 l 347 694 l 347 868 l 521 868 l 521 1042 l 174 1042 l 174 1215 l 694 1215 l 694 1042 l 868 1042 l 868 868 l 694 868 l 694 694 l 868 694 l 868 521 l 694 521 l 694 347 l 174 347 z "},"´":{"ha":1389,"x_min":347,"x_max":868,"o":"m 694 868 l 347 868 l 347 1042 l 521 1042 l 521 1215 l 868 1215 l 868 1042 l 694 1042 l 694 868 z "},"µ":{"ha":1389,"x_min":0,"x_max":1215,"o":"m 0 -174 l 0 0 l 174 0 l 174 1042 l 521 1042 l 521 347 l 868 347 l 868 1042 l 1215 1042 l 1215 347 l 1042 347 l 1042 174 l 521 174 l 521 0 l 347 0 l 347 -174 l 0 -174 z "},"¶":{"ha":1389,"x_min":0,"x_max":1389,"o":"m 1389 0 l 1042 0 l 1042 1042 l 868 1042 l 868 0 l 521 0 l 521 521 l 174 521 l 174 694 l 0 694 l 0 1042 l 174 1042 l 174 1215 l 1389 1215 l 1389 0 m 347 694 l 521 694 l 521 1042 l 347 1042 l 347 694 z "},"·":{"ha":1389,"x_min":521,"x_max":868,"o":"m 868 347 l 521 347 l 521 521 l 868 521 l 868 347 z "},"¸":{"ha":1389,"x_min":347,"x_max":1042,"o":"m 694 174 l 521 174 l 521 347 l 868 347 l 868 174 l 1042 174 l 1042 0 l 868 0 l 868 -174 l 347 -174 l 347 0 l 694 0 l 694 174 z "},"¹":{"ha":1389,"x_min":174,"x_max":868,"o":"m 694 521 l 868 521 l 868 347 l 174 347 l 174 521 l 347 521 l 347 868 l 174 868 l 174 1042 l 347 1042 l 347 1215 l 694 1215 l 694 521 z "},"º":{"ha":1389,"x_min":174,"x_max":1042,"o":"m 174 174 l 174 347 l 1042 347 l 1042 174 l 174 174 m 174 694 l 174 1042 l 347 1042 l 347 1215 l 868 1215 l 868 1042 l 1042 1042 l 1042 694 l 868 694 l 868 521 l 347 521 l 347 694 l 174 694 m 521 694 l 694 694 l 694 1042 l 521 1042 l 521 694 z "},"»":{"ha":1389,"x_min":0,"x_max":1389,"o":"m 0 174 l 0 347 l 174 347 l 174 521 l 347 521 l 347 694 l 174 694 l 174 868 l 0 868 l 0 1042 l 347 1042 l 347 868 l 521 868 l 521 694 l 694 694 l 694 521 l 521 521 l 521 347 l 347 347 l 347 174 l 0 174 m 694 174 l 694 347 l 868 347 l 868 521 l 1042 521 l 1042 694 l 868 694 l 868 868 l 694 868 l 694 1042 l 1042 1042 l 1042 868 l 1215 868 l 1215 694 l 1389 694 l 1389 521 l 1215 521 l 1215 347 l 1042 347 l 1042 174 l 694 174 z "},"¼":{"ha":1389,"x_min":0,"x_max":1389,"o":"m 0 0 l 0 174 l 174 174 l 174 347 l 347 347 l 347 521 l 521 521 l 521 694 l 694 694 l 694 868 l 868 868 l 868 1042 l 1042 1042 l 1042 1215 l 1389 1215 l 1389 1042 l 1215 1042 l 1215 868 l 1042 868 l 1042 694 l 868 694 l 868 521 l 694 521 l 694 347 l 521 347 l 521 174 l 347 174 l 347 0 l 0 0 m 0 521 l 0 1215 l 347 1215 l 347 521 l 0 521 m 694 347 l 868 347 l 868 521 l 1042 521 l 1042 694 l 1389 694 l 1389 -174 l 1042 -174 l 1042 0 l 694 0 l 694 347 z "},"½":{"ha":1389,"x_min":0,"x_max":1389,"o":"m 0 0 l 0 174 l 174 174 l 174 347 l 347 347 l 347 521 l 521 521 l 521 694 l 694 694 l 694 868 l 868 868 l 868 1042 l 1042 1042 l 1042 1215 l 1389 1215 l 1389 1042 l 1215 1042 l 1215 868 l 1042 868 l 1042 694 l 1215 694 l 1215 521 l 1389 521 l 1389 347 l 1215 347 l 1215 174 l 1042 174 l 1042 0 l 1389 0 l 1389 -174 l 694 -174 l 694 174 l 868 174 l 868 347 l 1042 347 l 1042 521 l 694 521 l 694 347 l 521 347 l 521 174 l 347 174 l 347 0 l 0 0 m 0 521 l 0 1215 l 347 1215 l 347 521 l 0 521 z "},"¾":{"ha":1389,"x_min":0,"x_max":1389,"o":"m 0 347 l 0 521 l 347 521 l 347 694 l 174 694 l 174 868 l 347 868 l 347 1042 l 0 1042 l 0 1215 l 521 1215 l 521 1042 l 694 1042 l 694 868 l 521 868 l 521 694 l 868 694 l 868 868 l 1042 868 l 1042 1042 l 1389 1042 l 1389 868 l 1215 868 l 1215 694 l 1042 694 l 1042 521 l 868 521 l 868 347 l 694 347 l 694 174 l 521 174 l 521 0 l 347 0 l 347 -174 l 0 -174 l 0 0 l 174 0 l 174 174 l 347 174 l 347 347 l 0 347 m 694 174 l 868 174 l 868 347 l 1042 347 l 1042 521 l 1389 521 l 1389 -174 l 1042 -174 l 1042 0 l 694 0 l 694 174 z "},"¿":{"ha":1389,"x_min":0,"x_max":1042,"o":"m 0 174 l 0 521 l 174 521 l 174 694 l 347 694 l 347 868 l 694 868 l 694 694 l 521 694 l 521 521 l 347 521 l 347 174 l 694 174 l 694 347 l 1042 347 l 1042 174 l 868 174 l 868 0 l 174 0 l 174 174 l 0 174 m 347 1042 l 347 1215 l 694 1215 l 694 1042 l 347 1042 z "},"À":{"ha":1389,"x_min":0,"x_max":1215,"o":"m 0 0 l 0 694 l 174 694 l 174 868 l 347 868 l 347 1042 l 868 1042 l 868 868 l 1042 868 l 1042 694 l 1215 694 l 1215 0 l 868 0 l 868 347 l 347 347 l 347 0 l 0 0 m 0 1042 l 0 1215 l 347 1215 l 347 1042 l 0 1042 m 347 694 l 347 521 l 868 521 l 868 694 l 694 694 l 694 868 l 521 868 l 521 694 l 347 694 z "},"Á":{"ha":1389,"x_min":0,"x_max":1215,"o":"m 0 0 l 0 694 l 174 694 l 174 868 l 347 868 l 347 1042 l 868 1042 l 868 868 l 1042 868 l 1042 694 l 1215 694 l 1215 0 l 868 0 l 868 347 l 347 347 l 347 0 l 0 0 m 347 694 l 347 521 l 868 521 l 868 694 l 694 694 l 694 868 l 521 868 l 521 694 l 347 694 m 868 1042 l 868 1215 l 1215 1215 l 1215 1042 l 868 1042 z "},"Â":{"ha":1389,"x_min":0,"x_max":1042,"o":"m 0 0 l 0 521 l 174 521 l 174 694 l 868 694 l 868 521 l 1042 521 l 1042 0 l 694 0 l 694 174 l 347 174 l 347 0 l 0 0 m 0 868 l 0 1042 l 174 1042 l 174 1215 l 868 1215 l 868 1042 l 1042 1042 l 1042 868 l 694 868 l 694 1042 l 347 1042 l 347 868 l 0 868 m 347 347 l 694 347 l 694 521 l 347 521 l 347 347 z "},"Ã":{"ha":1389,"x_min":0,"x_max":1042,"o":"m 0 0 l 0 694 l 174 694 l 174 868 l 868 868 l 868 694 l 1042 694 l 1042 0 l 694 0 l 694 347 l 347 347 l 347 0 l 0 0 m 0 1042 l 0 1215 l 1042 1215 l 1042 1042 l 0 1042 m 347 694 l 347 521 l 694 521 l 694 694 l 347 694 z "},"Ä":{"ha":1389,"x_min":0,"x_max":1215,"o":"m 0 0 l 0 694 l 174 694 l 174 868 l 347 868 l 347 1042 l 868 1042 l 868 868 l 1042 868 l 1042 694 l 1215 694 l 1215 0 l 868 0 l 868 347 l 347 347 l 347 0 l 0 0 m 0 1042 l 0 1215 l 347 1215 l 347 1042 l 0 1042 m 347 694 l 347 521 l 868 521 l 868 694 l 694 694 l 694 868 l 521 868 l 521 694 l 347 694 m 868 1042 l 868 1215 l 1215 1215 l 1215 1042 l 868 1042 z "},"Å":{"ha":1389,"x_min":0,"x_max":1042,"o":"m 0 0 l 0 521 l 174 521 l 174 694 l 868 694 l 868 521 l 1042 521 l 1042 0 l 694 0 l 694 174 l 347 174 l 347 0 l 0 0 m 347 347 l 694 347 l 694 521 l 347 521 l 347 347 m 347 868 l 347 1215 l 694 1215 l 694 868 l 347 868 z "},"Æ":{"ha":1389,"x_min":0,"x_max":1215,"o":"m 0 0 l 0 868 l 174 868 l 174 1042 l 347 1042 l 347 1215 l 1215 1215 l 1215 1042 l 1042 1042 l 1042 694 l 1215 694 l 1215 521 l 1042 521 l 1042 174 l 1215 174 l 1215 0 l 694 0 l 694 521 l 347 521 l 347 0 l 0 0 m 347 868 l 347 694 l 694 694 l 694 1042 l 521 1042 l 521 868 l 347 868 z "},"Ç":{"ha":1389,"x_min":0,"x_max":1042,"o":"m 0 521 l 0 1042 l 174 1042 l 174 1215 l 868 1215 l 868 1042 l 1042 1042 l 1042 868 l 694 868 l 694 1042 l 347 1042 l 347 521 l 694 521 l 694 694 l 1042 694 l 1042 521 l 868 521 l 868 174 l 1042 174 l 1042 0 l 868 0 l 868 -174 l 174 -174 l 174 0 l 694 0 l 694 174 l 521 174 l 521 347 l 174 347 l 174 521 l 0 521 z "},"È":{"ha":1389,"x_min":0,"x_max":1042,"o":"m 0 0 l 0 174 l 174 174 l 174 694 l 0 694 l 0 868 l 1042 868 l 1042 694 l 521 694 l 521 521 l 868 521 l 868 347 l 521 347 l 521 174 l 1042 174 l 1042 0 l 0 0 m 0 1042 l 0 1215 l 521 1215 l 521 1042 l 0 1042 z "},"É":{"ha":1389,"x_min":0,"x_max":1042,"o":"m 0 0 l 0 174 l 174 174 l 174 694 l 0 694 l 0 868 l 1042 868 l 1042 694 l 521 694 l 521 521 l 868 521 l 868 347 l 521 347 l 521 174 l 1042 174 l 1042 0 l 0 0 m 521 1042 l 521 1215 l 1042 1215 l 1042 1042 l 521 1042 z "},"Ê":{"ha":1389,"x_min":0,"x_max":1042,"o":"m 0 0 l 0 174 l 174 174 l 174 694 l 0 694 l 0 1042 l 174 1042 l 174 1215 l 868 1215 l 868 1042 l 1042 1042 l 1042 694 l 521 694 l 521 521 l 868 521 l 868 347 l 521 347 l 521 174 l 1042 174 l 1042 0 l 0 0 m 347 868 l 694 868 l 694 1042 l 347 1042 l 347 868 z "},"Ë":{"ha":1389,"x_min":0,"x_max":1042,"o":"m 0 0 l 0 174 l 174 174 l 174 694 l 0 694 l 0 868 l 1042 868 l 1042 694 l 521 694 l 521 521 l 868 521 l 868 347 l 521 347 l 521 174 l 1042 174 l 1042 0 l 0 0 m 0 1042 l 0 1215 l 347 1215 l 347 1042 l 0 1042 m 694 1042 l 694 1215 l 1042 1215 l 1042 1042 l 694 1042 z "},"Ì":{"ha":1389,"x_min":0,"x_max":868,"o":"m 0 1042 l 0 1215 l 521 1215 l 521 1042 l 0 1042 m 174 0 l 174 174 l 347 174 l 347 694 l 174 694 l 174 868 l 868 868 l 868 694 l 694 694 l 694 174 l 868 174 l 868 0 l 174 0 z "},"Í":{"ha":1389,"x_min":174,"x_max":1042,"o":"m 174 0 l 174 174 l 347 174 l 347 694 l 174 694 l 174 868 l 868 868 l 868 694 l 694 694 l 694 174 l 868 174 l 868 0 l 174 0 m 521 1042 l 521 1215 l 1042 1215 l 1042 1042 l 521 1042 z "},"Î":{"ha":1389,"x_min":0,"x_max":1042,"o":"m 0 868 l 0 1042 l 174 1042 l 174 1215 l 868 1215 l 868 1042 l 1042 1042 l 1042 868 l 694 868 l 694 1042 l 347 1042 l 347 868 l 0 868 m 174 0 l 174 174 l 347 174 l 347 521 l 174 521 l 174 694 l 868 694 l 868 521 l 694 521 l 694 174 l 868 174 l 868 0 l 174 0 z "},"Ï":{"ha":1389,"x_min":0,"x_max":1042,"o":"m 0 1042 l 0 1215 l 347 1215 l 347 1042 l 0 1042 m 174 0 l 174 174 l 347 174 l 347 694 l 174 694 l 174 868 l 868 868 l 868 694 l 694 694 l 694 174 l 868 174 l 868 0 l 174 0 m 694 1042 l 694 1215 l 1042 1215 l 1042 1042 l 694 1042 z "},"Ð":{"ha":1389,"x_min":0,"x_max":1215,"o":"m 0 0 l 0 174 l 174 174 l 174 521 l 0 521 l 0 694 l 174 694 l 174 1042 l 0 1042 l 0 1215 l 868 1215 l 868 1042 l 1042 1042 l 1042 868 l 1215 868 l 1215 347 l 1042 347 l 1042 174 l 868 174 l 868 0 l 0 0 m 694 174 l 694 347 l 868 347 l 868 868 l 694 868 l 694 1042 l 521 1042 l 521 694 l 694 694 l 694 521 l 521 521 l 521 174 l 694 174 z "},"Ñ":{"ha":1389,"x_min":0,"x_max":1042,"o":"m 0 0 l 0 868 l 347 868 l 347 694 l 521 694 l 521 521 l 694 521 l 694 868 l 1042 868 l 1042 0 l 694 0 l 694 174 l 521 174 l 521 347 l 347 347 l 347 0 l 0 0 m 0 1042 l 0 1215 l 1042 1215 l 1042 1042 l 0 1042 z "},"Ò":{"ha":1389,"x_min":0,"x_max":1215,"o":"m 0 1042 l 0 1215 l 347 1215 l 347 1042 l 0 1042 m 347 347 l 174 347 l 174 694 l 347 694 l 347 868 l 521 868 l 521 1042 l 868 1042 l 868 868 l 1042 868 l 1042 694 l 1215 694 l 1215 347 l 1042 347 l 1042 174 l 868 174 l 868 0 l 521 0 l 521 174 l 347 174 l 347 347 m 521 347 l 868 347 l 868 694 l 521 694 l 521 347 z "},"Ó":{"ha":1389,"x_min":0,"x_max":1215,"o":"m 0 347 l 0 694 l 174 694 l 174 868 l 347 868 l 347 1042 l 694 1042 l 694 868 l 868 868 l 868 694 l 1042 694 l 1042 347 l 868 347 l 868 174 l 694 174 l 694 0 l 347 0 l 347 174 l 174 174 l 174 347 l 0 347 m 347 347 l 694 347 l 694 694 l 347 694 l 347 347 m 868 1042 l 868 1215 l 1215 1215 l 1215 1042 l 868 1042 z "},"Ô":{"ha":1389,"x_min":0,"x_max":1215,"o":"m 0 347 l 0 521 l 174 521 l 174 694 l 347 694 l 347 868 l 868 868 l 868 694 l 1042 694 l 1042 521 l 1215 521 l 1215 347 l 1042 347 l 1042 174 l 868 174 l 868 0 l 347 0 l 347 174 l 174 174 l 174 347 l 0 347 m 0 868 l 0 1042 l 174 1042 l 174 1215 l 1042 1215 l 1042 1042 l 1215 1042 l 1215 868 l 868 868 l 868 1042 l 347 1042 l 347 868 l 0 868 m 347 347 l 521 347 l 521 174 l 694 174 l 694 347 l 868 347 l 868 521 l 694 521 l 694 694 l 521 694 l 521 521 l 347 521 l 347 347 z "},"Õ":{"ha":1389,"x_min":0,"x_max":1215,"o":"m 0 347 l 0 521 l 174 521 l 174 694 l 347 694 l 347 868 l 868 868 l 868 694 l 1042 694 l 1042 521 l 1215 521 l 1215 347 l 1042 347 l 1042 174 l 868 174 l 868 0 l 347 0 l 347 174 l 174 174 l 174 347 l 0 347 m 0 1042 l 0 1215 l 1215 1215 l 1215 1042 l 0 1042 m 347 347 l 521 347 l 521 174 l 694 174 l 694 347 l 868 347 l 868 521 l 694 521 l 694 694 l 521 694 l 521 521 l 347 521 l 347 347 z "},"Ö":{"ha":1389,"x_min":0,"x_max":1389,"o":"m 0 1042 l 0 1215 l 347 1215 l 347 1042 l 0 1042 m 347 347 l 174 347 l 174 694 l 347 694 l 347 868 l 521 868 l 521 1042 l 868 1042 l 868 868 l 1042 868 l 1042 694 l 1215 694 l 1215 347 l 1042 347 l 1042 174 l 868 174 l 868 0 l 521 0 l 521 174 l 347 174 l 347 347 m 1042 1042 l 1042 1215 l 1389 1215 l 1389 1042 l 1042 1042 m 521 347 l 868 347 l 868 694 l 521 694 l 521 347 z "},"×":{"ha":1389,"x_min":0,"x_max":1215,"o":"m 0 174 l 0 347 l 174 347 l 174 521 l 347 521 l 347 694 l 174 694 l 174 868 l 0 868 l 0 1042 l 347 1042 l 347 868 l 521 868 l 521 694 l 694 694 l 694 868 l 868 868 l 868 1042 l 1215 1042 l 1215 868 l 1042 868 l 1042 694 l 868 694 l 868 521 l 1042 521 l 1042 347 l 1215 347 l 1215 174 l 868 174 l 868 347 l 694 347 l 694 521 l 521 521 l 521 347 l 347 347 l 347 174 l 0 174 z "},"Ø":{"ha":1389,"x_min":0,"x_max":1215,"o":"m 0 174 l 0 1042 l 174 1042 l 174 1215 l 1042 1215 l 1042 1042 l 1215 1042 l 1215 174 l 1042 174 l 1042 0 l 174 0 l 174 174 l 0 174 m 347 521 l 521 521 l 521 694 l 694 694 l 694 868 l 868 868 l 868 1042 l 347 1042 l 347 521 m 694 347 l 521 347 l 521 174 l 868 174 l 868 521 l 694 521 l 694 347 z "},"Ù":{"ha":1389,"x_min":0,"x_max":1042,"o":"m 0 174 l 0 868 l 347 868 l 347 174 l 694 174 l 694 868 l 1042 868 l 1042 174 l 868 174 l 868 0 l 174 0 l 174 174 l 0 174 m 0 1042 l 0 1215 l 521 1215 l 521 1042 l 0 1042 z "},"Ú":{"ha":1389,"x_min":0,"x_max":1042,"o":"m 0 174 l 0 868 l 347 868 l 347 174 l 694 174 l 694 868 l 1042 868 l 1042 174 l 868 174 l 868 0 l 174 0 l 174 174 l 0 174 m 521 1042 l 521 1215 l 1042 1215 l 1042 1042 l 521 1042 z "},"Û":{"ha":1389,"x_min":0,"x_max":1042,"o":"m 0 174 l 0 694 l 347 694 l 347 174 l 694 174 l 694 694 l 1042 694 l 1042 174 l 868 174 l 868 0 l 174 0 l 174 174 l 0 174 m 0 868 l 0 1042 l 174 1042 l 174 1215 l 868 1215 l 868 1042 l 1042 1042 l 1042 868 l 694 868 l 694 1042 l 347 1042 l 347 868 l 0 868 z "},"Ü":{"ha":1389,"x_min":0,"x_max":1042,"o":"m 0 174 l 0 868 l 347 868 l 347 174 l 694 174 l 694 868 l 1042 868 l 1042 174 l 868 174 l 868 0 l 174 0 l 174 174 l 0 174 m 0 1042 l 0 1215 l 347 1215 l 347 1042 l 0 1042 m 694 1042 l 694 1215 l 1042 1215 l 1042 1042 l 694 1042 z "},"Ý":{"ha":1389,"x_min":0,"x_max":1042,"o":"m 0 868 l 347 868 l 347 521 l 694 521 l 694 868 l 1042 868 l 1042 521 l 868 521 l 868 347 l 694 347 l 694 174 l 868 174 l 868 0 l 174 0 l 174 174 l 347 174 l 347 347 l 174 347 l 174 521 l 0 521 l 0 868 m 521 1042 l 521 1215 l 1042 1215 l 1042 1042 l 521 1042 z "},"Þ":{"ha":1389,"x_min":0,"x_max":1215,"o":"m 0 0 l 0 174 l 174 174 l 174 1042 l 0 1042 l 0 1215 l 694 1215 l 694 1042 l 521 1042 l 521 868 l 1042 868 l 1042 694 l 1215 694 l 1215 521 l 1042 521 l 1042 347 l 521 347 l 521 174 l 694 174 l 694 0 l 0 0 m 521 694 l 521 521 l 868 521 l 868 694 l 521 694 z "},"ß":{"ha":1389,"x_min":0,"x_max":1215,"o":"m 0 0 l 0 1042 l 174 1042 l 174 1215 l 868 1215 l 868 1042 l 1042 1042 l 1042 694 l 868 694 l 868 521 l 1042 521 l 1042 347 l 1215 347 l 1215 174 l 1042 174 l 1042 0 l 694 0 l 694 174 l 868 174 l 868 347 l 694 347 l 694 521 l 521 521 l 521 694 l 694 694 l 694 1042 l 347 1042 l 347 0 l 0 0 z "},"à":{"ha":1389,"x_min":0,"x_max":1215,"o":"m 0 174 l 0 347 l 174 347 l 174 521 l 694 521 l 694 694 l 174 694 l 174 868 l 868 868 l 868 694 l 1042 694 l 1042 174 l 1215 174 l 1215 0 l 174 0 l 174 174 l 0 174 m 0 1042 l 0 1215 l 521 1215 l 521 1042 l 0 1042 m 347 347 l 347 174 l 694 174 l 694 347 l 347 347 z "},"á":{"ha":1389,"x_min":0,"x_max":1215,"o":"m 0 174 l 0 347 l 174 347 l 174 521 l 694 521 l 694 694 l 174 694 l 174 868 l 868 868 l 868 694 l 1042 694 l 1042 174 l 1215 174 l 1215 0 l 174 0 l 174 174 l 0 174 m 347 347 l 347 174 l 694 174 l 694 347 l 347 347 m 521 1042 l 521 1215 l 1042 1215 l 1042 1042 l 521 1042 z "},"â":{"ha":1389,"x_min":0,"x_max":1389,"o":"m 0 868 l 0 1042 l 174 1042 l 174 1215 l 1215 1215 l 1215 1042 l 1389 1042 l 1389 868 l 1042 868 l 1042 1042 l 347 1042 l 347 868 l 0 868 m 347 347 l 347 521 l 868 521 l 868 694 l 347 694 l 347 868 l 1042 868 l 1042 694 l 1215 694 l 1215 174 l 1389 174 l 1389 0 l 347 0 l 347 174 l 174 174 l 174 347 l 347 347 m 521 347 l 521 174 l 868 174 l 868 347 l 521 347 z "},"ã":{"ha":1389,"x_min":0,"x_max":1215,"o":"m 0 174 l 0 347 l 174 347 l 174 521 l 694 521 l 694 694 l 174 694 l 174 868 l 868 868 l 868 694 l 1042 694 l 1042 174 l 1215 174 l 1215 0 l 174 0 l 174 174 l 0 174 m 0 1042 l 0 1215 l 1042 1215 l 1042 1042 l 0 1042 m 347 347 l 347 174 l 694 174 l 694 347 l 347 347 z "},"ä":{"ha":1389,"x_min":0,"x_max":1215,"o":"m 0 174 l 0 347 l 174 347 l 174 521 l 694 521 l 694 694 l 174 694 l 174 868 l 868 868 l 868 694 l 1042 694 l 1042 174 l 1215 174 l 1215 0 l 174 0 l 174 174 l 0 174 m 0 1042 l 0 1215 l 347 1215 l 347 1042 l 0 1042 m 347 347 l 347 174 l 694 174 l 694 347 l 347 347 m 694 1042 l 694 1215 l 1042 1215 l 1042 1042 l 694 1042 z "},"å":{"ha":1389,"x_min":0,"x_max":1215,"o":"m 0 174 l 0 347 l 174 347 l 174 521 l 694 521 l 694 694 l 174 694 l 174 868 l 347 868 l 347 1215 l 694 1215 l 694 868 l 868 868 l 868 694 l 1042 694 l 1042 174 l 1215 174 l 1215 0 l 174 0 l 174 174 l 0 174 m 347 347 l 347 174 l 694 174 l 694 347 l 347 347 z "},"æ":{"ha":1389,"x_min":0,"x_max":1389,"o":"m 0 174 l 0 347 l 174 347 l 174 521 l 694 521 l 694 694 l 174 694 l 174 868 l 1389 868 l 1389 694 l 1042 694 l 1042 521 l 1389 521 l 1389 347 l 1042 347 l 1042 174 l 1389 174 l 1389 0 l 174 0 l 174 174 l 0 174 m 347 347 l 347 174 l 694 174 l 694 347 l 347 347 z "},"ç":{"ha":1389,"x_min":0,"x_max":1042,"o":"m 0 347 l 0 694 l 174 694 l 174 868 l 868 868 l 868 694 l 347 694 l 347 347 l 868 347 l 868 174 l 1042 174 l 1042 0 l 868 0 l 868 -174 l 347 -174 l 347 0 l 694 0 l 694 174 l 174 174 l 174 347 l 0 347 z "},"è":{"ha":1389,"x_min":0,"x_max":1042,"o":"m 0 174 l 0 694 l 174 694 l 174 868 l 868 868 l 868 694 l 1042 694 l 1042 347 l 347 347 l 347 174 l 868 174 l 868 0 l 174 0 l 174 174 l 0 174 m 0 1042 l 0 1215 l 521 1215 l 521 1042 l 0 1042 m 347 694 l 347 521 l 694 521 l 694 694 l 347 694 z "},"é":{"ha":1389,"x_min":0,"x_max":1042,"o":"m 0 174 l 0 694 l 174 694 l 174 868 l 868 868 l 868 694 l 1042 694 l 1042 347 l 347 347 l 347 174 l 868 174 l 868 0 l 174 0 l 174 174 l 0 174 m 347 694 l 347 521 l 694 521 l 694 694 l 347 694 m 521 1042 l 521 1215 l 1042 1215 l 1042 1042 l 521 1042 z "},"ê":{"ha":1389,"x_min":0,"x_max":1389,"o":"m 0 868 l 0 1042 l 174 1042 l 174 1215 l 1215 1215 l 1215 1042 l 1389 1042 l 1389 868 l 1042 868 l 1042 1042 l 347 1042 l 347 868 l 0 868 m 347 174 l 174 174 l 174 694 l 347 694 l 347 868 l 1042 868 l 1042 694 l 1215 694 l 1215 347 l 521 347 l 521 174 l 1042 174 l 1042 0 l 347 0 l 347 174 m 521 694 l 521 521 l 868 521 l 868 694 l 521 694 z "},"ë":{"ha":1389,"x_min":0,"x_max":1042,"o":"m 0 174 l 0 694 l 174 694 l 174 868 l 868 868 l 868 694 l 1042 694 l 1042 347 l 347 347 l 347 174 l 868 174 l 868 0 l 174 0 l 174 174 l 0 174 m 0 1042 l 0 1215 l 347 1215 l 347 1042 l 0 1042 m 347 694 l 347 521 l 694 521 l 694 694 l 347 694 m 694 1042 l 694 1215 l 1042 1215 l 1042 1042 l 694 1042 z "},"ì":{"ha":1389,"x_min":0,"x_max":868,"o":"m 0 1042 l 0 1215 l 521 1215 l 521 1042 l 0 1042 m 174 0 l 174 174 l 347 174 l 347 694 l 174 694 l 174 868 l 694 868 l 694 174 l 868 174 l 868 0 l 174 0 z "},"í":{"ha":1389,"x_min":174,"x_max":868,"o":"m 174 0 l 174 174 l 347 174 l 347 694 l 174 694 l 174 868 l 694 868 l 694 174 l 868 174 l 868 0 l 174 0 m 347 1042 l 347 1215 l 868 1215 l 868 1042 l 347 1042 z "},"î":{"ha":1389,"x_min":0,"x_max":1215,"o":"m 0 868 l 0 1042 l 174 1042 l 174 1215 l 1042 1215 l 1042 1042 l 1215 1042 l 1215 868 l 868 868 l 868 1042 l 347 1042 l 347 868 l 0 868 m 347 0 l 347 174 l 521 174 l 521 694 l 347 694 l 347 868 l 868 868 l 868 174 l 1042 174 l 1042 0 l 347 0 z "},"ï":{"ha":1389,"x_min":0,"x_max":1042,"o":"m 0 1042 l 0 1215 l 347 1215 l 347 1042 l 0 1042 m 174 0 l 174 174 l 347 174 l 347 694 l 174 694 l 174 868 l 694 868 l 694 174 l 868 174 l 868 0 l 174 0 m 694 1042 l 694 1215 l 1042 1215 l 1042 1042 l 694 1042 z "},"ð":{"ha":1389,"x_min":0,"x_max":1215,"o":"m 0 174 l 0 521 l 174 521 l 174 694 l 694 694 l 694 868 l 347 868 l 347 1042 l 521 1042 l 521 1215 l 868 1215 l 868 1042 l 1215 1042 l 1215 868 l 1042 868 l 1042 174 l 868 174 l 868 0 l 174 0 l 174 174 l 0 174 m 347 174 l 694 174 l 694 521 l 347 521 l 347 174 z "},"ñ":{"ha":1389,"x_min":0,"x_max":1042,"o":"m 0 0 l 0 694 l 868 694 l 868 521 l 1042 521 l 1042 0 l 694 0 l 694 521 l 347 521 l 347 0 l 0 0 m 0 868 l 0 1042 l 868 1042 l 868 868 l 0 868 z "},"ò":{"ha":1389,"x_min":0,"x_max":1042,"o":"m 0 174 l 0 521 l 174 521 l 174 694 l 868 694 l 868 521 l 1042 521 l 1042 174 l 868 174 l 868 0 l 174 0 l 174 174 l 0 174 m 0 868 l 0 1042 l 521 1042 l 521 868 l 0 868 m 347 174 l 694 174 l 694 521 l 347 521 l 347 174 z "},"ó":{"ha":1389,"x_min":0,"x_max":1042,"o":"m 0 174 l 0 521 l 174 521 l 174 694 l 868 694 l 868 521 l 1042 521 l 1042 174 l 868 174 l 868 0 l 174 0 l 174 174 l 0 174 m 347 174 l 694 174 l 694 521 l 347 521 l 347 174 m 521 868 l 521 1042 l 1042 1042 l 1042 868 l 521 868 z "},"ô":{"ha":1389,"x_min":0,"x_max":1042,"o":"m 0 174 l 0 521 l 174 521 l 174 694 l 868 694 l 868 521 l 1042 521 l 1042 174 l 868 174 l 868 0 l 174 0 l 174 174 l 0 174 m 0 868 l 0 1042 l 174 1042 l 174 1215 l 868 1215 l 868 1042 l 1042 1042 l 1042 868 l 694 868 l 694 1042 l 347 1042 l 347 868 l 0 868 m 347 174 l 694 174 l 694 521 l 347 521 l 347 174 z "},"õ":{"ha":1389,"x_min":0,"x_max":1042,"o":"m 0 174 l 0 521 l 174 521 l 174 694 l 868 694 l 868 521 l 1042 521 l 1042 174 l 868 174 l 868 0 l 174 0 l 174 174 l 0 174 m 0 868 l 0 1042 l 1042 1042 l 1042 868 l 0 868 m 347 174 l 694 174 l 694 521 l 347 521 l 347 174 z "},"ö":{"ha":1389,"x_min":0,"x_max":1042,"o":"m 0 174 l 0 521 l 174 521 l 174 694 l 868 694 l 868 521 l 1042 521 l 1042 174 l 868 174 l 868 0 l 174 0 l 174 174 l 0 174 m 0 868 l 0 1042 l 347 1042 l 347 868 l 0 868 m 347 174 l 694 174 l 694 521 l 347 521 l 347 174 m 694 868 l 694 1042 l 1042 1042 l 1042 868 l 694 868 z "},"÷":{"ha":1389,"x_min":0,"x_max":1042,"o":"m 694 347 l 694 0 l 347 0 l 347 347 l 694 347 m 0 521 l 0 694 l 1042 694 l 1042 521 l 0 521 m 694 868 l 347 868 l 347 1215 l 694 1215 l 694 868 z "},"ø":{"ha":1389,"x_min":0,"x_max":1215,"o":"m 0 -174 l 0 0 l 174 0 l 174 -174 l 0 -174 m 0 174 l 0 694 l 174 694 l 174 868 l 1042 868 l 1042 694 l 1215 694 l 1215 174 l 1042 174 l 1042 0 l 174 0 l 174 174 l 0 174 m 347 347 l 521 347 l 521 174 l 868 174 l 868 521 l 694 521 l 694 694 l 347 694 l 347 347 m 694 347 l 521 347 l 521 521 l 694 521 l 694 347 m 1042 868 l 1042 1042 l 1215 1042 l 1215 868 l 1042 868 z "},"ù":{"ha":1389,"x_min":0,"x_max":1215,"o":"m 0 174 l 0 694 l 347 694 l 347 174 l 694 174 l 694 694 l 1042 694 l 1042 174 l 1215 174 l 1215 0 l 174 0 l 174 174 l 0 174 m 0 868 l 0 1042 l 521 1042 l 521 868 l 0 868 z "},"ú":{"ha":1389,"x_min":0,"x_max":1215,"o":"m 0 174 l 0 694 l 347 694 l 347 174 l 694 174 l 694 694 l 1042 694 l 1042 174 l 1215 174 l 1215 0 l 174 0 l 174 174 l 0 174 m 521 868 l 521 1042 l 1042 1042 l 1042 868 l 521 868 z "},"û":{"ha":1389,"x_min":0,"x_max":1215,"o":"m 0 174 l 0 694 l 347 694 l 347 174 l 694 174 l 694 694 l 1042 694 l 1042 174 l 1215 174 l 1215 0 l 174 0 l 174 174 l 0 174 m 0 868 l 0 1042 l 174 1042 l 174 1215 l 868 1215 l 868 1042 l 1042 1042 l 1042 868 l 694 868 l 694 1042 l 347 1042 l 347 868 l 0 868 z "},"ü":{"ha":1389,"x_min":0,"x_max":1215,"o":"m 0 174 l 0 694 l 347 694 l 347 174 l 694 174 l 694 694 l 1042 694 l 1042 174 l 1215 174 l 1215 0 l 174 0 l 174 174 l 0 174 m 0 868 l 0 1042 l 347 1042 l 347 868 l 0 868 m 694 868 l 694 1042 l 1042 1042 l 1042 868 l 694 868 z "},"ý":{"ha":1389,"x_min":0,"x_max":1042,"o":"m 0 347 l 0 694 l 347 694 l 347 347 l 694 347 l 694 694 l 1042 694 l 1042 0 l 868 0 l 868 -174 l 174 -174 l 174 0 l 694 0 l 694 174 l 174 174 l 174 347 l 0 347 m 521 868 l 521 1042 l 1042 1042 l 1042 868 l 521 868 z "},"þ":{"ha":1389,"x_min":0,"x_max":1215,"o":"m 0 -174 l 0 0 l 174 0 l 174 1042 l 0 1042 l 0 1215 l 521 1215 l 521 868 l 1042 868 l 1042 694 l 1215 694 l 1215 347 l 1042 347 l 1042 174 l 521 174 l 521 0 l 694 0 l 694 -174 l 0 -174 m 521 347 l 868 347 l 868 694 l 521 694 l 521 347 z "},"ÿ":{"ha":1389,"x_min":0,"x_max":1042,"o":"m 0 -174 l 0 0 l 694 0 l 694 174 l 174 174 l 174 347 l 0 347 l 0 694 l 347 694 l 347 347 l 694 347 l 694 694 l 1042 694 l 1042 0 l 868 0 l 868 -174 l 0 -174 m 0 868 l 0 1042 l 347 1042 l 347 868 l 0 868 m 694 868 l 694 1042 l 1042 1042 l 1042 868 l 694 868 z "},"Ā":{"ha":1389,"x_min":0,"x_max":1042,"o":"m 0 0 l 0 694 l 174 694 l 174 868 l 868 868 l 868 694 l 1042 694 l 1042 0 l 694 0 l 694 347 l 347 347 l 347 0 l 0 0 m 0 1042 l 0 1215 l 1042 1215 l 1042 1042 l 0 1042 m 347 694 l 347 521 l 694 521 l 694 694 l 347 694 z "},"ā":{"ha":1389,"x_min":0,"x_max":1215,"o":"m 0 174 l 0 347 l 174 347 l 174 521 l 694 521 l 694 694 l 174 694 l 174 868 l 868 868 l 868 694 l 1042 694 l 1042 174 l 1215 174 l 1215 0 l 174 0 l 174 174 l 0 174 m 174 1042 l 174 1215 l 1042 1215 l 1042 1042 l 174 1042 m 347 347 l 347 174 l 694 174 l 694 347 l 347 347 z "},"Ă":{"ha":1389,"x_min":0,"x_max":1042,"o":"m 0 0 l 0 521 l 174 521 l 174 694 l 868 694 l 868 521 l 1042 521 l 1042 0 l 694 0 l 694 174 l 347 174 l 347 0 l 0 0 m 0 1042 l 0 1215 l 347 1215 l 347 1042 l 694 1042 l 694 1215 l 1042 1215 l 1042 1042 l 868 1042 l 868 868 l 174 868 l 174 1042 l 0 1042 m 347 347 l 694 347 l 694 521 l 347 521 l 347 347 z "},"ă":{"ha":1389,"x_min":0,"x_max":1215,"o":"m 0 174 l 0 347 l 174 347 l 174 521 l 694 521 l 694 694 l 174 694 l 174 1042 l 0 1042 l 0 1215 l 347 1215 l 347 1042 l 694 1042 l 694 1215 l 1042 1215 l 1042 1042 l 868 1042 l 868 694 l 1042 694 l 1042 174 l 1215 174 l 1215 0 l 174 0 l 174 174 l 0 174 m 347 347 l 347 174 l 694 174 l 694 347 l 347 347 z "},"Ą":{"ha":1389,"x_min":0,"x_max":1042,"o":"m 0 174 l 0 868 l 174 868 l 174 1042 l 868 1042 l 868 868 l 1042 868 l 1042 174 l 694 174 l 694 521 l 347 521 l 347 174 l 0 174 m 347 174 l 694 174 l 694 0 l 868 0 l 868 -174 l 521 -174 l 521 0 l 347 0 l 347 174 m 347 868 l 347 694 l 694 694 l 694 868 l 347 868 z "},"ą":{"ha":1389,"x_min":0,"x_max":1389,"o":"m 0 174 l 0 347 l 174 347 l 174 521 l 694 521 l 694 694 l 174 694 l 174 868 l 868 868 l 868 694 l 1042 694 l 1042 174 l 1215 174 l 1215 0 l 1389 0 l 1389 -174 l 868 -174 l 868 0 l 174 0 l 174 174 l 0 174 m 347 347 l 347 174 l 694 174 l 694 347 l 347 347 z "},"Ć":{"ha":1389,"x_min":0,"x_max":1215,"o":"m 0 347 l 0 694 l 174 694 l 174 868 l 347 868 l 347 1042 l 694 1042 l 694 1215 l 1215 1215 l 1215 1042 l 1042 1042 l 1042 868 l 1215 868 l 1215 694 l 868 694 l 868 868 l 521 868 l 521 694 l 347 694 l 347 347 l 521 347 l 521 174 l 868 174 l 868 347 l 1215 347 l 1215 174 l 1042 174 l 1042 0 l 347 0 l 347 174 l 174 174 l 174 347 l 0 347 z "},"ć":{"ha":1389,"x_min":0,"x_max":1042,"o":"m 0 174 l 0 694 l 174 694 l 174 868 l 868 868 l 868 694 l 1042 694 l 1042 521 l 694 521 l 694 694 l 347 694 l 347 174 l 694 174 l 694 347 l 1042 347 l 1042 174 l 868 174 l 868 0 l 174 0 l 174 174 l 0 174 m 521 1042 l 521 1215 l 1042 1215 l 1042 1042 l 521 1042 z "},"Ĉ":{"ha":1389,"x_min":0,"x_max":1389,"o":"m 0 347 l 0 521 l 174 521 l 174 694 l 347 694 l 347 868 l 1042 868 l 1042 694 l 1215 694 l 1215 521 l 868 521 l 868 694 l 521 694 l 521 521 l 347 521 l 347 347 l 521 347 l 521 174 l 868 174 l 868 347 l 1215 347 l 1215 174 l 1042 174 l 1042 0 l 347 0 l 347 174 l 174 174 l 174 347 l 0 347 m 0 868 l 0 1042 l 174 1042 l 174 1215 l 1215 1215 l 1215 1042 l 1389 1042 l 1389 868 l 1042 868 l 1042 1042 l 347 1042 l 347 868 l 0 868 z "},"ĉ":{"ha":1389,"x_min":174,"x_max":1042,"o":"m 174 174 l 174 521 l 347 521 l 347 694 l 1042 694 l 1042 521 l 521 521 l 521 174 l 1042 174 l 1042 0 l 347 0 l 347 174 l 174 174 m 174 868 l 174 1042 l 347 1042 l 347 1215 l 868 1215 l 868 1042 l 1042 1042 l 1042 868 l 694 868 l 694 1042 l 521 1042 l 521 868 l 174 868 z "},"Ċ":{"ha":1389,"x_min":0,"x_max":1215,"o":"m 0 347 l 0 694 l 174 694 l 174 868 l 347 868 l 347 1042 l 521 1042 l 521 1215 l 868 1215 l 868 1042 l 1042 1042 l 1042 868 l 1215 868 l 1215 694 l 868 694 l 868 868 l 521 868 l 521 694 l 347 694 l 347 347 l 521 347 l 521 174 l 868 174 l 868 347 l 1215 347 l 1215 174 l 1042 174 l 1042 0 l 347 0 l 347 174 l 174 174 l 174 347 l 0 347 z "},"ċ":{"ha":1389,"x_min":0,"x_max":1042,"o":"m 0 174 l 0 694 l 174 694 l 174 868 l 868 868 l 868 694 l 1042 694 l 1042 521 l 694 521 l 694 694 l 347 694 l 347 174 l 694 174 l 694 347 l 1042 347 l 1042 174 l 868 174 l 868 0 l 174 0 l 174 174 l 0 174 m 347 1042 l 347 1215 l 694 1215 l 694 1042 l 347 1042 z "},"Č":{"ha":1389,"x_min":0,"x_max":1215,"o":"m 0 347 l 0 521 l 174 521 l 174 694 l 347 694 l 347 1042 l 174 1042 l 174 1215 l 521 1215 l 521 1042 l 868 1042 l 868 1215 l 1215 1215 l 1215 1042 l 1042 1042 l 1042 694 l 1215 694 l 1215 521 l 868 521 l 868 694 l 521 694 l 521 521 l 347 521 l 347 347 l 521 347 l 521 174 l 868 174 l 868 347 l 1215 347 l 1215 174 l 1042 174 l 1042 0 l 347 0 l 347 174 l 174 174 l 174 347 l 0 347 z "},"č":{"ha":1389,"x_min":174,"x_max":1042,"o":"m 174 174 l 174 521 l 347 521 l 347 694 l 1042 694 l 1042 521 l 521 521 l 521 174 l 1042 174 l 1042 0 l 347 0 l 347 174 l 174 174 m 174 1042 l 174 1215 l 521 1215 l 521 1042 l 694 1042 l 694 1215 l 1042 1215 l 1042 1042 l 868 1042 l 868 868 l 347 868 l 347 1042 l 174 1042 z "},"Ď":{"ha":1389,"x_min":0,"x_max":1215,"o":"m 0 0 l 0 174 l 174 174 l 174 694 l 0 694 l 0 868 l 174 868 l 174 1042 l 0 1042 l 0 1215 l 347 1215 l 347 1042 l 694 1042 l 694 1215 l 1042 1215 l 1042 1042 l 868 1042 l 868 868 l 1042 868 l 1042 694 l 1215 694 l 1215 174 l 1042 174 l 1042 0 l 0 0 m 521 174 l 868 174 l 868 694 l 521 694 l 521 174 z "},"ď":{"ha":1389,"x_min":0,"x_max":1389,"o":"m 0 1042 l 0 1215 l 347 1215 l 347 1042 l 521 1042 l 521 1215 l 1215 1215 l 1215 174 l 1389 174 l 1389 0 l 1042 0 l 1042 174 l 868 174 l 868 521 l 521 521 l 521 174 l 868 174 l 868 0 l 347 0 l 347 174 l 174 174 l 174 521 l 347 521 l 347 694 l 868 694 l 868 1042 l 694 1042 l 694 868 l 174 868 l 174 1042 l 0 1042 z "},"Đ":{"ha":1389,"x_min":0,"x_max":1215,"o":"m 0 0 l 0 174 l 174 174 l 174 521 l 0 521 l 0 694 l 174 694 l 174 1042 l 0 1042 l 0 1215 l 868 1215 l 868 1042 l 1042 1042 l 1042 868 l 1215 868 l 1215 347 l 1042 347 l 1042 174 l 868 174 l 868 0 l 0 0 m 694 174 l 694 347 l 868 347 l 868 868 l 694 868 l 694 1042 l 521 1042 l 521 694 l 694 694 l 694 521 l 521 521 l 521 174 l 694 174 z "},"đ":{"ha":1389,"x_min":0,"x_max":1215,"o":"m 0 174 l 0 521 l 174 521 l 174 694 l 694 694 l 694 868 l 347 868 l 347 1042 l 694 1042 l 694 1215 l 1042 1215 l 1042 1042 l 1215 1042 l 1215 868 l 1042 868 l 1042 174 l 1215 174 l 1215 0 l 868 0 l 868 174 l 694 174 l 694 521 l 347 521 l 347 174 l 694 174 l 694 0 l 174 0 l 174 174 l 0 174 z "},"Ē":{"ha":1389,"x_min":0,"x_max":1042,"o":"m 0 0 l 0 174 l 174 174 l 174 694 l 0 694 l 0 868 l 1042 868 l 1042 694 l 521 694 l 521 521 l 868 521 l 868 347 l 521 347 l 521 174 l 1042 174 l 1042 0 l 0 0 m 0 1042 l 0 1215 l 1042 1215 l 1042 1042 l 0 1042 z "},"ē":{"ha":1389,"x_min":0,"x_max":1042,"o":"m 0 174 l 0 694 l 174 694 l 174 868 l 868 868 l 868 694 l 1042 694 l 1042 347 l 347 347 l 347 174 l 868 174 l 868 0 l 174 0 l 174 174 l 0 174 m 0 1042 l 0 1215 l 1042 1215 l 1042 1042 l 0 1042 m 347 694 l 347 521 l 694 521 l 694 694 l 347 694 z "},"Ĕ":{"ha":1389,"x_min":0,"x_max":1042,"o":"m 0 0 l 0 174 l 174 174 l 174 694 l 0 694 l 0 868 l 174 868 l 174 1042 l 0 1042 l 0 1215 l 347 1215 l 347 1042 l 694 1042 l 694 1215 l 1042 1215 l 1042 1042 l 868 1042 l 868 868 l 1042 868 l 1042 694 l 521 694 l 521 521 l 868 521 l 868 347 l 521 347 l 521 174 l 1042 174 l 1042 0 l 0 0 z "},"ĕ":{"ha":1389,"x_min":0,"x_max":1042,"o":"m 0 174 l 0 694 l 174 694 l 174 1042 l 0 1042 l 0 1215 l 347 1215 l 347 1042 l 694 1042 l 694 1215 l 1042 1215 l 1042 1042 l 868 1042 l 868 694 l 1042 694 l 1042 347 l 347 347 l 347 174 l 868 174 l 868 0 l 174 0 l 174 174 l 0 174 m 347 694 l 347 521 l 694 521 l 694 694 l 347 694 z "},"Ė":{"ha":1389,"x_min":0,"x_max":1042,"o":"m 0 0 l 0 174 l 174 174 l 174 694 l 0 694 l 0 868 l 1042 868 l 1042 694 l 521 694 l 521 521 l 868 521 l 868 347 l 521 347 l 521 174 l 1042 174 l 1042 0 l 0 0 m 347 1042 l 347 1215 l 694 1215 l 694 1042 l 347 1042 z "},"ė":{"ha":1389,"x_min":0,"x_max":1042,"o":"m 0 174 l 0 694 l 174 694 l 174 868 l 868 868 l 868 694 l 1042 694 l 1042 347 l 347 347 l 347 174 l 868 174 l 868 0 l 174 0 l 174 174 l 0 174 m 347 694 l 347 521 l 694 521 l 694 694 l 347 694 m 347 1042 l 347 1215 l 694 1215 l 694 1042 l 347 1042 z "},"Ę":{"ha":1389,"x_min":0,"x_max":1215,"o":"m 0 0 l 0 174 l 174 174 l 174 1042 l 0 1042 l 0 1215 l 1215 1215 l 1215 868 l 1042 868 l 1042 1042 l 521 1042 l 521 694 l 694 694 l 694 868 l 868 868 l 868 347 l 694 347 l 694 521 l 521 521 l 521 174 l 1042 174 l 1042 347 l 1215 347 l 1215 0 l 1042 0 l 1042 -174 l 694 -174 l 694 0 l 0 0 z "},"ę":{"ha":1389,"x_min":0,"x_max":1215,"o":"m 0 174 l 0 694 l 174 694 l 174 868 l 868 868 l 868 694 l 1042 694 l 1042 347 l 347 347 l 347 174 l 1042 174 l 1042 0 l 1215 0 l 1215 -174 l 694 -174 l 694 0 l 174 0 l 174 174 l 0 174 m 347 694 l 347 521 l 694 521 l 694 694 l 347 694 z "},"Ě":{"ha":1389,"x_min":0,"x_max":1042,"o":"m 0 0 l 0 174 l 174 174 l 174 694 l 0 694 l 0 868 l 347 868 l 347 1042 l 174 1042 l 174 1215 l 521 1215 l 521 1042 l 694 1042 l 694 1215 l 1042 1215 l 1042 1042 l 868 1042 l 868 868 l 1042 868 l 1042 694 l 521 694 l 521 521 l 868 521 l 868 347 l 521 347 l 521 174 l 1042 174 l 1042 0 l 0 0 z "},"ě":{"ha":1389,"x_min":0,"x_max":1042,"o":"m 0 174 l 0 694 l 174 694 l 174 868 l 347 868 l 347 1042 l 174 1042 l 174 1215 l 521 1215 l 521 1042 l 694 1042 l 694 1215 l 1042 1215 l 1042 1042 l 868 1042 l 868 694 l 1042 694 l 1042 347 l 347 347 l 347 174 l 868 174 l 868 0 l 174 0 l 174 174 l 0 174 m 347 694 l 347 521 l 694 521 l 694 694 l 347 694 z "},"Ĝ":{"ha":1389,"x_min":0,"x_max":1389,"o":"m 0 347 l 0 521 l 174 521 l 174 694 l 347 694 l 347 868 l 1042 868 l 1042 1042 l 347 1042 l 347 868 l 0 868 l 0 1042 l 174 1042 l 174 1215 l 1215 1215 l 1215 1042 l 1389 1042 l 1389 868 l 1215 868 l 1215 694 l 521 694 l 521 521 l 347 521 l 347 347 l 521 347 l 521 174 l 868 174 l 868 347 l 694 347 l 694 521 l 1215 521 l 1215 0 l 347 0 l 347 174 l 174 174 l 174 347 l 0 347 z "},"ĝ":{"ha":1389,"x_min":0,"x_max":1215,"o":"m 0 347 l 0 521 l 174 521 l 174 694 l 694 694 l 694 521 l 347 521 l 347 347 l 694 347 l 694 521 l 868 521 l 868 694 l 1215 694 l 1215 521 l 1042 521 l 1042 0 l 868 0 l 868 -174 l 0 -174 l 0 0 l 694 0 l 694 174 l 174 174 l 174 347 l 0 347 m 347 1042 l 347 1215 l 868 1215 l 868 1042 l 1042 1042 l 1042 868 l 694 868 l 694 1042 l 521 1042 l 521 868 l 174 868 l 174 1042 l 347 1042 z "},"Ğ":{"ha":1389,"x_min":0,"x_max":1215,"o":"m 0 347 l 0 521 l 174 521 l 174 694 l 347 694 l 347 1042 l 174 1042 l 174 1215 l 521 1215 l 521 1042 l 868 1042 l 868 1215 l 1215 1215 l 1215 1042 l 1042 1042 l 1042 868 l 1215 868 l 1215 694 l 521 694 l 521 521 l 347 521 l 347 347 l 521 347 l 521 174 l 868 174 l 868 347 l 694 347 l 694 521 l 1215 521 l 1215 0 l 347 0 l 347 174 l 174 174 l 174 347 l 0 347 z "},"ğ":{"ha":1389,"x_min":0,"x_max":1215,"o":"m 0 347 l 0 521 l 174 521 l 174 694 l 694 694 l 694 521 l 347 521 l 347 347 l 694 347 l 694 521 l 868 521 l 868 694 l 1215 694 l 1215 521 l 1042 521 l 1042 0 l 868 0 l 868 -174 l 0 -174 l 0 0 l 694 0 l 694 174 l 174 174 l 174 347 l 0 347 m 347 868 l 347 1042 l 174 1042 l 174 1215 l 521 1215 l 521 1042 l 868 1042 l 868 1215 l 1215 1215 l 1215 1042 l 1042 1042 l 1042 868 l 347 868 z "},"Ġ":{"ha":1389,"x_min":0,"x_max":1215,"o":"m 0 347 l 0 694 l 174 694 l 174 868 l 347 868 l 347 1042 l 521 1042 l 521 1215 l 868 1215 l 868 1042 l 1042 1042 l 1042 868 l 1215 868 l 1215 694 l 868 694 l 868 868 l 521 868 l 521 694 l 347 694 l 347 347 l 521 347 l 521 174 l 868 174 l 868 347 l 694 347 l 694 521 l 1215 521 l 1215 0 l 347 0 l 347 174 l 174 174 l 174 347 l 0 347 z "},"ġ":{"ha":1389,"x_min":0,"x_max":1215,"o":"m 0 -174 l 0 0 l 694 0 l 694 174 l 174 174 l 174 347 l 0 347 l 0 694 l 174 694 l 174 868 l 694 868 l 694 694 l 347 694 l 347 347 l 694 347 l 694 694 l 868 694 l 868 868 l 1215 868 l 1215 694 l 1042 694 l 1042 0 l 868 0 l 868 -174 l 0 -174 m 521 1042 l 521 1215 l 868 1215 l 868 1042 l 521 1042 z "},"Ģ":{"ha":1389,"x_min":0,"x_max":1215,"o":"m 0 868 l 174 868 l 174 1042 l 347 1042 l 347 1215 l 1042 1215 l 1042 1042 l 1215 1042 l 1215 868 l 868 868 l 868 1042 l 521 1042 l 521 868 l 347 868 l 347 521 l 521 521 l 521 347 l 868 347 l 868 521 l 694 521 l 694 694 l 1215 694 l 1215 174 l 1042 174 l 1042 0 l 868 0 l 868 -174 l 347 -174 l 347 0 l 694 0 l 694 174 l 347 174 l 347 347 l 174 347 l 174 521 l 0 521 l 0 868 z "},"ģ":{"ha":1389,"x_min":0,"x_max":1215,"o":"m 0 -174 l 0 0 l 694 0 l 694 174 l 174 174 l 174 347 l 0 347 l 0 694 l 174 694 l 174 868 l 521 868 l 521 1042 l 694 1042 l 694 1215 l 1215 1215 l 1215 1042 l 868 1042 l 868 868 l 694 868 l 694 694 l 347 694 l 347 347 l 694 347 l 694 694 l 868 694 l 868 868 l 1215 868 l 1215 694 l 1042 694 l 1042 0 l 868 0 l 868 -174 l 0 -174 z "},"Ĥ":{"ha":1389,"x_min":0,"x_max":1042,"o":"m 0 0 l 0 694 l 347 694 l 347 521 l 694 521 l 694 694 l 1042 694 l 1042 0 l 694 0 l 694 347 l 347 347 l 347 0 l 0 0 m 0 868 l 0 1042 l 174 1042 l 174 1215 l 868 1215 l 868 1042 l 1042 1042 l 1042 868 l 694 868 l 694 1042 l 347 1042 l 347 868 l 0 868 z "},"ĥ":{"ha":1389,"x_min":0,"x_max":1389,"o":"m 0 0 l 0 174 l 174 174 l 174 1042 l 0 1042 l 0 1215 l 521 1215 l 521 1042 l 694 1042 l 694 1215 l 1215 1215 l 1215 1042 l 1389 1042 l 1389 868 l 1042 868 l 1042 1042 l 868 1042 l 868 868 l 521 868 l 521 521 l 694 521 l 694 347 l 521 347 l 521 0 l 0 0 m 694 521 l 694 694 l 1042 694 l 1042 521 l 1215 521 l 1215 0 l 868 0 l 868 521 l 694 521 z "},"Ħ":{"ha":1389,"x_min":0,"x_max":1389,"o":"m 0 868 l 0 1042 l 174 1042 l 174 1215 l 521 1215 l 521 1042 l 868 1042 l 868 1215 l 1215 1215 l 1215 1042 l 1389 1042 l 1389 868 l 1215 868 l 1215 0 l 868 0 l 868 521 l 521 521 l 521 0 l 174 0 l 174 868 l 0 868 m 521 868 l 521 694 l 868 694 l 868 868 l 521 868 z "},"ħ":{"ha":1389,"x_min":0,"x_max":1215,"o":"m 0 0 l 0 174 l 174 174 l 174 694 l 0 694 l 0 868 l 174 868 l 174 1042 l 0 1042 l 0 1215 l 521 1215 l 521 868 l 694 868 l 694 694 l 521 694 l 521 521 l 694 521 l 694 347 l 521 347 l 521 0 l 0 0 m 694 694 l 1042 694 l 1042 521 l 1215 521 l 1215 0 l 868 0 l 868 521 l 694 521 l 694 694 z "},"Ĩ":{"ha":1389,"x_min":0,"x_max":1042,"o":"m 0 1042 l 0 1215 l 1042 1215 l 1042 1042 l 0 1042 m 174 0 l 174 174 l 347 174 l 347 694 l 174 694 l 174 868 l 868 868 l 868 694 l 694 694 l 694 174 l 868 174 l 868 0 l 174 0 z "},"ĩ":{"ha":1389,"x_min":0,"x_max":868,"o":"m 0 1042 l 0 1215 l 868 1215 l 868 1042 l 0 1042 m 174 0 l 174 174 l 347 174 l 347 694 l 174 694 l 174 868 l 694 868 l 694 174 l 868 174 l 868 0 l 174 0 z "},"Ī":{"ha":1389,"x_min":0,"x_max":1042,"o":"m 0 1042 l 0 1215 l 1042 1215 l 1042 1042 l 0 1042 m 174 0 l 174 174 l 347 174 l 347 694 l 174 694 l 174 868 l 868 868 l 868 694 l 694 694 l 694 174 l 868 174 l 868 0 l 174 0 z "},"ī":{"ha":1389,"x_min":0,"x_max":868,"o":"m 0 1042 l 0 1215 l 868 1215 l 868 1042 l 0 1042 m 174 0 l 174 174 l 347 174 l 347 694 l 174 694 l 174 868 l 694 868 l 694 174 l 868 174 l 868 0 l 174 0 z "},"Ĭ":{"ha":1389,"x_min":0,"x_max":1042,"o":"m 0 1042 l 0 1215 l 347 1215 l 347 1042 l 694 1042 l 694 1215 l 1042 1215 l 1042 1042 l 868 1042 l 868 868 l 174 868 l 174 1042 l 0 1042 m 174 0 l 174 174 l 347 174 l 347 521 l 174 521 l 174 694 l 868 694 l 868 521 l 694 521 l 694 174 l 868 174 l 868 0 l 174 0 z "},"ĭ":{"ha":1389,"x_min":0,"x_max":1042,"o":"m 0 1042 l 0 1215 l 347 1215 l 347 1042 l 694 1042 l 694 1215 l 1042 1215 l 1042 1042 l 868 1042 l 868 868 l 174 868 l 174 1042 l 0 1042 m 174 0 l 174 174 l 347 174 l 347 521 l 174 521 l 174 694 l 694 694 l 694 174 l 868 174 l 868 0 l 174 0 z "},"Į":{"ha":1389,"x_min":174,"x_max":1042,"o":"m 174 0 l 174 174 l 347 174 l 347 1042 l 174 1042 l 174 1215 l 868 1215 l 868 1042 l 694 1042 l 694 174 l 868 174 l 868 0 l 1042 0 l 1042 -174 l 521 -174 l 521 0 l 174 0 z "},"į":{"ha":1389,"x_min":174,"x_max":1042,"o":"m 174 0 l 174 174 l 347 174 l 347 694 l 174 694 l 174 868 l 694 868 l 694 174 l 868 174 l 868 0 l 1042 0 l 1042 -174 l 521 -174 l 521 0 l 174 0 m 347 1042 l 347 1215 l 694 1215 l 694 1042 l 347 1042 z "},"İ":{"ha":1389,"x_min":174,"x_max":868,"o":"m 174 0 l 174 174 l 347 174 l 347 694 l 174 694 l 174 868 l 868 868 l 868 694 l 694 694 l 694 174 l 868 174 l 868 0 l 174 0 m 347 1042 l 347 1215 l 694 1215 l 694 1042 l 347 1042 z "},"ı":{"ha":1389,"x_min":174,"x_max":868,"o":"m 694 174 l 868 174 l 868 0 l 174 0 l 174 174 l 347 174 l 347 694 l 174 694 l 174 868 l 694 868 l 694 174 z "},"Ĳ":{"ha":1389,"x_min":0,"x_max":1389,"o":"m 0 0 l 0 1215 l 347 1215 l 347 521 l 694 521 l 694 174 l 868 174 l 868 1042 l 694 1042 l 694 1215 l 1389 1215 l 1389 1042 l 1215 1042 l 1215 174 l 1042 174 l 1042 0 l 521 0 l 521 174 l 347 174 l 347 0 l 0 0 z "},"ĳ":{"ha":1389,"x_min":0,"x_max":1215,"o":"m 0 0 l 0 868 l 347 868 l 347 347 l 694 347 l 694 0 l 868 0 l 868 868 l 1215 868 l 1215 0 l 1042 0 l 1042 -174 l 521 -174 l 521 0 l 0 0 m 0 1042 l 0 1215 l 347 1215 l 347 1042 l 0 1042 m 868 1042 l 868 1215 l 1215 1215 l 1215 1042 l 868 1042 z "},"Ĵ":{"ha":1389,"x_min":0,"x_max":1389,"o":"m 0 174 l 0 521 l 347 521 l 347 174 l 694 174 l 694 868 l 1042 868 l 1042 174 l 868 174 l 868 0 l 174 0 l 174 174 l 0 174 m 1389 868 l 1042 868 l 1042 1042 l 694 1042 l 694 868 l 347 868 l 347 1042 l 521 1042 l 521 1215 l 1215 1215 l 1215 1042 l 1389 1042 l 1389 868 z "},"ĵ":{"ha":1389,"x_min":0,"x_max":1389,"o":"m 0 347 l 347 347 l 347 0 l 694 0 l 694 694 l 1042 694 l 1042 0 l 868 0 l 868 -174 l 174 -174 l 174 0 l 0 0 l 0 347 m 1389 868 l 1042 868 l 1042 1042 l 694 1042 l 694 868 l 347 868 l 347 1042 l 521 1042 l 521 1215 l 1215 1215 l 1215 1042 l 1389 1042 l 1389 868 z "},"Ķ":{"ha":1389,"x_min":0,"x_max":1215,"o":"m 0 0 l 0 174 l 174 174 l 174 1042 l 0 1042 l 0 1215 l 521 1215 l 521 694 l 694 694 l 694 868 l 868 868 l 868 1215 l 1215 1215 l 1215 868 l 1042 868 l 1042 694 l 868 694 l 868 521 l 1042 521 l 1042 347 l 1215 347 l 1215 0 l 1042 0 l 1042 -174 l 521 -174 l 521 0 l 868 0 l 868 347 l 694 347 l 694 521 l 521 521 l 521 0 l 0 0 z "},"ķ":{"ha":1389,"x_min":0,"x_max":1215,"o":"m 0 0 l 0 174 l 174 174 l 174 1042 l 0 1042 l 0 1215 l 521 1215 l 521 521 l 694 521 l 694 694 l 868 694 l 868 868 l 1215 868 l 1215 694 l 1042 694 l 1042 521 l 868 521 l 868 347 l 1042 347 l 1042 174 l 1215 174 l 1215 0 l 1042 0 l 1042 -174 l 521 -174 l 521 0 l 868 0 l 868 174 l 694 174 l 694 347 l 521 347 l 521 0 l 0 0 z "},"ĸ":{"ha":1389,"x_min":0,"x_max":1215,"o":"m 0 694 l 0 868 l 521 868 l 521 521 l 694 521 l 694 694 l 868 694 l 868 868 l 1215 868 l 1215 694 l 1042 694 l 1042 521 l 868 521 l 868 347 l 1042 347 l 1042 174 l 1215 174 l 1215 0 l 868 0 l 868 174 l 694 174 l 694 347 l 521 347 l 521 0 l 174 0 l 174 694 l 0 694 z "},"Ĺ":{"ha":1389,"x_min":0,"x_max":1389,"o":"m 0 0 l 0 174 l 174 174 l 174 1042 l 0 1042 l 0 1215 l 694 1215 l 694 1042 l 521 1042 l 521 174 l 868 174 l 868 347 l 1042 347 l 1042 521 l 1215 521 l 1215 0 l 0 0 m 1389 1215 l 1389 1042 l 1215 1042 l 1215 868 l 868 868 l 868 1042 l 1042 1042 l 1042 1215 l 1389 1215 z "},"ĺ":{"ha":1389,"x_min":174,"x_max":1389,"o":"m 1389 1215 l 1389 1042 l 1215 1042 l 1215 868 l 868 868 l 868 1042 l 1042 1042 l 1042 1215 l 1389 1215 m 174 0 l 174 174 l 347 174 l 347 1042 l 174 1042 l 174 1215 l 694 1215 l 694 174 l 868 174 l 868 0 l 174 0 z "},"Ļ":{"ha":1389,"x_min":0,"x_max":1215,"o":"m 0 174 l 0 347 l 174 347 l 174 1042 l 0 1042 l 0 1215 l 694 1215 l 694 1042 l 521 1042 l 521 347 l 868 347 l 868 521 l 1042 521 l 1042 694 l 1215 694 l 1215 174 l 868 174 l 868 0 l 694 0 l 694 -174 l 174 -174 l 174 0 l 521 0 l 521 174 l 0 174 z "},"ļ":{"ha":1389,"x_min":174,"x_max":868,"o":"m 174 174 l 174 347 l 347 347 l 347 1042 l 174 1042 l 174 1215 l 694 1215 l 694 347 l 868 347 l 868 0 l 694 0 l 694 -174 l 174 -174 l 174 0 l 521 0 l 521 174 l 174 174 z "},"Ľ":{"ha":1389,"x_min":0,"x_max":1389,"o":"m 0 0 l 0 174 l 174 174 l 174 1042 l 0 1042 l 0 1215 l 868 1215 l 868 1042 l 1042 1042 l 1042 1215 l 1389 1215 l 1389 1042 l 1215 1042 l 1215 868 l 694 868 l 694 1042 l 521 1042 l 521 174 l 868 174 l 868 347 l 1042 347 l 1042 521 l 1215 521 l 1215 0 l 0 0 z "},"ľ":{"ha":1389,"x_min":0,"x_max":1389,"o":"m 0 0 l 0 174 l 174 174 l 174 868 l 0 868 l 0 1042 l 521 1042 l 521 174 l 694 174 l 694 0 l 0 0 m 1389 1215 l 1389 1042 l 1215 1042 l 1215 868 l 694 868 l 694 1042 l 521 1042 l 521 1215 l 868 1215 l 868 1042 l 1042 1042 l 1042 1215 l 1389 1215 z "},"Ŀ":{"ha":1389,"x_min":0,"x_max":1215,"o":"m 0 0 l 0 174 l 174 174 l 174 1042 l 0 1042 l 0 1215 l 694 1215 l 694 1042 l 521 1042 l 521 174 l 868 174 l 868 347 l 1042 347 l 1042 521 l 1215 521 l 1215 0 l 0 0 m 868 694 l 868 868 l 1215 868 l 1215 694 l 868 694 z "},"ŀ":{"ha":1389,"x_min":174,"x_max":1215,"o":"m 174 0 l 174 174 l 347 174 l 347 1042 l 174 1042 l 174 1215 l 694 1215 l 694 174 l 868 174 l 868 0 l 174 0 m 868 694 l 868 868 l 1215 868 l 1215 694 l 868 694 z "},"Ł":{"ha":1389,"x_min":0,"x_max":1215,"o":"m 0 0 l 0 174 l 174 174 l 174 521 l 0 521 l 0 694 l 174 694 l 174 1042 l 0 1042 l 0 1215 l 694 1215 l 694 1042 l 521 1042 l 521 868 l 694 868 l 694 694 l 521 694 l 521 174 l 868 174 l 868 347 l 1042 347 l 1042 521 l 1215 521 l 1215 0 l 0 0 z "},"ł":{"ha":1389,"x_min":0,"x_max":1042,"o":"m 0 521 l 0 694 l 347 694 l 347 1042 l 174 1042 l 174 1215 l 694 1215 l 694 868 l 1042 868 l 1042 694 l 694 694 l 694 174 l 868 174 l 868 0 l 174 0 l 174 174 l 347 174 l 347 521 l 0 521 z "},"Ń":{"ha":1389,"x_min":0,"x_max":1215,"o":"m 0 0 l 0 868 l 521 868 l 521 694 l 694 694 l 694 521 l 868 521 l 868 868 l 1215 868 l 1215 0 l 868 0 l 868 174 l 694 174 l 694 347 l 521 347 l 521 521 l 347 521 l 347 0 l 0 0 m 694 1042 l 694 1215 l 1215 1215 l 1215 1042 l 694 1042 z "},"ń":{"ha":1389,"x_min":0,"x_max":1042,"o":"m 0 0 l 0 868 l 868 868 l 868 694 l 1042 694 l 1042 0 l 694 0 l 694 694 l 347 694 l 347 0 l 0 0 m 521 1042 l 521 1215 l 1042 1215 l 1042 1042 l 521 1042 z "},"Ņ":{"ha":1389,"x_min":0,"x_max":1215,"o":"m 0 174 l 0 1215 l 347 1215 l 347 1042 l 521 1042 l 521 868 l 694 868 l 694 694 l 868 694 l 868 1215 l 1215 1215 l 1215 174 l 868 174 l 868 347 l 694 347 l 694 521 l 521 521 l 521 694 l 347 694 l 347 174 l 0 174 m 694 0 l 694 -174 l 174 -174 l 174 0 l 521 0 l 521 174 l 868 174 l 868 0 l 694 0 z "},"ņ":{"ha":1389,"x_min":0,"x_max":1042,"o":"m 0 -174 l 0 0 l 347 0 l 347 174 l 694 174 l 694 0 l 521 0 l 521 -174 l 0 -174 m 0 174 l 0 868 l 868 868 l 868 694 l 1042 694 l 1042 174 l 694 174 l 694 694 l 347 694 l 347 174 l 0 174 z "},"Ň":{"ha":1389,"x_min":0,"x_max":1215,"o":"m 0 0 l 0 868 l 347 868 l 347 1042 l 174 1042 l 174 1215 l 521 1215 l 521 1042 l 694 1042 l 694 1215 l 1042 1215 l 1042 1042 l 868 1042 l 868 868 l 521 868 l 521 694 l 694 694 l 694 521 l 868 521 l 868 868 l 1215 868 l 1215 0 l 868 0 l 868 174 l 694 174 l 694 347 l 521 347 l 521 521 l 347 521 l 347 0 l 0 0 z "},"ň":{"ha":1389,"x_min":0,"x_max":1042,"o":"m 0 0 l 0 694 l 868 694 l 868 521 l 1042 521 l 1042 0 l 694 0 l 694 521 l 347 521 l 347 0 l 0 0 m 0 1042 l 0 1215 l 347 1215 l 347 1042 l 694 1042 l 694 1215 l 1042 1215 l 1042 1042 l 868 1042 l 868 868 l 174 868 l 174 1042 l 0 1042 z "},"ŉ":{"ha":1389,"x_min":0,"x_max":1042,"o":"m 0 0 l 0 694 l 868 694 l 868 521 l 1042 521 l 1042 0 l 694 0 l 694 521 l 347 521 l 347 0 l 0 0 m 0 868 l 0 1042 l 174 1042 l 174 1215 l 521 1215 l 521 1042 l 347 1042 l 347 868 l 0 868 z "},"Ŋ":{"ha":1389,"x_min":0,"x_max":1215,"o":"m 0 0 l 0 1215 l 347 1215 l 347 1042 l 521 1042 l 521 868 l 694 868 l 694 694 l 868 694 l 868 1215 l 1215 1215 l 1215 0 l 1042 0 l 1042 -174 l 521 -174 l 521 0 l 868 0 l 868 347 l 694 347 l 694 521 l 521 521 l 521 694 l 347 694 l 347 0 l 0 0 z "},"ŋ":{"ha":1389,"x_min":0,"x_max":1042,"o":"m 0 0 l 0 868 l 868 868 l 868 694 l 1042 694 l 1042 0 l 868 0 l 868 -174 l 521 -174 l 521 0 l 694 0 l 694 694 l 347 694 l 347 0 l 0 0 z "},"Ō":{"ha":1389,"x_min":0,"x_max":1215,"o":"m 0 347 l 0 521 l 174 521 l 174 694 l 347 694 l 347 868 l 868 868 l 868 694 l 1042 694 l 1042 521 l 1215 521 l 1215 347 l 1042 347 l 1042 174 l 868 174 l 868 0 l 347 0 l 347 174 l 174 174 l 174 347 l 0 347 m 0 1042 l 0 1215 l 1215 1215 l 1215 1042 l 0 1042 m 347 347 l 521 347 l 521 174 l 694 174 l 694 347 l 868 347 l 868 521 l 694 521 l 694 694 l 521 694 l 521 521 l 347 521 l 347 347 z "},"ō":{"ha":1389,"x_min":0,"x_max":1042,"o":"m 0 174 l 0 521 l 174 521 l 174 694 l 868 694 l 868 521 l 1042 521 l 1042 174 l 868 174 l 868 0 l 174 0 l 174 174 l 0 174 m 0 868 l 0 1042 l 1042 1042 l 1042 868 l 0 868 m 347 174 l 694 174 l 694 521 l 347 521 l 347 174 z "},"Ŏ":{"ha":1389,"x_min":0,"x_max":1215,"o":"m 0 347 l 0 521 l 174 521 l 174 694 l 347 694 l 347 868 l 174 868 l 174 1042 l 0 1042 l 0 1215 l 347 1215 l 347 1042 l 868 1042 l 868 1215 l 1215 1215 l 1215 1042 l 1042 1042 l 1042 868 l 868 868 l 868 694 l 1042 694 l 1042 521 l 1215 521 l 1215 347 l 1042 347 l 1042 174 l 868 174 l 868 0 l 347 0 l 347 174 l 174 174 l 174 347 l 0 347 m 347 347 l 521 347 l 521 174 l 694 174 l 694 347 l 868 347 l 868 521 l 694 521 l 694 694 l 521 694 l 521 521 l 347 521 l 347 347 z "},"ŏ":{"ha":1389,"x_min":0,"x_max":1042,"o":"m 0 174 l 0 521 l 174 521 l 174 694 l 868 694 l 868 521 l 1042 521 l 1042 174 l 868 174 l 868 0 l 174 0 l 174 174 l 0 174 m 0 1042 l 0 1215 l 347 1215 l 347 1042 l 694 1042 l 694 1215 l 1042 1215 l 1042 1042 l 868 1042 l 868 868 l 174 868 l 174 1042 l 0 1042 m 347 174 l 694 174 l 694 521 l 347 521 l 347 174 z "},"Ő":{"ha":1389,"x_min":0,"x_max":1215,"o":"m 0 347 l 0 521 l 174 521 l 174 694 l 347 694 l 347 868 l 868 868 l 868 694 l 1042 694 l 1042 521 l 1215 521 l 1215 347 l 1042 347 l 1042 174 l 868 174 l 868 0 l 347 0 l 347 174 l 174 174 l 174 347 l 0 347 m 347 347 l 521 347 l 521 174 l 694 174 l 694 347 l 868 347 l 868 521 l 694 521 l 694 694 l 521 694 l 521 521 l 347 521 l 347 347 m 347 1042 l 347 1215 l 694 1215 l 694 1042 l 347 1042 m 868 1042 l 868 1215 l 1215 1215 l 1215 1042 l 868 1042 z "},"ő":{"ha":1389,"x_min":0,"x_max":1215,"o":"m 0 174 l 0 521 l 174 521 l 174 694 l 868 694 l 868 521 l 1042 521 l 1042 174 l 868 174 l 868 0 l 174 0 l 174 174 l 0 174 m 347 174 l 694 174 l 694 521 l 347 521 l 347 174 m 347 868 l 347 1042 l 694 1042 l 694 868 l 347 868 m 868 868 l 868 1042 l 1215 1042 l 1215 868 l 868 868 z "},"Œ":{"ha":1389,"x_min":0,"x_max":1215,"o":"m 0 347 l 0 868 l 174 868 l 174 1042 l 347 1042 l 347 1215 l 1215 1215 l 1215 1042 l 1042 1042 l 1042 694 l 1215 694 l 1215 521 l 1042 521 l 1042 174 l 1215 174 l 1215 0 l 347 0 l 347 174 l 174 174 l 174 347 l 0 347 m 347 347 l 521 347 l 521 174 l 694 174 l 694 1042 l 521 1042 l 521 868 l 347 868 l 347 347 z "},"œ":{"ha":1389,"x_min":0,"x_max":1215,"o":"m 0 174 l 0 694 l 174 694 l 174 868 l 1215 868 l 1215 694 l 868 694 l 868 521 l 1215 521 l 1215 347 l 868 347 l 868 174 l 1215 174 l 1215 0 l 174 0 l 174 174 l 0 174 m 347 174 l 521 174 l 521 694 l 347 694 l 347 174 z "},"Ŕ":{"ha":1389,"x_min":0,"x_max":1215,"o":"m 0 0 l 0 174 l 174 174 l 174 694 l 0 694 l 0 868 l 1042 868 l 1042 694 l 1215 694 l 1215 521 l 1042 521 l 1042 174 l 1215 174 l 1215 0 l 868 0 l 868 174 l 694 174 l 694 347 l 521 347 l 521 0 l 0 0 m 694 1042 l 694 1215 l 1215 1215 l 1215 1042 l 694 1042 m 521 694 l 521 521 l 868 521 l 868 694 l 521 694 z "},"ŕ":{"ha":1389,"x_min":0,"x_max":1215,"o":"m 0 0 l 0 174 l 174 174 l 174 694 l 0 694 l 0 868 l 347 868 l 347 694 l 521 694 l 521 868 l 1042 868 l 1042 694 l 1215 694 l 1215 347 l 868 347 l 868 694 l 694 694 l 694 521 l 521 521 l 521 174 l 694 174 l 694 0 l 0 0 m 694 1042 l 694 1215 l 1215 1215 l 1215 1042 l 694 1042 z "},"Ŗ":{"ha":1389,"x_min":0,"x_max":1215,"o":"m 0 174 l 0 347 l 174 347 l 174 1042 l 0 1042 l 0 1215 l 1042 1215 l 1042 1042 l 1215 1042 l 1215 694 l 1042 694 l 1042 347 l 1215 347 l 1215 174 l 868 174 l 868 347 l 694 347 l 694 521 l 521 521 l 521 174 l 0 174 m 694 0 l 694 -174 l 174 -174 l 174 0 l 521 0 l 521 174 l 868 174 l 868 0 l 694 0 m 521 694 l 868 694 l 868 1042 l 521 1042 l 521 694 z "},"ŗ":{"ha":1389,"x_min":0,"x_max":1215,"o":"m 0 174 l 0 347 l 174 347 l 174 694 l 0 694 l 0 868 l 347 868 l 347 694 l 521 694 l 521 868 l 1042 868 l 1042 694 l 1215 694 l 1215 521 l 868 521 l 868 694 l 694 694 l 694 521 l 521 521 l 521 347 l 694 347 l 694 174 l 868 174 l 868 0 l 694 0 l 694 -174 l 174 -174 l 174 0 l 521 0 l 521 174 l 0 174 z "},"Ř":{"ha":1389,"x_min":0,"x_max":1215,"o":"m 0 0 l 0 174 l 174 174 l 174 694 l 0 694 l 0 868 l 347 868 l 347 1042 l 174 1042 l 174 1215 l 521 1215 l 521 1042 l 694 1042 l 694 1215 l 1042 1215 l 1042 1042 l 868 1042 l 868 868 l 1042 868 l 1042 694 l 1215 694 l 1215 521 l 1042 521 l 1042 174 l 1215 174 l 1215 0 l 868 0 l 868 174 l 694 174 l 694 347 l 521 347 l 521 0 l 0 0 m 521 694 l 521 521 l 868 521 l 868 694 l 521 694 z "},"ř":{"ha":1389,"x_min":0,"x_max":1215,"o":"m 0 0 l 0 174 l 174 174 l 174 694 l 0 694 l 0 868 l 347 868 l 347 694 l 521 694 l 521 868 l 347 868 l 347 1042 l 174 1042 l 174 1215 l 521 1215 l 521 1042 l 694 1042 l 694 1215 l 1042 1215 l 1042 1042 l 868 1042 l 868 868 l 1042 868 l 1042 694 l 1215 694 l 1215 347 l 868 347 l 868 694 l 694 694 l 694 521 l 521 521 l 521 174 l 694 174 l 694 0 l 0 0 z "},"Ś":{"ha":1389,"x_min":0,"x_max":1389,"o":"m 0 174 l 0 347 l 347 347 l 347 174 l 694 174 l 694 347 l 521 347 l 521 521 l 347 521 l 347 694 l 174 694 l 174 868 l 0 868 l 0 1042 l 174 1042 l 174 1215 l 868 1215 l 868 1042 l 1042 1042 l 1042 868 l 694 868 l 694 1042 l 347 1042 l 347 868 l 521 868 l 521 694 l 694 694 l 694 521 l 868 521 l 868 347 l 1042 347 l 1042 174 l 868 174 l 868 0 l 174 0 l 174 174 l 0 174 m 1042 1042 l 1042 1215 l 1389 1215 l 1389 1042 l 1042 1042 z "},"ś":{"ha":1389,"x_min":0,"x_max":1042,"o":"m 0 0 l 0 174 l 694 174 l 694 347 l 174 347 l 174 521 l 0 521 l 0 694 l 174 694 l 174 868 l 1042 868 l 1042 694 l 347 694 l 347 521 l 868 521 l 868 347 l 1042 347 l 1042 174 l 868 174 l 868 0 l 0 0 m 521 1042 l 521 1215 l 1042 1215 l 1042 1042 l 521 1042 z "},"Ŝ":{"ha":1389,"x_min":0,"x_max":1042,"o":"m 0 0 l 0 174 l 521 174 l 521 347 l 174 347 l 174 521 l 0 521 l 0 694 l 174 694 l 174 1042 l 347 1042 l 347 1215 l 868 1215 l 868 1042 l 1042 1042 l 1042 694 l 521 694 l 521 521 l 868 521 l 868 347 l 1042 347 l 1042 174 l 868 174 l 868 0 l 0 0 m 694 868 l 694 1042 l 521 1042 l 521 868 l 694 868 z "},"ŝ":{"ha":1389,"x_min":0,"x_max":1042,"o":"m 0 347 l 0 521 l 174 521 l 174 694 l 868 694 l 868 521 l 521 521 l 521 347 l 0 347 m 347 1042 l 347 1215 l 868 1215 l 868 1042 l 1042 1042 l 1042 868 l 694 868 l 694 1042 l 521 1042 l 521 868 l 174 868 l 174 1042 l 347 1042 m 1042 347 l 1042 174 l 868 174 l 868 0 l 174 0 l 174 174 l 521 174 l 521 347 l 1042 347 z "},"Ş":{"ha":1389,"x_min":0,"x_max":1042,"o":"m 0 174 l 0 347 l 347 347 l 347 174 l 694 174 l 694 347 l 521 347 l 521 521 l 347 521 l 347 694 l 174 694 l 174 868 l 0 868 l 0 1042 l 174 1042 l 174 1215 l 868 1215 l 868 1042 l 1042 1042 l 1042 868 l 694 868 l 694 1042 l 347 1042 l 347 868 l 521 868 l 521 694 l 694 694 l 694 521 l 868 521 l 868 347 l 1042 347 l 1042 174 l 868 174 l 868 0 l 521 0 l 521 -174 l 0 -174 l 0 0 l 174 0 l 174 174 l 0 174 z "},"ş":{"ha":1389,"x_min":0,"x_max":1042,"o":"m 0 174 l 694 174 l 694 347 l 174 347 l 174 521 l 0 521 l 0 694 l 174 694 l 174 868 l 1042 868 l 1042 694 l 347 694 l 347 521 l 868 521 l 868 347 l 1042 347 l 1042 174 l 868 174 l 868 0 l 521 0 l 521 -174 l 0 -174 l 0 174 z "},"Š":{"ha":1389,"x_min":0,"x_max":1042,"o":"m 0 174 l 0 347 l 347 347 l 347 174 l 694 174 l 694 347 l 521 347 l 521 521 l 868 521 l 868 347 l 1042 347 l 1042 174 l 868 174 l 868 0 l 174 0 l 174 174 l 0 174 m 0 694 l 0 868 l 174 868 l 174 1042 l 0 1042 l 0 1215 l 347 1215 l 347 1042 l 694 1042 l 694 1215 l 1042 1215 l 1042 1042 l 868 1042 l 868 868 l 1042 868 l 1042 694 l 694 694 l 694 868 l 347 868 l 347 694 l 521 694 l 521 521 l 174 521 l 174 694 l 0 694 z "},"š":{"ha":1389,"x_min":0,"x_max":1042,"o":"m 0 0 l 0 174 l 694 174 l 694 347 l 174 347 l 174 521 l 0 521 l 0 694 l 174 694 l 174 868 l 347 868 l 347 1042 l 174 1042 l 174 1215 l 521 1215 l 521 1042 l 694 1042 l 694 1215 l 1042 1215 l 1042 1042 l 868 1042 l 868 868 l 1042 868 l 1042 694 l 347 694 l 347 521 l 868 521 l 868 347 l 1042 347 l 1042 174 l 868 174 l 868 0 l 0 0 z "},"Ţ":{"ha":1389,"x_min":0,"x_max":1042,"o":"m 0 -174 l 0 0 l 521 0 l 521 174 l 174 174 l 174 347 l 347 347 l 347 1042 l 174 1042 l 174 868 l 0 868 l 0 1215 l 1042 1215 l 1042 868 l 868 868 l 868 1042 l 694 1042 l 694 347 l 868 347 l 868 0 l 694 0 l 694 -174 l 0 -174 z "},"ţ":{"ha":1389,"x_min":174,"x_max":1042,"o":"m 347 174 l 347 694 l 174 694 l 174 868 l 347 868 l 347 1042 l 521 1042 l 521 1215 l 694 1215 l 694 868 l 1042 868 l 1042 694 l 694 694 l 694 174 l 868 174 l 868 0 l 694 0 l 694 -174 l 174 -174 l 174 0 l 521 0 l 521 174 l 347 174 m 1042 347 l 1042 174 l 868 174 l 868 347 l 1042 347 z "},"Ť":{"ha":1389,"x_min":0,"x_max":1042,"o":"m 0 868 l 174 868 l 174 1042 l 0 1042 l 0 1215 l 347 1215 l 347 1042 l 694 1042 l 694 1215 l 1042 1215 l 1042 1042 l 868 1042 l 868 868 l 1042 868 l 1042 521 l 868 521 l 868 694 l 694 694 l 694 174 l 868 174 l 868 0 l 174 0 l 174 174 l 347 174 l 347 694 l 174 694 l 174 521 l 0 521 l 0 868 z "},"ť":{"ha":1389,"x_min":0,"x_max":1042,"o":"m 0 1042 l 0 1215 l 347 1215 l 347 1042 l 694 1042 l 694 1215 l 1042 1215 l 1042 1042 l 868 1042 l 868 868 l 694 868 l 694 694 l 1042 694 l 1042 521 l 694 521 l 694 174 l 868 174 l 868 0 l 521 0 l 521 174 l 347 174 l 347 521 l 174 521 l 174 694 l 347 694 l 347 868 l 174 868 l 174 1042 l 0 1042 m 1042 347 l 1042 174 l 868 174 l 868 347 l 1042 347 z "},"Ŧ":{"ha":1389,"x_min":0,"x_max":1042,"o":"m 0 521 l 0 694 l 347 694 l 347 1042 l 174 1042 l 174 868 l 0 868 l 0 1215 l 1042 1215 l 1042 868 l 868 868 l 868 1042 l 694 1042 l 694 694 l 1042 694 l 1042 521 l 694 521 l 694 174 l 868 174 l 868 0 l 174 0 l 174 174 l 347 174 l 347 521 l 0 521 z "},"ŧ":{"ha":1389,"x_min":174,"x_max":1215,"o":"m 347 347 l 174 347 l 174 521 l 347 521 l 347 694 l 174 694 l 174 868 l 347 868 l 347 1042 l 521 1042 l 521 1215 l 694 1215 l 694 868 l 1042 868 l 1042 694 l 694 694 l 694 521 l 868 521 l 868 347 l 694 347 l 694 174 l 1042 174 l 1042 0 l 521 0 l 521 174 l 347 174 l 347 347 m 1042 174 l 1042 347 l 1215 347 l 1215 174 l 1042 174 z "},"Ũ":{"ha":1389,"x_min":0,"x_max":1042,"o":"m 0 174 l 0 868 l 347 868 l 347 174 l 694 174 l 694 868 l 1042 868 l 1042 174 l 868 174 l 868 0 l 174 0 l 174 174 l 0 174 m 0 1042 l 0 1215 l 1042 1215 l 1042 1042 l 0 1042 z "},"ũ":{"ha":1389,"x_min":0,"x_max":1215,"o":"m 0 174 l 0 694 l 347 694 l 347 174 l 694 174 l 694 694 l 1042 694 l 1042 174 l 1215 174 l 1215 0 l 174 0 l 174 174 l 0 174 m 0 868 l 0 1042 l 1042 1042 l 1042 868 l 0 868 z "},"Ū":{"ha":1389,"x_min":0,"x_max":1042,"o":"m 0 174 l 0 868 l 347 868 l 347 174 l 694 174 l 694 868 l 1042 868 l 1042 174 l 868 174 l 868 0 l 174 0 l 174 174 l 0 174 m 0 1042 l 0 1215 l 1042 1215 l 1042 1042 l 0 1042 z "},"ū":{"ha":1389,"x_min":0,"x_max":1215,"o":"m 0 174 l 0 694 l 347 694 l 347 174 l 694 174 l 694 694 l 1042 694 l 1042 174 l 1215 174 l 1215 0 l 174 0 l 174 174 l 0 174 m 0 868 l 0 1042 l 1042 1042 l 1042 868 l 0 868 z "},"Ŭ":{"ha":1389,"x_min":0,"x_max":1042,"o":"m 0 174 l 0 694 l 347 694 l 347 174 l 694 174 l 694 694 l 1042 694 l 1042 174 l 868 174 l 868 0 l 174 0 l 174 174 l 0 174 m 0 1042 l 0 1215 l 347 1215 l 347 1042 l 694 1042 l 694 1215 l 1042 1215 l 1042 1042 l 868 1042 l 868 868 l 174 868 l 174 1042 l 0 1042 z "},"ŭ":{"ha":1389,"x_min":0,"x_max":1215,"o":"m 0 174 l 0 694 l 347 694 l 347 174 l 694 174 l 694 694 l 1042 694 l 1042 174 l 1215 174 l 1215 0 l 174 0 l 174 174 l 0 174 m 0 1042 l 0 1215 l 347 1215 l 347 1042 l 694 1042 l 694 1215 l 1042 1215 l 1042 1042 l 868 1042 l 868 868 l 174 868 l 174 1042 l 0 1042 z "},"Ů":{"ha":1389,"x_min":0,"x_max":1042,"o":"m 0 174 l 0 868 l 347 868 l 347 174 l 694 174 l 694 868 l 1042 868 l 1042 174 l 868 174 l 868 0 l 174 0 l 174 174 l 0 174 m 347 1042 l 347 1215 l 694 1215 l 694 1042 l 347 1042 z "},"ů":{"ha":1389,"x_min":0,"x_max":1215,"o":"m 0 174 l 0 694 l 347 694 l 347 174 l 694 174 l 694 694 l 1042 694 l 1042 174 l 1215 174 l 1215 0 l 174 0 l 174 174 l 0 174 m 347 868 l 347 1215 l 694 1215 l 694 868 l 347 868 z "},"Ű":{"ha":1389,"x_min":0,"x_max":1215,"o":"m 0 174 l 0 868 l 347 868 l 347 174 l 694 174 l 694 868 l 1042 868 l 1042 174 l 868 174 l 868 0 l 174 0 l 174 174 l 0 174 m 347 1042 l 347 1215 l 694 1215 l 694 1042 l 347 1042 m 868 1042 l 868 1215 l 1215 1215 l 1215 1042 l 868 1042 z "},"ű":{"ha":1389,"x_min":0,"x_max":1215,"o":"m 0 174 l 0 694 l 347 694 l 347 174 l 694 174 l 694 694 l 1042 694 l 1042 174 l 1215 174 l 1215 0 l 174 0 l 174 174 l 0 174 m 347 868 l 347 1042 l 694 1042 l 694 868 l 347 868 m 868 868 l 868 1042 l 1215 1042 l 1215 868 l 868 868 z "},"Ų":{"ha":1389,"x_min":0,"x_max":1215,"o":"m 0 174 l 0 1215 l 347 1215 l 347 174 l 694 174 l 694 1215 l 1042 1215 l 1042 174 l 868 174 l 868 0 l 1215 0 l 1215 -174 l 694 -174 l 694 0 l 174 0 l 174 174 l 0 174 z "},"ų":{"ha":1389,"x_min":0,"x_max":1215,"o":"m 0 174 l 0 868 l 347 868 l 347 174 l 694 174 l 694 868 l 1042 868 l 1042 0 l 1215 0 l 1215 -174 l 694 -174 l 694 0 l 174 0 l 174 174 l 0 174 z "},"Ŵ":{"ha":1389,"x_min":0,"x_max":1215,"o":"m 0 0 l 0 694 l 347 694 l 347 521 l 521 521 l 521 694 l 694 694 l 694 521 l 868 521 l 868 694 l 1215 694 l 1215 0 l 868 0 l 868 174 l 694 174 l 694 347 l 521 347 l 521 174 l 347 174 l 347 0 l 0 0 m 347 1042 l 347 1215 l 868 1215 l 868 1042 l 1042 1042 l 1042 868 l 694 868 l 694 1042 l 521 1042 l 521 868 l 174 868 l 174 1042 l 347 1042 z "},"ŵ":{"ha":1389,"x_min":0,"x_max":1215,"o":"m 0 174 l 0 694 l 347 694 l 347 347 l 521 347 l 521 521 l 694 521 l 694 347 l 868 347 l 868 694 l 1215 694 l 1215 174 l 1042 174 l 1042 0 l 694 0 l 694 174 l 521 174 l 521 0 l 174 0 l 174 174 l 0 174 m 347 1042 l 347 1215 l 868 1215 l 868 1042 l 1042 1042 l 1042 868 l 694 868 l 694 1042 l 521 1042 l 521 868 l 174 868 l 174 1042 l 347 1042 z "},"Ŷ":{"ha":1389,"x_min":0,"x_max":1042,"o":"m 0 868 l 0 1042 l 174 1042 l 174 1215 l 868 1215 l 868 1042 l 1042 1042 l 1042 868 l 694 868 l 694 1042 l 347 1042 l 347 868 l 0 868 m 0 521 l 0 694 l 347 694 l 347 521 l 694 521 l 694 694 l 1042 694 l 1042 521 l 868 521 l 868 347 l 694 347 l 694 174 l 868 174 l 868 0 l 174 0 l 174 174 l 347 174 l 347 347 l 174 347 l 174 521 l 0 521 z "},"ŷ":{"ha":1389,"x_min":0,"x_max":1042,"o":"m 0 347 l 0 694 l 347 694 l 347 347 l 694 347 l 694 694 l 1042 694 l 1042 0 l 868 0 l 868 -174 l 174 -174 l 174 0 l 694 0 l 694 174 l 174 174 l 174 347 l 0 347 m 0 868 l 0 1042 l 174 1042 l 174 1215 l 868 1215 l 868 1042 l 1042 1042 l 1042 868 l 694 868 l 694 1042 l 347 1042 l 347 868 l 0 868 z "},"Ÿ":{"ha":1389,"x_min":0,"x_max":1042,"o":"m 0 868 l 347 868 l 347 521 l 694 521 l 694 868 l 1042 868 l 1042 521 l 868 521 l 868 347 l 694 347 l 694 174 l 868 174 l 868 0 l 174 0 l 174 174 l 347 174 l 347 347 l 174 347 l 174 521 l 0 521 l 0 868 m 0 1042 l 0 1215 l 347 1215 l 347 1042 l 0 1042 m 694 1042 l 694 1215 l 1042 1215 l 1042 1042 l 694 1042 z "},"Ź":{"ha":1389,"x_min":0,"x_max":1389,"o":"m 0 0 l 0 174 l 174 174 l 174 347 l 347 347 l 347 521 l 521 521 l 521 694 l 694 694 l 694 868 l 347 868 l 347 694 l 174 694 l 174 521 l 0 521 l 0 1042 l 1042 1042 l 1042 1215 l 1389 1215 l 1389 1042 l 1215 1042 l 1215 868 l 1042 868 l 1042 694 l 868 694 l 868 521 l 694 521 l 694 347 l 521 347 l 521 174 l 868 174 l 868 347 l 1042 347 l 1042 521 l 1215 521 l 1215 0 l 0 0 z "},"ź":{"ha":1389,"x_min":0,"x_max":1042,"o":"m 0 0 l 0 174 l 174 174 l 174 347 l 347 347 l 347 521 l 521 521 l 521 694 l 174 694 l 174 521 l 0 521 l 0 868 l 1042 868 l 1042 694 l 868 694 l 868 521 l 694 521 l 694 347 l 521 347 l 521 174 l 868 174 l 868 347 l 1042 347 l 1042 0 l 0 0 m 1042 1215 l 1042 1042 l 521 1042 l 521 1215 l 1042 1215 z "},"Ż":{"ha":1389,"x_min":0,"x_max":1215,"o":"m 0 0 l 0 174 l 174 174 l 174 347 l 347 347 l 347 521 l 521 521 l 521 694 l 694 694 l 694 868 l 347 868 l 347 694 l 174 694 l 174 521 l 0 521 l 0 1042 l 347 1042 l 347 1215 l 694 1215 l 694 1042 l 1215 1042 l 1215 868 l 1042 868 l 1042 694 l 868 694 l 868 521 l 694 521 l 694 347 l 521 347 l 521 174 l 868 174 l 868 347 l 1042 347 l 1042 521 l 1215 521 l 1215 0 l 0 0 z "},"ż":{"ha":1389,"x_min":0,"x_max":1042,"o":"m 0 0 l 0 174 l 174 174 l 174 347 l 347 347 l 347 521 l 521 521 l 521 694 l 174 694 l 174 521 l 0 521 l 0 868 l 1042 868 l 1042 694 l 868 694 l 868 521 l 694 521 l 694 347 l 521 347 l 521 174 l 868 174 l 868 347 l 1042 347 l 1042 0 l 0 0 m 347 1042 l 347 1215 l 694 1215 l 694 1042 l 347 1042 z "},"Ž":{"ha":1389,"x_min":0,"x_max":1215,"o":"m 0 0 l 0 174 l 174 174 l 174 347 l 347 347 l 347 521 l 521 521 l 521 694 l 694 694 l 694 868 l 347 868 l 347 694 l 174 694 l 174 521 l 0 521 l 0 1042 l 174 1042 l 174 1215 l 521 1215 l 521 1042 l 694 1042 l 694 1215 l 1042 1215 l 1042 1042 l 1215 1042 l 1215 868 l 1042 868 l 1042 694 l 868 694 l 868 521 l 694 521 l 694 347 l 521 347 l 521 174 l 868 174 l 868 347 l 1042 347 l 1042 521 l 1215 521 l 1215 0 l 0 0 z "},"ž":{"ha":1389,"x_min":0,"x_max":1042,"o":"m 0 0 l 0 174 l 174 174 l 174 347 l 347 347 l 347 521 l 521 521 l 521 694 l 174 694 l 174 521 l 0 521 l 0 868 l 174 868 l 174 1042 l 0 1042 l 0 1215 l 347 1215 l 347 1042 l 694 1042 l 694 1215 l 1042 1215 l 1042 1042 l 868 1042 l 868 868 l 1042 868 l 1042 694 l 868 694 l 868 521 l 694 521 l 694 347 l 521 347 l 521 174 l 868 174 l 868 347 l 1042 347 l 1042 0 l 0 0 z "},"ſ":{"ha":1389,"x_min":0,"x_max":1042,"o":"m 0 0 l 0 174 l 174 174 l 174 1042 l 347 1042 l 347 1215 l 868 1215 l 868 1042 l 1042 1042 l 1042 868 l 694 868 l 694 1042 l 521 1042 l 521 174 l 694 174 l 694 0 l 0 0 z "},"ƒ":{"ha":1389,"x_min":0,"x_max":1389,"o":"m 0 0 l 0 174 l 347 174 l 347 0 l 521 0 l 521 521 l 347 521 l 347 694 l 521 694 l 521 1042 l 694 1042 l 694 1215 l 1215 1215 l 1215 1042 l 1389 1042 l 1389 868 l 1042 868 l 1042 1042 l 868 1042 l 868 694 l 1042 694 l 1042 521 l 868 521 l 868 0 l 694 0 l 694 -174 l 174 -174 l 174 0 l 0 0 z "},"ơ":{"ha":1389,"x_min":0,"x_max":1215,"o":"m 0 174 l 0 694 l 174 694 l 174 868 l 1215 868 l 1215 694 l 868 694 l 868 174 l 694 174 l 694 0 l 174 0 l 174 174 l 0 174 m 347 174 l 521 174 l 521 694 l 347 694 l 347 174 z "},"Ʒ":{"ha":1389,"x_min":0,"x_max":1042,"o":"m 0 174 l 0 347 l 347 347 l 347 174 l 694 174 l 694 521 l 347 521 l 347 694 l 521 694 l 521 868 l 694 868 l 694 1042 l 347 1042 l 347 868 l 0 868 l 0 1215 l 1042 1215 l 1042 868 l 868 868 l 868 521 l 1042 521 l 1042 174 l 868 174 l 868 0 l 174 0 l 174 174 l 0 174 z "},"Ǻ":{"ha":1389,"x_min":0,"x_max":1042,"o":"m 0 0 l 0 521 l 174 521 l 174 694 l 868 694 l 868 521 l 1042 521 l 1042 0 l 694 0 l 694 174 l 347 174 l 347 0 l 0 0 m 347 347 l 694 347 l 694 521 l 347 521 l 347 347 m 347 868 l 347 1215 l 1042 1215 l 1042 1042 l 694 1042 l 694 868 l 347 868 z "},"ǻ":{"ha":1389,"x_min":0,"x_max":1215,"o":"m 0 174 l 0 347 l 174 347 l 174 521 l 694 521 l 694 694 l 174 694 l 174 868 l 347 868 l 347 1215 l 1042 1215 l 1042 1042 l 694 1042 l 694 868 l 868 868 l 868 694 l 1042 694 l 1042 174 l 1215 174 l 1215 0 l 174 0 l 174 174 l 0 174 m 347 347 l 347 174 l 694 174 l 694 347 l 347 347 z "},"Ǽ":{"ha":1389,"x_min":0,"x_max":1215,"o":"m 0 0 l 0 521 l 174 521 l 174 694 l 347 694 l 347 868 l 1215 868 l 1215 694 l 1042 694 l 1042 521 l 1215 521 l 1215 347 l 1042 347 l 1042 174 l 1215 174 l 1215 0 l 694 0 l 694 347 l 347 347 l 347 0 l 0 0 m 694 694 l 521 694 l 521 521 l 694 521 l 694 694 m 694 1042 l 694 1215 l 1215 1215 l 1215 1042 l 694 1042 z "},"ǽ":{"ha":1389,"x_min":0,"x_max":1389,"o":"m 0 174 l 0 347 l 174 347 l 174 521 l 694 521 l 694 694 l 174 694 l 174 868 l 1389 868 l 1389 694 l 1042 694 l 1042 521 l 1389 521 l 1389 347 l 1042 347 l 1042 174 l 1389 174 l 1389 0 l 174 0 l 174 174 l 0 174 m 347 347 l 347 174 l 694 174 l 694 347 l 347 347 m 694 1042 l 694 1215 l 1215 1215 l 1215 1042 l 694 1042 z "},"Ǿ":{"ha":1389,"x_min":0,"x_max":1215,"o":"m 0 174 l 0 868 l 174 868 l 174 1042 l 694 1042 l 694 1215 l 1215 1215 l 1215 1042 l 1042 1042 l 1042 868 l 1215 868 l 1215 174 l 1042 174 l 1042 0 l 174 0 l 174 174 l 0 174 m 347 521 l 521 521 l 521 694 l 694 694 l 694 868 l 347 868 l 347 521 m 694 347 l 521 347 l 521 174 l 868 174 l 868 521 l 694 521 l 694 347 z "},"ǿ":{"ha":1389,"x_min":0,"x_max":1215,"o":"m 0 -174 l 0 0 l 174 0 l 174 -174 l 0 -174 m 0 174 l 0 694 l 174 694 l 174 868 l 1042 868 l 1042 694 l 1215 694 l 1215 174 l 1042 174 l 1042 0 l 174 0 l 174 174 l 0 174 m 347 347 l 521 347 l 521 174 l 868 174 l 868 521 l 694 521 l 694 694 l 347 694 l 347 347 m 694 347 l 521 347 l 521 521 l 694 521 l 694 347 m 1042 868 l 1042 1042 l 1215 1042 l 1215 868 l 1042 868 m 1042 1215 l 1042 1042 l 521 1042 l 521 1215 l 1042 1215 z "},"Ș":{"ha":1389,"x_min":0,"x_max":1042,"o":"m 0 174 l 0 347 l 347 347 l 347 174 l 694 174 l 694 347 l 521 347 l 521 521 l 347 521 l 347 694 l 174 694 l 174 868 l 0 868 l 0 1042 l 174 1042 l 174 1215 l 868 1215 l 868 1042 l 1042 1042 l 1042 868 l 694 868 l 694 1042 l 347 1042 l 347 868 l 521 868 l 521 694 l 694 694 l 694 521 l 868 521 l 868 347 l 1042 347 l 1042 174 l 868 174 l 868 0 l 694 0 l 694 -174 l 347 -174 l 347 0 l 174 0 l 174 174 l 0 174 z "},"ș":{"ha":1389,"x_min":0,"x_max":1042,"o":"m 0 0 l 0 174 l 694 174 l 694 347 l 174 347 l 174 521 l 0 521 l 0 694 l 174 694 l 174 868 l 1042 868 l 1042 694 l 347 694 l 347 521 l 868 521 l 868 347 l 1042 347 l 1042 174 l 868 174 l 868 0 l 694 0 l 694 -174 l 347 -174 l 347 0 l 0 0 z "},"Ț":{"ha":1389,"x_min":0,"x_max":1042,"o":"m 0 868 l 0 1215 l 1042 1215 l 1042 868 l 868 868 l 868 1042 l 694 1042 l 694 174 l 868 174 l 868 0 l 694 0 l 694 -174 l 347 -174 l 347 0 l 174 0 l 174 174 l 347 174 l 347 1042 l 174 1042 l 174 868 l 0 868 z "},"ț":{"ha":1389,"x_min":174,"x_max":1042,"o":"m 347 -174 l 347 0 l 521 0 l 521 174 l 347 174 l 347 694 l 174 694 l 174 868 l 347 868 l 347 1042 l 521 1042 l 521 1215 l 694 1215 l 694 868 l 1042 868 l 1042 694 l 694 694 l 694 174 l 868 174 l 868 0 l 694 0 l 694 -174 l 347 -174 m 1042 347 l 1042 174 l 868 174 l 868 347 l 1042 347 z "},"ɑ":{"ha":1389,"x_min":0,"x_max":1215,"o":"m 0 174 l 0 694 l 174 694 l 174 868 l 694 868 l 694 694 l 868 694 l 868 868 l 1215 868 l 1215 694 l 1042 694 l 1042 521 l 868 521 l 868 347 l 1042 347 l 1042 174 l 1215 174 l 1215 0 l 868 0 l 868 174 l 694 174 l 694 0 l 174 0 l 174 174 l 0 174 m 347 174 l 521 174 l 521 347 l 694 347 l 694 521 l 521 521 l 521 694 l 347 694 l 347 174 z "},"ɸ":{"ha":1389,"x_min":0,"x_max":1042,"o":"m 0 -174 l 0 0 l 347 0 l 347 174 l 174 174 l 174 347 l 0 347 l 0 694 l 174 694 l 174 868 l 347 868 l 347 1042 l 0 1042 l 0 1215 l 1042 1215 l 1042 1042 l 694 1042 l 694 868 l 868 868 l 868 694 l 1042 694 l 1042 347 l 868 347 l 868 174 l 694 174 l 694 0 l 1042 0 l 1042 -174 l 0 -174 m 347 347 l 694 347 l 694 694 l 347 694 l 347 347 z "},"ˆ":{"ha":1389,"x_min":0,"x_max":1215,"o":"m 0 521 l 0 694 l 174 694 l 174 868 l 347 868 l 347 1042 l 521 1042 l 521 1215 l 694 1215 l 694 1042 l 868 1042 l 868 868 l 1042 868 l 1042 694 l 1215 694 l 1215 521 l 868 521 l 868 694 l 694 694 l 694 868 l 521 868 l 521 694 l 347 694 l 347 521 l 0 521 z "},"ˇ":{"ha":1389,"x_min":0,"x_max":868,"o":"m 694 868 l 174 868 l 174 1042 l 0 1042 l 0 1215 l 347 1215 l 347 1042 l 521 1042 l 521 1215 l 868 1215 l 868 1042 l 694 1042 l 694 868 z "},"ˉ":{"ha":1389,"x_min":174,"x_max":1042,"o":"m 174 1042 l 174 1215 l 1042 1215 l 1042 1042 l 174 1042 z "},"˘":{"ha":1389,"x_min":0,"x_max":1215,"o":"m 0 1042 l 0 1215 l 347 1215 l 347 1042 l 868 1042 l 868 1215 l 1215 1215 l 1215 1042 l 1042 1042 l 1042 868 l 174 868 l 174 1042 l 0 1042 z "},"˙":{"ha":1389,"x_min":347,"x_max":694,"o":"m 694 1215 l 694 1042 l 347 1042 l 347 1215 l 694 1215 z "},"˚":{"ha":1389,"x_min":174,"x_max":1042,"o":"m 174 694 l 174 1042 l 347 1042 l 347 1215 l 868 1215 l 868 1042 l 1042 1042 l 1042 694 l 868 694 l 868 521 l 347 521 l 347 694 l 174 694 m 521 694 l 694 694 l 694 1042 l 521 1042 l 521 694 z "},"˛":{"ha":1389,"x_min":521,"x_max":1042,"o":"m 868 174 l 868 0 l 1042 0 l 1042 -174 l 521 -174 l 521 174 l 868 174 z "},"˜":{"ha":1389,"x_min":0,"x_max":1215,"o":"m 0 868 l 0 1042 l 174 1042 l 174 1215 l 694 1215 l 694 1042 l 868 1042 l 868 1215 l 1215 1215 l 1215 1042 l 1042 1042 l 1042 868 l 521 868 l 521 1042 l 347 1042 l 347 868 l 0 868 z "},"˝":{"ha":1389,"x_min":347,"x_max":1215,"o":"m 694 1215 l 694 1042 l 347 1042 l 347 1215 l 694 1215 m 868 1042 l 868 1215 l 1215 1215 l 1215 1042 l 868 1042 z "},";":{"ha":1389,"x_min":174,"x_max":694,"o":"m 694 174 l 521 174 l 521 0 l 174 0 l 174 174 l 347 174 l 347 521 l 694 521 l 694 174 m 694 694 l 347 694 l 347 1042 l 694 1042 l 694 694 z "},"΄":{"ha":1389,"x_min":347,"x_max":868,"o":"m 694 868 l 521 868 l 521 694 l 347 694 l 347 1042 l 521 1042 l 521 1215 l 868 1215 l 868 1042 l 694 1042 l 694 868 z "},"΅":{"ha":1389,"x_min":0,"x_max":1389,"o":"m 0 868 l 0 1042 l 347 1042 l 347 868 l 0 868 m 1389 868 l 1042 868 l 1042 1042 l 1389 1042 l 1389 868 m 694 1042 l 694 1215 l 868 1215 l 868 1042 l 694 1042 z "},"Ά":{"ha":1389,"x_min":0,"x_max":1215,"o":"m 0 868 l 0 1215 l 174 1215 l 174 868 l 0 868 m 174 0 l 174 868 l 347 868 l 347 1042 l 521 1042 l 521 1215 l 868 1215 l 868 1042 l 1042 1042 l 1042 868 l 1215 868 l 1215 0 l 868 0 l 868 347 l 521 347 l 521 0 l 174 0 m 521 868 l 521 521 l 868 521 l 868 868 l 521 868 z "},"·":{"ha":1389,"x_min":521,"x_max":868,"o":"m 868 868 l 868 521 l 521 521 l 521 868 l 868 868 z "},"Έ":{"ha":1389,"x_min":0,"x_max":1215,"o":"m 0 868 l 0 1215 l 174 1215 l 174 868 l 0 868 m 347 0 l 347 1215 l 1215 1215 l 1215 868 l 1042 868 l 1042 1042 l 694 1042 l 694 694 l 1042 694 l 1042 521 l 694 521 l 694 174 l 1042 174 l 1042 347 l 1215 347 l 1215 0 l 347 0 z "},"Ή":{"ha":1389,"x_min":0,"x_max":1215,"o":"m 0 868 l 0 1215 l 174 1215 l 174 868 l 0 868 m 347 0 l 347 1215 l 694 1215 l 694 694 l 868 694 l 868 1215 l 1215 1215 l 1215 0 l 868 0 l 868 521 l 694 521 l 694 0 l 347 0 z "},"Ί":{"ha":1389,"x_min":0,"x_max":1042,"o":"m 0 868 l 0 1215 l 174 1215 l 174 868 l 0 868 m 347 0 l 347 174 l 521 174 l 521 1042 l 347 1042 l 347 1215 l 1042 1215 l 1042 1042 l 868 1042 l 868 174 l 1042 174 l 1042 0 l 347 0 z "},"Ό":{"ha":1389,"x_min":0,"x_max":1215,"o":"m 0 347 l 0 868 l 174 868 l 174 1042 l 347 1042 l 347 1215 l 868 1215 l 868 1042 l 1042 1042 l 1042 868 l 1215 868 l 1215 347 l 1042 347 l 1042 174 l 868 174 l 868 0 l 347 0 l 347 174 l 174 174 l 174 347 l 0 347 m 0 1042 l 0 1215 l 174 1215 l 174 1042 l 0 1042 m 347 347 l 521 347 l 521 174 l 694 174 l 694 347 l 868 347 l 868 868 l 694 868 l 694 1042 l 521 1042 l 521 868 l 347 868 l 347 347 z "},"Ύ":{"ha":1389,"x_min":0,"x_max":1215,"o":"m 0 868 l 0 1215 l 174 1215 l 174 868 l 0 868 m 347 694 l 347 1215 l 694 1215 l 694 694 l 868 694 l 868 1215 l 1215 1215 l 1215 694 l 1042 694 l 1042 521 l 868 521 l 868 174 l 1042 174 l 1042 0 l 521 0 l 521 174 l 694 174 l 694 521 l 521 521 l 521 694 l 347 694 z "},"Ώ":{"ha":1389,"x_min":0,"x_max":1215,"o":"m 0 0 l 0 174 l 174 174 l 174 347 l 0 347 l 0 868 l 174 868 l 174 1042 l 347 1042 l 347 1215 l 868 1215 l 868 1042 l 1042 1042 l 1042 868 l 1215 868 l 1215 347 l 1042 347 l 1042 174 l 1215 174 l 1215 0 l 694 0 l 694 347 l 868 347 l 868 868 l 694 868 l 694 1042 l 521 1042 l 521 868 l 347 868 l 347 347 l 521 347 l 521 0 l 0 0 m 0 1042 l 0 1215 l 174 1215 l 174 1042 l 0 1042 z "},"ΐ":{"ha":1389,"x_min":0,"x_max":1389,"o":"m 0 868 l 0 1042 l 347 1042 l 347 868 l 0 868 m 1389 868 l 1042 868 l 1042 1042 l 1389 1042 l 1389 868 m 521 174 l 521 868 l 868 868 l 868 174 l 1042 174 l 1042 0 l 694 0 l 694 174 l 521 174 m 694 1042 l 694 1215 l 868 1215 l 868 1042 l 694 1042 z "},"Α":{"ha":1389,"x_min":0,"x_max":1042,"o":"m 0 0 l 0 868 l 174 868 l 174 1042 l 347 1042 l 347 1215 l 694 1215 l 694 1042 l 868 1042 l 868 868 l 1042 868 l 1042 0 l 694 0 l 694 347 l 347 347 l 347 0 l 0 0 m 347 868 l 347 521 l 694 521 l 694 868 l 347 868 z "},"Β":{"ha":1389,"x_min":0,"x_max":1215,"o":"m 0 0 l 0 174 l 174 174 l 174 1042 l 0 1042 l 0 1215 l 1042 1215 l 1042 1042 l 1215 1042 l 1215 694 l 1042 694 l 1042 521 l 1215 521 l 1215 174 l 1042 174 l 1042 0 l 0 0 m 521 174 l 868 174 l 868 521 l 521 521 l 521 174 m 521 694 l 868 694 l 868 1042 l 521 1042 l 521 694 z "},"Γ":{"ha":1389,"x_min":0,"x_max":1042,"o":"m 0 0 l 0 1215 l 1042 1215 l 1042 868 l 694 868 l 694 1042 l 347 1042 l 347 0 l 0 0 z "},"Δ":{"ha":1389,"x_min":0,"x_max":1215,"o":"m 0 0 l 0 694 l 174 694 l 174 868 l 347 868 l 347 1042 l 521 1042 l 521 1215 l 694 1215 l 694 1042 l 868 1042 l 868 868 l 1042 868 l 1042 694 l 1215 694 l 1215 0 l 0 0 m 347 174 l 868 174 l 868 694 l 694 694 l 694 868 l 521 868 l 521 694 l 347 694 l 347 174 z "},"Ε":{"ha":1389,"x_min":0,"x_max":1215,"o":"m 0 0 l 0 174 l 174 174 l 174 1042 l 0 1042 l 0 1215 l 1215 1215 l 1215 868 l 1042 868 l 1042 1042 l 521 1042 l 521 694 l 694 694 l 694 868 l 868 868 l 868 347 l 694 347 l 694 521 l 521 521 l 521 174 l 1042 174 l 1042 347 l 1215 347 l 1215 0 l 0 0 z "},"Ζ":{"ha":1389,"x_min":0,"x_max":1215,"o":"m 0 0 l 0 174 l 174 174 l 174 347 l 347 347 l 347 521 l 521 521 l 521 694 l 694 694 l 694 868 l 868 868 l 868 1042 l 347 1042 l 347 868 l 174 868 l 174 694 l 0 694 l 0 1215 l 1215 1215 l 1215 868 l 1042 868 l 1042 694 l 868 694 l 868 521 l 694 521 l 694 347 l 521 347 l 521 174 l 868 174 l 868 347 l 1042 347 l 1042 521 l 1215 521 l 1215 0 l 0 0 z "},"Η":{"ha":1389,"x_min":0,"x_max":1042,"o":"m 0 0 l 0 1215 l 347 1215 l 347 694 l 694 694 l 694 1215 l 1042 1215 l 1042 0 l 694 0 l 694 521 l 347 521 l 347 0 l 0 0 z "},"Θ":{"ha":1389,"x_min":0,"x_max":1215,"o":"m 0 347 l 0 868 l 174 868 l 174 1042 l 347 1042 l 347 1215 l 868 1215 l 868 1042 l 1042 1042 l 1042 868 l 1215 868 l 1215 347 l 1042 347 l 1042 174 l 868 174 l 868 0 l 347 0 l 347 174 l 174 174 l 174 347 l 0 347 m 347 347 l 521 347 l 521 174 l 694 174 l 694 347 l 868 347 l 868 521 l 347 521 l 347 347 m 347 868 l 347 694 l 868 694 l 868 868 l 694 868 l 694 1042 l 521 1042 l 521 868 l 347 868 z "},"Ι":{"ha":1389,"x_min":174,"x_max":868,"o":"m 694 174 l 868 174 l 868 0 l 174 0 l 174 174 l 347 174 l 347 1042 l 174 1042 l 174 1215 l 868 1215 l 868 1042 l 694 1042 l 694 174 z "},"Κ":{"ha":1389,"x_min":0,"x_max":1215,"o":"m 0 0 l 0 174 l 174 174 l 174 1042 l 0 1042 l 0 1215 l 521 1215 l 521 694 l 694 694 l 694 868 l 868 868 l 868 1215 l 1215 1215 l 1215 868 l 1042 868 l 1042 694 l 868 694 l 868 521 l 1042 521 l 1042 347 l 1215 347 l 1215 0 l 868 0 l 868 347 l 694 347 l 694 521 l 521 521 l 521 0 l 0 0 z "},"Λ":{"ha":1389,"x_min":0,"x_max":1215,"o":"m 0 0 l 0 694 l 174 694 l 174 868 l 347 868 l 347 1042 l 521 1042 l 521 1215 l 694 1215 l 694 1042 l 868 1042 l 868 868 l 1042 868 l 1042 694 l 1215 694 l 1215 0 l 868 0 l 868 694 l 694 694 l 694 868 l 521 868 l 521 694 l 347 694 l 347 0 l 0 0 z "},"Μ":{"ha":1389,"x_min":0,"x_max":1215,"o":"m 0 0 l 0 1215 l 347 1215 l 347 1042 l 521 1042 l 521 868 l 694 868 l 694 1042 l 868 1042 l 868 1215 l 1215 1215 l 1215 0 l 868 0 l 868 521 l 694 521 l 694 347 l 521 347 l 521 521 l 347 521 l 347 0 l 0 0 z "},"Ν":{"ha":1389,"x_min":0,"x_max":1215,"o":"m 0 0 l 0 1215 l 347 1215 l 347 1042 l 521 1042 l 521 868 l 694 868 l 694 694 l 868 694 l 868 1215 l 1215 1215 l 1215 0 l 868 0 l 868 347 l 694 347 l 694 521 l 521 521 l 521 694 l 347 694 l 347 0 l 0 0 z "},"Ξ":{"ha":1389,"x_min":0,"x_max":1215,"o":"m 0 347 l 347 347 l 347 174 l 868 174 l 868 347 l 1215 347 l 1215 0 l 0 0 l 0 347 m 0 868 l 0 1215 l 1215 1215 l 1215 868 l 868 868 l 868 1042 l 347 1042 l 347 868 l 0 868 m 174 521 l 174 694 l 1042 694 l 1042 521 l 174 521 z "},"Ο":{"ha":1389,"x_min":0,"x_max":1215,"o":"m 0 347 l 0 868 l 174 868 l 174 1042 l 347 1042 l 347 1215 l 868 1215 l 868 1042 l 1042 1042 l 1042 868 l 1215 868 l 1215 347 l 1042 347 l 1042 174 l 868 174 l 868 0 l 347 0 l 347 174 l 174 174 l 174 347 l 0 347 m 347 347 l 521 347 l 521 174 l 694 174 l 694 347 l 868 347 l 868 868 l 694 868 l 694 1042 l 521 1042 l 521 868 l 347 868 l 347 347 z "},"Π":{"ha":1389,"x_min":0,"x_max":1042,"o":"m 0 0 l 0 1215 l 1042 1215 l 1042 0 l 694 0 l 694 1042 l 347 1042 l 347 0 l 0 0 z "},"Ρ":{"ha":1389,"x_min":0,"x_max":1215,"o":"m 0 0 l 0 174 l 174 174 l 174 1042 l 0 1042 l 0 1215 l 1042 1215 l 1042 1042 l 1215 1042 l 1215 694 l 1042 694 l 1042 521 l 521 521 l 521 174 l 694 174 l 694 0 l 0 0 m 521 694 l 868 694 l 868 1042 l 521 1042 l 521 694 z "},"Σ":{"ha":1389,"x_min":0,"x_max":1215,"o":"m 0 0 l 0 174 l 174 174 l 174 347 l 347 347 l 347 521 l 521 521 l 521 694 l 347 694 l 347 868 l 174 868 l 174 1042 l 0 1042 l 0 1215 l 1215 1215 l 1215 868 l 868 868 l 868 1042 l 521 1042 l 521 868 l 694 868 l 694 694 l 868 694 l 868 521 l 694 521 l 694 347 l 521 347 l 521 174 l 868 174 l 868 347 l 1215 347 l 1215 0 l 0 0 z "},"Τ":{"ha":1389,"x_min":0,"x_max":1042,"o":"m 0 868 l 0 1215 l 1042 1215 l 1042 868 l 868 868 l 868 1042 l 694 1042 l 694 174 l 868 174 l 868 0 l 174 0 l 174 174 l 347 174 l 347 1042 l 174 1042 l 174 868 l 0 868 z "},"Υ":{"ha":1389,"x_min":0,"x_max":1042,"o":"m 0 694 l 0 1215 l 347 1215 l 347 694 l 694 694 l 694 1215 l 1042 1215 l 1042 694 l 868 694 l 868 521 l 694 521 l 694 174 l 868 174 l 868 0 l 174 0 l 174 174 l 347 174 l 347 521 l 174 521 l 174 694 l 0 694 z "},"Φ":{"ha":1389,"x_min":0,"x_max":1215,"o":"m 0 868 l 174 868 l 174 1042 l 521 1042 l 521 1215 l 694 1215 l 694 1042 l 1042 1042 l 1042 868 l 1215 868 l 1215 521 l 1042 521 l 1042 347 l 694 347 l 694 0 l 521 0 l 521 347 l 174 347 l 174 521 l 0 521 l 0 868 m 347 521 l 521 521 l 521 868 l 347 868 l 347 521 m 694 521 l 868 521 l 868 868 l 694 868 l 694 521 z "},"Χ":{"ha":1389,"x_min":0,"x_max":1215,"o":"m 0 0 l 0 174 l 174 174 l 174 347 l 347 347 l 347 694 l 174 694 l 174 868 l 0 868 l 0 1215 l 347 1215 l 347 868 l 521 868 l 521 694 l 694 694 l 694 868 l 868 868 l 868 1215 l 1215 1215 l 1215 868 l 1042 868 l 1042 694 l 868 694 l 868 347 l 1042 347 l 1042 174 l 1215 174 l 1215 0 l 868 0 l 868 174 l 694 174 l 694 347 l 521 347 l 521 174 l 347 174 l 347 0 l 0 0 z "},"Ψ":{"ha":1389,"x_min":0,"x_max":1215,"o":"m 0 694 l 0 1215 l 347 1215 l 347 694 l 521 694 l 521 1042 l 694 1042 l 694 694 l 868 694 l 868 1215 l 1215 1215 l 1215 694 l 1042 694 l 1042 521 l 694 521 l 694 0 l 521 0 l 521 521 l 174 521 l 174 694 l 0 694 z "},"Ω":{"ha":1389,"x_min":0,"x_max":1215,"o":"m 0 0 l 0 174 l 174 174 l 174 347 l 0 347 l 0 868 l 174 868 l 174 1042 l 347 1042 l 347 1215 l 868 1215 l 868 1042 l 1042 1042 l 1042 868 l 1215 868 l 1215 347 l 1042 347 l 1042 174 l 1215 174 l 1215 0 l 694 0 l 694 347 l 868 347 l 868 868 l 694 868 l 694 1042 l 521 1042 l 521 868 l 347 868 l 347 347 l 521 347 l 521 0 l 0 0 z "},"Ϊ":{"ha":1389,"x_min":0,"x_max":1042,"o":"m 0 1042 l 0 1215 l 347 1215 l 347 1042 l 0 1042 m 174 0 l 174 174 l 347 174 l 347 694 l 174 694 l 174 868 l 868 868 l 868 694 l 694 694 l 694 174 l 868 174 l 868 0 l 174 0 m 694 1042 l 694 1215 l 1042 1215 l 1042 1042 l 694 1042 z "},"Ϋ":{"ha":1389,"x_min":0,"x_max":1042,"o":"m 0 868 l 347 868 l 347 521 l 694 521 l 694 868 l 1042 868 l 1042 521 l 868 521 l 868 347 l 694 347 l 694 174 l 868 174 l 868 0 l 174 0 l 174 174 l 347 174 l 347 347 l 174 347 l 174 521 l 0 521 l 0 868 m 0 1042 l 0 1215 l 347 1215 l 347 1042 l 0 1042 m 694 1042 l 694 1215 l 1042 1215 l 1042 1042 l 694 1042 z "},"ά":{"ha":1389,"x_min":0,"x_max":1215,"o":"m 0 174 l 0 694 l 174 694 l 174 868 l 694 868 l 694 694 l 868 694 l 868 868 l 1215 868 l 1215 694 l 1042 694 l 1042 174 l 1215 174 l 1215 0 l 868 0 l 868 174 l 694 174 l 694 0 l 174 0 l 174 174 l 0 174 m 347 174 l 521 174 l 521 347 l 694 347 l 694 521 l 521 521 l 521 694 l 347 694 l 347 174 m 521 1042 l 521 1215 l 868 1215 l 868 1042 l 521 1042 z "},"έ":{"ha":1389,"x_min":0,"x_max":1042,"o":"m 0 174 l 0 347 l 174 347 l 174 521 l 0 521 l 0 694 l 174 694 l 174 868 l 1042 868 l 1042 694 l 347 694 l 347 521 l 694 521 l 694 347 l 347 347 l 347 174 l 1042 174 l 1042 0 l 174 0 l 174 174 l 0 174 m 347 1042 l 347 1215 l 694 1215 l 694 1042 l 347 1042 z "},"ή":{"ha":1389,"x_min":0,"x_max":1042,"o":"m 0 868 l 174 868 l 174 694 l 347 694 l 347 868 l 868 868 l 868 694 l 1042 694 l 1042 0 l 694 0 l 694 694 l 521 694 l 521 0 l 174 0 l 174 521 l 0 521 l 0 868 m 347 1042 l 347 1215 l 694 1215 l 694 1042 l 347 1042 z "},"ί":{"ha":1389,"x_min":347,"x_max":868,"o":"m 694 174 l 868 174 l 868 0 l 521 0 l 521 174 l 347 174 l 347 868 l 694 868 l 694 174 m 694 1215 l 694 1042 l 347 1042 l 347 1215 l 694 1215 z "},"ΰ":{"ha":1389,"x_min":0,"x_max":1389,"o":"m 0 868 l 0 1042 l 347 1042 l 347 868 l 0 868 m 1389 868 l 1042 868 l 1042 1042 l 1389 1042 l 1389 868 m 174 174 l 174 694 l 521 694 l 521 174 l 868 174 l 868 694 l 1215 694 l 1215 174 l 1042 174 l 1042 0 l 347 0 l 347 174 l 174 174 m 694 1042 l 694 1215 l 868 1215 l 868 1042 l 694 1042 z "},"α":{"ha":1389,"x_min":0,"x_max":1215,"o":"m 0 174 l 0 694 l 174 694 l 174 868 l 694 868 l 694 694 l 868 694 l 868 868 l 1215 868 l 1215 694 l 1042 694 l 1042 174 l 1215 174 l 1215 0 l 868 0 l 868 174 l 694 174 l 694 0 l 174 0 l 174 174 l 0 174 m 347 174 l 521 174 l 521 347 l 694 347 l 694 521 l 521 521 l 521 694 l 347 694 l 347 174 z "},"β":{"ha":1389,"x_min":0,"x_max":1042,"o":"m 0 -174 l 0 1042 l 174 1042 l 174 1215 l 868 1215 l 868 1042 l 1042 1042 l 1042 694 l 868 694 l 868 521 l 1042 521 l 1042 347 l 868 347 l 868 174 l 347 174 l 347 -174 l 0 -174 m 347 347 l 694 347 l 694 521 l 347 521 l 347 347 m 347 694 l 694 694 l 694 1042 l 347 1042 l 347 694 z "},"γ":{"ha":1389,"x_min":0,"x_max":1042,"o":"m 0 0 l 0 174 l 174 174 l 174 347 l 347 347 l 347 521 l 174 521 l 174 694 l 0 694 l 0 868 l 347 868 l 347 694 l 694 694 l 694 868 l 1042 868 l 1042 694 l 868 694 l 868 521 l 694 521 l 694 347 l 868 347 l 868 174 l 1042 174 l 1042 0 l 868 0 l 868 -174 l 174 -174 l 174 0 l 0 0 m 347 174 l 347 0 l 694 0 l 694 174 l 347 174 z "},"δ":{"ha":1389,"x_min":0,"x_max":1042,"o":"m 0 174 l 0 521 l 174 521 l 174 868 l 0 868 l 0 1042 l 174 1042 l 174 1215 l 868 1215 l 868 1042 l 1042 1042 l 1042 868 l 694 868 l 694 1042 l 347 1042 l 347 868 l 521 868 l 521 694 l 868 694 l 868 521 l 1042 521 l 1042 174 l 868 174 l 868 0 l 174 0 l 174 174 l 0 174 m 347 174 l 694 174 l 694 521 l 347 521 l 347 174 z "},"ε":{"ha":1389,"x_min":0,"x_max":1042,"o":"m 0 174 l 0 347 l 174 347 l 174 521 l 0 521 l 0 694 l 174 694 l 174 868 l 1042 868 l 1042 694 l 347 694 l 347 521 l 694 521 l 694 347 l 347 347 l 347 174 l 1042 174 l 1042 0 l 174 0 l 174 174 l 0 174 z "},"ζ":{"ha":1389,"x_min":0,"x_max":1042,"o":"m 0 0 l 0 174 l 347 174 l 347 0 l 694 0 l 694 347 l 521 347 l 521 521 l 347 521 l 347 868 l 521 868 l 521 1042 l 174 1042 l 174 868 l 0 868 l 0 1215 l 1042 1215 l 1042 1042 l 868 1042 l 868 868 l 694 868 l 694 521 l 868 521 l 868 347 l 1042 347 l 1042 0 l 868 0 l 868 -174 l 174 -174 l 174 0 l 0 0 z "},"η":{"ha":1389,"x_min":0,"x_max":1042,"o":"m 0 868 l 174 868 l 174 694 l 347 694 l 347 868 l 868 868 l 868 694 l 1042 694 l 1042 0 l 694 0 l 694 694 l 521 694 l 521 0 l 174 0 l 174 521 l 0 521 l 0 868 z "},"θ":{"ha":1389,"x_min":0,"x_max":1042,"o":"m 0 174 l 0 521 l 174 521 l 174 694 l 694 694 l 694 1042 l 347 1042 l 347 868 l 0 868 l 0 1042 l 174 1042 l 174 1215 l 868 1215 l 868 1042 l 1042 1042 l 1042 694 l 868 694 l 868 521 l 1042 521 l 1042 174 l 868 174 l 868 0 l 174 0 l 174 174 l 0 174 m 347 174 l 694 174 l 694 521 l 347 521 l 347 174 z "},"ι":{"ha":1389,"x_min":347,"x_max":868,"o":"m 694 174 l 868 174 l 868 0 l 521 0 l 521 174 l 347 174 l 347 868 l 694 868 l 694 174 z "},"κ":{"ha":1389,"x_min":0,"x_max":1042,"o":"m 0 0 l 0 868 l 347 868 l 347 521 l 521 521 l 521 694 l 694 694 l 694 868 l 1042 868 l 1042 694 l 868 694 l 868 521 l 694 521 l 694 347 l 868 347 l 868 174 l 1042 174 l 1042 0 l 694 0 l 694 174 l 521 174 l 521 347 l 347 347 l 347 0 l 0 0 z "},"λ":{"ha":1389,"x_min":0,"x_max":1042,"o":"m 0 347 l 174 347 l 174 521 l 347 521 l 347 694 l 694 694 l 694 868 l 521 868 l 521 1042 l 347 1042 l 347 868 l 0 868 l 0 1042 l 174 1042 l 174 1215 l 694 1215 l 694 1042 l 868 1042 l 868 868 l 1042 868 l 1042 0 l 694 0 l 694 521 l 521 521 l 521 347 l 347 347 l 347 0 l 0 0 l 0 347 z "},"μ":{"ha":1389,"x_min":0,"x_max":1215,"o":"m 0 -174 l 0 868 l 347 868 l 347 347 l 694 347 l 694 868 l 1042 868 l 1042 347 l 1215 347 l 1215 174 l 347 174 l 347 -174 l 0 -174 z "},"ν":{"ha":1389,"x_min":0,"x_max":1042,"o":"m 0 347 l 0 868 l 347 868 l 347 347 l 694 347 l 694 868 l 1042 868 l 1042 347 l 868 347 l 868 174 l 694 174 l 694 0 l 347 0 l 347 174 l 174 174 l 174 347 l 0 347 z "},"ξ":{"ha":1389,"x_min":0,"x_max":1042,"o":"m 0 1042 l 0 1215 l 1042 1215 l 1042 1042 l 694 1042 l 694 868 l 521 868 l 521 694 l 1042 694 l 1042 521 l 868 521 l 868 347 l 1042 347 l 1042 0 l 868 0 l 868 -174 l 347 -174 l 347 0 l 174 0 l 174 174 l 521 174 l 521 0 l 694 0 l 694 347 l 521 347 l 521 521 l 347 521 l 347 694 l 174 694 l 174 868 l 347 868 l 347 1042 l 0 1042 z "},"ο":{"ha":1389,"x_min":0,"x_max":1042,"o":"m 0 174 l 0 694 l 174 694 l 174 868 l 868 868 l 868 694 l 1042 694 l 1042 174 l 868 174 l 868 0 l 174 0 l 174 174 l 0 174 m 347 174 l 694 174 l 694 694 l 347 694 l 347 174 z "},"π":{"ha":1389,"x_min":0,"x_max":1042,"o":"m 0 0 l 0 868 l 1042 868 l 1042 0 l 694 0 l 694 694 l 347 694 l 347 0 l 0 0 z "},"ρ":{"ha":1389,"x_min":0,"x_max":1042,"o":"m 0 -174 l 0 694 l 174 694 l 174 868 l 868 868 l 868 694 l 1042 694 l 1042 347 l 868 347 l 868 174 l 347 174 l 347 -174 l 0 -174 m 347 347 l 694 347 l 694 694 l 347 694 l 347 347 z "},"ς":{"ha":1389,"x_min":0,"x_max":1215,"o":"m 0 347 l 0 694 l 174 694 l 174 868 l 1042 868 l 1042 694 l 1215 694 l 1215 521 l 868 521 l 868 694 l 347 694 l 347 347 l 1042 347 l 1042 174 l 1215 174 l 1215 0 l 1042 0 l 1042 -174 l 521 -174 l 521 0 l 868 0 l 868 174 l 174 174 l 174 347 l 0 347 z "},"σ":{"ha":1389,"x_min":0,"x_max":1042,"o":"m 0 174 l 0 694 l 174 694 l 174 868 l 1042 868 l 1042 694 l 868 694 l 868 521 l 1042 521 l 1042 174 l 868 174 l 868 0 l 174 0 l 174 174 l 0 174 m 347 174 l 694 174 l 694 521 l 521 521 l 521 694 l 347 694 l 347 174 z "},"τ":{"ha":1389,"x_min":0,"x_max":1042,"o":"m 694 174 l 868 174 l 868 0 l 521 0 l 521 174 l 347 174 l 347 694 l 0 694 l 0 868 l 1042 868 l 1042 694 l 694 694 l 694 174 z "},"υ":{"ha":1389,"x_min":0,"x_max":1042,"o":"m 0 174 l 0 868 l 347 868 l 347 174 l 694 174 l 694 868 l 1042 868 l 1042 174 l 868 174 l 868 0 l 174 0 l 174 174 l 0 174 z "},"φ":{"ha":1389,"x_min":0,"x_max":1215,"o":"m 0 347 l 0 868 l 347 868 l 347 347 l 521 347 l 521 868 l 1042 868 l 1042 694 l 1215 694 l 1215 347 l 1042 347 l 1042 174 l 694 174 l 694 -174 l 521 -174 l 521 174 l 174 174 l 174 347 l 0 347 m 694 347 l 868 347 l 868 694 l 694 694 l 694 347 z "},"χ":{"ha":1389,"x_min":0,"x_max":1042,"o":"m 0 0 l 0 174 l 174 174 l 174 347 l 347 347 l 347 521 l 174 521 l 174 694 l 0 694 l 0 868 l 347 868 l 347 694 l 694 694 l 694 868 l 1042 868 l 1042 694 l 868 694 l 868 521 l 694 521 l 694 347 l 868 347 l 868 174 l 1042 174 l 1042 0 l 694 0 l 694 174 l 347 174 l 347 0 l 0 0 z "},"ψ":{"ha":1389,"x_min":0,"x_max":1215,"o":"m 0 347 l 0 868 l 347 868 l 347 347 l 521 347 l 521 868 l 694 868 l 694 347 l 868 347 l 868 868 l 1215 868 l 1215 347 l 1042 347 l 1042 174 l 694 174 l 694 -174 l 521 -174 l 521 174 l 174 174 l 174 347 l 0 347 z "},"ω":{"ha":1389,"x_min":0,"x_max":1215,"o":"m 0 174 l 0 868 l 347 868 l 347 174 l 521 174 l 521 0 l 174 0 l 174 174 l 0 174 m 521 174 l 521 694 l 694 694 l 694 174 l 521 174 m 694 174 l 868 174 l 868 868 l 1215 868 l 1215 174 l 1042 174 l 1042 0 l 694 0 l 694 174 z "},"ϊ":{"ha":1389,"x_min":0,"x_max":1042,"o":"m 0 1042 l 0 1215 l 347 1215 l 347 1042 l 0 1042 m 347 174 l 347 868 l 694 868 l 694 174 l 868 174 l 868 0 l 521 0 l 521 174 l 347 174 m 694 1042 l 694 1215 l 1042 1215 l 1042 1042 l 694 1042 z "},"ϋ":{"ha":1389,"x_min":0,"x_max":1042,"o":"m 0 174 l 0 868 l 347 868 l 347 174 l 694 174 l 694 868 l 1042 868 l 1042 174 l 868 174 l 868 0 l 174 0 l 174 174 l 0 174 m 0 1042 l 0 1215 l 347 1215 l 347 1042 l 0 1042 m 694 1042 l 694 1215 l 1042 1215 l 1042 1042 l 694 1042 z "},"ό":{"ha":1389,"x_min":0,"x_max":1042,"o":"m 0 174 l 0 694 l 174 694 l 174 868 l 868 868 l 868 694 l 1042 694 l 1042 174 l 868 174 l 868 0 l 174 0 l 174 174 l 0 174 m 347 174 l 694 174 l 694 694 l 347 694 l 347 174 m 347 1042 l 347 1215 l 694 1215 l 694 1042 l 347 1042 z "},"ύ":{"ha":1389,"x_min":0,"x_max":1042,"o":"m 0 174 l 0 868 l 347 868 l 347 174 l 694 174 l 694 868 l 1042 868 l 1042 174 l 868 174 l 868 0 l 174 0 l 174 174 l 0 174 m 347 1042 l 347 1215 l 694 1215 l 694 1042 l 347 1042 z "},"ώ":{"ha":1389,"x_min":0,"x_max":1215,"o":"m 0 174 l 0 868 l 347 868 l 347 174 l 521 174 l 521 0 l 174 0 l 174 174 l 0 174 m 521 174 l 521 694 l 694 694 l 694 174 l 521 174 m 521 1042 l 521 1215 l 868 1215 l 868 1042 l 521 1042 m 694 174 l 868 174 l 868 868 l 1215 868 l 1215 174 l 1042 174 l 1042 0 l 694 0 l 694 174 z "},"ϐ":{"ha":1389,"x_min":0,"x_max":1042,"o":"m 0 -174 l 0 868 l 174 868 l 174 1042 l 868 1042 l 868 868 l 1042 868 l 1042 694 l 868 694 l 868 521 l 1042 521 l 1042 347 l 868 347 l 868 174 l 347 174 l 347 -174 l 0 -174 m 347 347 l 694 347 l 694 521 l 347 521 l 347 347 m 347 868 l 347 694 l 694 694 l 694 868 l 347 868 z "},"ϴ":{"ha":1389,"x_min":0,"x_max":1215,"o":"m 0 347 l 0 868 l 174 868 l 174 1042 l 347 1042 l 347 1215 l 868 1215 l 868 1042 l 1042 1042 l 1042 868 l 1215 868 l 1215 347 l 1042 347 l 1042 174 l 868 174 l 868 0 l 347 0 l 347 174 l 174 174 l 174 347 l 0 347 m 347 347 l 521 347 l 521 174 l 694 174 l 694 347 l 868 347 l 868 521 l 347 521 l 347 347 m 347 868 l 347 694 l 868 694 l 868 868 l 694 868 l 694 1042 l 521 1042 l 521 868 l 347 868 z "},"Ѐ":{"ha":1389,"x_min":0,"x_max":1215,"o":"m 0 0 l 0 174 l 174 174 l 174 694 l 0 694 l 0 868 l 1215 868 l 1215 521 l 1042 521 l 1042 694 l 521 694 l 521 521 l 868 521 l 868 347 l 521 347 l 521 174 l 1042 174 l 1042 347 l 1215 347 l 1215 0 l 0 0 m 0 1042 l 0 1215 l 521 1215 l 521 1042 l 0 1042 z "},"Ё":{"ha":1389,"x_min":0,"x_max":1215,"o":"m 0 0 l 0 174 l 174 174 l 174 694 l 0 694 l 0 868 l 1215 868 l 1215 521 l 1042 521 l 1042 694 l 521 694 l 521 521 l 868 521 l 868 347 l 521 347 l 521 174 l 1042 174 l 1042 347 l 1215 347 l 1215 0 l 0 0 m 694 1042 l 694 1215 l 1042 1215 l 1042 1042 l 694 1042 m 174 1042 l 174 1215 l 521 1215 l 521 1042 l 174 1042 z "},"Ђ":{"ha":1389,"x_min":0,"x_max":1215,"o":"m 0 0 l 0 174 l 174 174 l 174 1042 l 0 1042 l 0 1215 l 868 1215 l 868 1042 l 521 1042 l 521 868 l 1042 868 l 1042 694 l 1215 694 l 1215 174 l 1042 174 l 1042 0 l 694 0 l 694 174 l 868 174 l 868 694 l 521 694 l 521 0 l 0 0 z "},"Ѓ":{"ha":1389,"x_min":0,"x_max":1215,"o":"m 0 0 l 0 174 l 174 174 l 174 694 l 0 694 l 0 868 l 1215 868 l 1215 347 l 1042 347 l 1042 521 l 868 521 l 868 694 l 521 694 l 521 174 l 694 174 l 694 0 l 0 0 m 694 1042 l 694 1215 l 1215 1215 l 1215 1042 l 694 1042 z "},"Є":{"ha":1389,"x_min":0,"x_max":1215,"o":"m 0 347 l 0 868 l 174 868 l 174 1042 l 347 1042 l 347 1215 l 1042 1215 l 1042 1042 l 1215 1042 l 1215 868 l 868 868 l 868 1042 l 521 1042 l 521 868 l 347 868 l 347 694 l 868 694 l 868 521 l 347 521 l 347 347 l 521 347 l 521 174 l 868 174 l 868 347 l 1215 347 l 1215 174 l 1042 174 l 1042 0 l 347 0 l 347 174 l 174 174 l 174 347 l 0 347 z "},"Ѕ":{"ha":1389,"x_min":0,"x_max":1042,"o":"m 0 174 l 0 347 l 347 347 l 347 174 l 694 174 l 694 347 l 521 347 l 521 521 l 347 521 l 347 694 l 174 694 l 174 868 l 0 868 l 0 1042 l 174 1042 l 174 1215 l 868 1215 l 868 1042 l 1042 1042 l 1042 868 l 694 868 l 694 1042 l 347 1042 l 347 868 l 521 868 l 521 694 l 694 694 l 694 521 l 868 521 l 868 347 l 1042 347 l 1042 174 l 868 174 l 868 0 l 174 0 l 174 174 l 0 174 z "},"І":{"ha":1389,"x_min":174,"x_max":868,"o":"m 694 174 l 868 174 l 868 0 l 174 0 l 174 174 l 347 174 l 347 1042 l 174 1042 l 174 1215 l 868 1215 l 868 1042 l 694 1042 l 694 174 z "},"Ї":{"ha":1389,"x_min":0,"x_max":1042,"o":"m 0 1042 l 0 1215 l 347 1215 l 347 1042 l 0 1042 m 174 0 l 174 174 l 347 174 l 347 694 l 174 694 l 174 868 l 868 868 l 868 694 l 694 694 l 694 174 l 868 174 l 868 0 l 174 0 m 694 1042 l 694 1215 l 1042 1215 l 1042 1042 l 694 1042 z "},"Ј":{"ha":1389,"x_min":0,"x_max":1215,"o":"m 0 174 l 0 521 l 347 521 l 347 174 l 694 174 l 694 1042 l 521 1042 l 521 1215 l 1215 1215 l 1215 1042 l 1042 1042 l 1042 174 l 868 174 l 868 0 l 174 0 l 174 174 l 0 174 z "},"Љ":{"ha":1389,"x_min":0,"x_max":1215,"o":"m 0 0 l 0 174 l 174 174 l 174 1042 l 0 1042 l 0 1215 l 868 1215 l 868 868 l 1042 868 l 1042 694 l 868 694 l 868 174 l 1042 174 l 1042 0 l 521 0 l 521 1042 l 347 1042 l 347 0 l 0 0 m 1042 174 l 1042 694 l 1215 694 l 1215 174 l 1042 174 z "},"Њ":{"ha":1389,"x_min":0,"x_max":1215,"o":"m 0 0 l 0 1215 l 347 1215 l 347 694 l 521 694 l 521 1215 l 868 1215 l 868 694 l 1042 694 l 1042 521 l 868 521 l 868 174 l 1042 174 l 1042 0 l 521 0 l 521 521 l 347 521 l 347 0 l 0 0 m 1042 174 l 1042 521 l 1215 521 l 1215 174 l 1042 174 z "},"Ћ":{"ha":1389,"x_min":0,"x_max":1215,"o":"m 0 0 l 0 174 l 174 174 l 174 1042 l 0 1042 l 0 1215 l 868 1215 l 868 1042 l 521 1042 l 521 868 l 1042 868 l 1042 694 l 1215 694 l 1215 0 l 868 0 l 868 694 l 521 694 l 521 0 l 0 0 z "},"Ќ":{"ha":1389,"x_min":0,"x_max":1215,"o":"m 0 0 l 0 174 l 174 174 l 174 868 l 0 868 l 0 1042 l 521 1042 l 521 694 l 694 694 l 694 868 l 868 868 l 868 1042 l 1215 1042 l 1215 868 l 1042 868 l 1042 694 l 868 694 l 868 521 l 1042 521 l 1042 347 l 1215 347 l 1215 0 l 868 0 l 868 347 l 694 347 l 694 521 l 521 521 l 521 0 l 0 0 m 521 1042 l 521 1215 l 868 1215 l 868 1042 l 521 1042 z "},"Ѝ":{"ha":1389,"x_min":0,"x_max":1215,"o":"m 0 0 l 0 868 l 347 868 l 347 347 l 521 347 l 521 521 l 694 521 l 694 694 l 868 694 l 868 868 l 1215 868 l 1215 0 l 868 0 l 868 347 l 694 347 l 694 174 l 521 174 l 521 0 l 0 0 m 0 1042 l 0 1215 l 521 1215 l 521 1042 l 0 1042 z "},"Ў":{"ha":1389,"x_min":0,"x_max":1215,"o":"m 0 868 l 347 868 l 347 521 l 868 521 l 868 868 l 1215 868 l 1215 174 l 1042 174 l 1042 0 l 174 0 l 174 174 l 868 174 l 868 347 l 174 347 l 174 521 l 0 521 l 0 868 m 347 1042 l 347 1215 l 868 1215 l 868 1042 l 347 1042 z "},"Џ":{"ha":1389,"x_min":0,"x_max":1042,"o":"m 0 0 l 0 1215 l 347 1215 l 347 174 l 694 174 l 694 1215 l 1042 1215 l 1042 0 l 694 0 l 694 -174 l 347 -174 l 347 0 l 0 0 z "},"А":{"ha":1389,"x_min":0,"x_max":1042,"o":"m 0 0 l 0 868 l 174 868 l 174 1042 l 347 1042 l 347 1215 l 694 1215 l 694 1042 l 868 1042 l 868 868 l 1042 868 l 1042 0 l 694 0 l 694 347 l 347 347 l 347 0 l 0 0 m 347 868 l 347 521 l 694 521 l 694 868 l 347 868 z "},"Б":{"ha":1389,"x_min":0,"x_max":1215,"o":"m 0 0 l 0 174 l 174 174 l 174 1042 l 0 1042 l 0 1215 l 1215 1215 l 1215 868 l 1042 868 l 1042 1042 l 521 1042 l 521 694 l 1042 694 l 1042 521 l 1215 521 l 1215 174 l 1042 174 l 1042 0 l 0 0 m 521 174 l 868 174 l 868 521 l 521 521 l 521 174 z "},"В":{"ha":1389,"x_min":0,"x_max":1215,"o":"m 0 0 l 0 174 l 174 174 l 174 1042 l 0 1042 l 0 1215 l 1042 1215 l 1042 1042 l 1215 1042 l 1215 694 l 1042 694 l 1042 521 l 1215 521 l 1215 174 l 1042 174 l 1042 0 l 0 0 m 521 174 l 868 174 l 868 521 l 521 521 l 521 174 m 521 694 l 868 694 l 868 1042 l 521 1042 l 521 694 z "},"Г":{"ha":1389,"x_min":0,"x_max":1215,"o":"m 0 0 l 0 174 l 174 174 l 174 1042 l 0 1042 l 0 1215 l 1215 1215 l 1215 694 l 1042 694 l 1042 868 l 868 868 l 868 1042 l 521 1042 l 521 174 l 694 174 l 694 0 l 0 0 z "},"Д":{"ha":1389,"x_min":0,"x_max":1215,"o":"m 0 174 l 174 174 l 174 1042 l 347 1042 l 347 1215 l 1215 1215 l 1215 -174 l 868 -174 l 868 0 l 347 0 l 347 -174 l 0 -174 l 0 174 m 521 174 l 868 174 l 868 1042 l 521 1042 l 521 174 z "},"Е":{"ha":1389,"x_min":0,"x_max":1215,"o":"m 0 0 l 0 174 l 174 174 l 174 1042 l 0 1042 l 0 1215 l 1215 1215 l 1215 868 l 1042 868 l 1042 1042 l 521 1042 l 521 694 l 694 694 l 694 868 l 868 868 l 868 347 l 694 347 l 694 521 l 521 521 l 521 174 l 1042 174 l 1042 347 l 1215 347 l 1215 0 l 0 0 z "},"Ж":{"ha":1389,"x_min":0,"x_max":1215,"o":"m 0 0 l 0 521 l 174 521 l 174 694 l 0 694 l 0 1215 l 347 1215 l 347 694 l 521 694 l 521 1215 l 694 1215 l 694 694 l 868 694 l 868 1215 l 1215 1215 l 1215 694 l 1042 694 l 1042 521 l 1215 521 l 1215 0 l 868 0 l 868 521 l 694 521 l 694 0 l 521 0 l 521 521 l 347 521 l 347 0 l 0 0 z "},"З":{"ha":1389,"x_min":0,"x_max":1042,"o":"m 0 174 l 0 347 l 347 347 l 347 174 l 694 174 l 694 521 l 347 521 l 347 694 l 694 694 l 694 1042 l 347 1042 l 347 868 l 0 868 l 0 1042 l 174 1042 l 174 1215 l 868 1215 l 868 1042 l 1042 1042 l 1042 694 l 868 694 l 868 521 l 1042 521 l 1042 174 l 868 174 l 868 0 l 174 0 l 174 174 l 0 174 z "},"И":{"ha":1389,"x_min":0,"x_max":1215,"o":"m 0 0 l 0 1215 l 347 1215 l 347 521 l 521 521 l 521 694 l 694 694 l 694 868 l 868 868 l 868 1215 l 1215 1215 l 1215 0 l 868 0 l 868 521 l 694 521 l 694 347 l 521 347 l 521 174 l 347 174 l 347 0 l 0 0 z "},"Й":{"ha":1389,"x_min":0,"x_max":1215,"o":"m 0 0 l 0 1042 l 347 1042 l 347 521 l 521 521 l 521 694 l 694 694 l 694 868 l 868 868 l 868 1042 l 1215 1042 l 1215 0 l 868 0 l 868 521 l 694 521 l 694 347 l 521 347 l 521 174 l 347 174 l 347 0 l 0 0 m 347 1042 l 347 1215 l 868 1215 l 868 1042 l 347 1042 z "},"К":{"ha":1389,"x_min":0,"x_max":1215,"o":"m 0 0 l 0 174 l 174 174 l 174 1042 l 0 1042 l 0 1215 l 521 1215 l 521 694 l 694 694 l 694 868 l 868 868 l 868 1215 l 1215 1215 l 1215 868 l 1042 868 l 1042 694 l 868 694 l 868 521 l 1042 521 l 1042 347 l 1215 347 l 1215 0 l 868 0 l 868 347 l 694 347 l 694 521 l 521 521 l 521 0 l 0 0 z "},"Л":{"ha":1389,"x_min":0,"x_max":1215,"o":"m 0 0 l 0 174 l 174 174 l 174 868 l 347 868 l 347 1042 l 521 1042 l 521 1215 l 1215 1215 l 1215 0 l 868 0 l 868 1042 l 694 1042 l 694 868 l 521 868 l 521 174 l 347 174 l 347 0 l 0 0 z "},"М":{"ha":1389,"x_min":0,"x_max":1215,"o":"m 0 0 l 0 1215 l 347 1215 l 347 1042 l 521 1042 l 521 868 l 694 868 l 694 1042 l 868 1042 l 868 1215 l 1215 1215 l 1215 0 l 868 0 l 868 521 l 694 521 l 694 347 l 521 347 l 521 521 l 347 521 l 347 0 l 0 0 z "},"Н":{"ha":1389,"x_min":0,"x_max":1042,"o":"m 0 0 l 0 1215 l 347 1215 l 347 694 l 694 694 l 694 1215 l 1042 1215 l 1042 0 l 694 0 l 694 521 l 347 521 l 347 0 l 0 0 z "},"О":{"ha":1389,"x_min":0,"x_max":1215,"o":"m 0 347 l 0 868 l 174 868 l 174 1042 l 347 1042 l 347 1215 l 868 1215 l 868 1042 l 1042 1042 l 1042 868 l 1215 868 l 1215 347 l 1042 347 l 1042 174 l 868 174 l 868 0 l 347 0 l 347 174 l 174 174 l 174 347 l 0 347 m 347 347 l 521 347 l 521 174 l 694 174 l 694 347 l 868 347 l 868 868 l 694 868 l 694 1042 l 521 1042 l 521 868 l 347 868 l 347 347 z "},"П":{"ha":1389,"x_min":0,"x_max":1042,"o":"m 0 0 l 0 1215 l 1042 1215 l 1042 0 l 694 0 l 694 1042 l 347 1042 l 347 0 l 0 0 z "},"Р":{"ha":1389,"x_min":0,"x_max":1215,"o":"m 0 0 l 0 174 l 174 174 l 174 1042 l 0 1042 l 0 1215 l 1042 1215 l 1042 1042 l 1215 1042 l 1215 694 l 1042 694 l 1042 521 l 521 521 l 521 174 l 694 174 l 694 0 l 0 0 m 521 694 l 868 694 l 868 1042 l 521 1042 l 521 694 z "},"С":{"ha":1389,"x_min":0,"x_max":1215,"o":"m 0 347 l 0 868 l 174 868 l 174 1042 l 347 1042 l 347 1215 l 1042 1215 l 1042 1042 l 1215 1042 l 1215 868 l 868 868 l 868 1042 l 521 1042 l 521 868 l 347 868 l 347 347 l 521 347 l 521 174 l 868 174 l 868 347 l 1215 347 l 1215 174 l 1042 174 l 1042 0 l 347 0 l 347 174 l 174 174 l 174 347 l 0 347 z "},"Т":{"ha":1389,"x_min":0,"x_max":1042,"o":"m 0 868 l 0 1215 l 1042 1215 l 1042 868 l 868 868 l 868 1042 l 694 1042 l 694 174 l 868 174 l 868 0 l 174 0 l 174 174 l 347 174 l 347 1042 l 174 1042 l 174 868 l 0 868 z "},"У":{"ha":1389,"x_min":0,"x_max":1042,"o":"m 0 174 l 0 347 l 347 347 l 347 174 l 694 174 l 694 521 l 174 521 l 174 694 l 0 694 l 0 1215 l 347 1215 l 347 694 l 694 694 l 694 1215 l 1042 1215 l 1042 174 l 868 174 l 868 0 l 174 0 l 174 174 l 0 174 z "},"Ф":{"ha":1389,"x_min":0,"x_max":1215,"o":"m 0 174 l 0 868 l 174 868 l 174 1042 l 521 1042 l 521 1215 l 694 1215 l 694 1042 l 1042 1042 l 1042 868 l 1215 868 l 1215 174 l 1042 174 l 1042 0 l 694 0 l 694 -174 l 521 -174 l 521 0 l 174 0 l 174 174 l 0 174 m 347 174 l 521 174 l 521 868 l 347 868 l 347 174 m 694 174 l 868 174 l 868 868 l 694 868 l 694 174 z "},"Х":{"ha":1389,"x_min":0,"x_max":1215,"o":"m 0 0 l 0 174 l 174 174 l 174 347 l 347 347 l 347 694 l 174 694 l 174 868 l 0 868 l 0 1215 l 347 1215 l 347 868 l 521 868 l 521 694 l 694 694 l 694 868 l 868 868 l 868 1215 l 1215 1215 l 1215 868 l 1042 868 l 1042 694 l 868 694 l 868 347 l 1042 347 l 1042 174 l 1215 174 l 1215 0 l 868 0 l 868 174 l 694 174 l 694 347 l 521 347 l 521 174 l 347 174 l 347 0 l 0 0 z "},"Ц":{"ha":1389,"x_min":0,"x_max":1215,"o":"m 0 0 l 0 1215 l 347 1215 l 347 174 l 694 174 l 694 1215 l 1042 1215 l 1042 174 l 1215 174 l 1215 -174 l 868 -174 l 868 0 l 0 0 z "},"Ч":{"ha":1389,"x_min":0,"x_max":1042,"o":"m 694 0 l 694 521 l 174 521 l 174 694 l 0 694 l 0 1215 l 347 1215 l 347 694 l 694 694 l 694 1215 l 1042 1215 l 1042 0 l 694 0 z "},"Ш":{"ha":1389,"x_min":0,"x_max":1215,"o":"m 0 0 l 0 1215 l 347 1215 l 347 174 l 521 174 l 521 1215 l 694 1215 l 694 174 l 868 174 l 868 1215 l 1215 1215 l 1215 0 l 0 0 z "},"Щ":{"ha":1389,"x_min":0,"x_max":1215,"o":"m 0 0 l 0 1215 l 347 1215 l 347 174 l 521 174 l 521 1215 l 694 1215 l 694 174 l 868 174 l 868 1215 l 1215 1215 l 1215 -174 l 868 -174 l 868 0 l 0 0 z "},"Ъ":{"ha":1389,"x_min":0,"x_max":1215,"o":"m 0 1042 l 0 1215 l 521 1215 l 521 694 l 1042 694 l 1042 521 l 1215 521 l 1215 174 l 1042 174 l 1042 0 l 174 0 l 174 1042 l 0 1042 m 521 174 l 868 174 l 868 521 l 521 521 l 521 174 z "},"Ы":{"ha":1389,"x_min":0,"x_max":1215,"o":"m 0 0 l 0 1215 l 347 1215 l 347 694 l 694 694 l 694 521 l 868 521 l 868 174 l 694 174 l 694 0 l 0 0 m 347 174 l 521 174 l 521 521 l 347 521 l 347 174 m 868 174 l 1042 174 l 1042 521 l 868 521 l 868 1215 l 1215 1215 l 1215 0 l 868 0 l 868 174 z "},"Ь":{"ha":1389,"x_min":0,"x_max":1042,"o":"m 0 0 l 0 1215 l 347 1215 l 347 694 l 868 694 l 868 521 l 1042 521 l 1042 174 l 868 174 l 868 0 l 0 0 m 347 174 l 694 174 l 694 521 l 347 521 l 347 174 z "},"Э":{"ha":1389,"x_min":0,"x_max":1215,"o":"m 0 0 l 0 174 l 694 174 l 694 347 l 868 347 l 868 521 l 347 521 l 347 694 l 868 694 l 868 868 l 694 868 l 694 1042 l 0 1042 l 0 1215 l 868 1215 l 868 1042 l 1042 1042 l 1042 868 l 1215 868 l 1215 347 l 1042 347 l 1042 174 l 868 174 l 868 0 l 0 0 z "},"Ю":{"ha":1389,"x_min":0,"x_max":1215,"o":"m 0 0 l 0 1215 l 347 1215 l 347 694 l 521 694 l 521 1042 l 694 1042 l 694 174 l 521 174 l 521 521 l 347 521 l 347 0 l 0 0 m 694 174 l 868 174 l 868 1042 l 694 1042 l 694 1215 l 1042 1215 l 1042 1042 l 1215 1042 l 1215 174 l 1042 174 l 1042 0 l 694 0 l 694 174 z "},"Я":{"ha":1389,"x_min":0,"x_max":1215,"o":"m 0 347 l 174 347 l 174 694 l 0 694 l 0 1042 l 174 1042 l 174 1215 l 1215 1215 l 1215 1042 l 1042 1042 l 1042 174 l 1215 174 l 1215 0 l 694 0 l 694 521 l 521 521 l 521 347 l 347 347 l 347 0 l 0 0 l 0 347 m 347 694 l 694 694 l 694 1042 l 347 1042 l 347 694 z "},"а":{"ha":1389,"x_min":0,"x_max":1215,"o":"m 0 174 l 0 347 l 174 347 l 174 521 l 694 521 l 694 694 l 174 694 l 174 868 l 868 868 l 868 694 l 1042 694 l 1042 174 l 1215 174 l 1215 0 l 868 0 l 868 174 l 694 174 l 694 347 l 347 347 l 347 174 l 694 174 l 694 0 l 174 0 l 174 174 l 0 174 z "},"б":{"ha":1389,"x_min":0,"x_max":1215,"o":"m 0 0 l 0 174 l 174 174 l 174 694 l 0 694 l 0 868 l 1215 868 l 1215 694 l 521 694 l 521 521 l 1042 521 l 1042 347 l 1215 347 l 1215 174 l 1042 174 l 1042 0 l 0 0 m 521 347 l 521 174 l 868 174 l 868 347 l 521 347 z "},"в":{"ha":1389,"x_min":0,"x_max":1215,"o":"m 0 0 l 0 174 l 174 174 l 174 694 l 0 694 l 0 868 l 1042 868 l 1042 694 l 1215 694 l 1215 521 l 1042 521 l 1042 347 l 1215 347 l 1215 174 l 1042 174 l 1042 0 l 0 0 m 521 347 l 521 174 l 868 174 l 868 347 l 521 347 m 521 694 l 521 521 l 868 521 l 868 694 l 521 694 z "},"г":{"ha":1389,"x_min":0,"x_max":1215,"o":"m 0 0 l 0 174 l 174 174 l 174 694 l 0 694 l 0 868 l 1215 868 l 1215 521 l 868 521 l 868 694 l 521 694 l 521 174 l 694 174 l 694 0 l 0 0 z "},"д":{"ha":1389,"x_min":0,"x_max":1215,"o":"m 0 174 l 174 174 l 174 694 l 347 694 l 347 868 l 1215 868 l 1215 -174 l 868 -174 l 868 0 l 347 0 l 347 -174 l 0 -174 l 0 174 m 521 174 l 868 174 l 868 694 l 521 694 l 521 174 z "},"е":{"ha":1389,"x_min":0,"x_max":1042,"o":"m 0 174 l 0 694 l 174 694 l 174 868 l 868 868 l 868 694 l 1042 694 l 1042 347 l 347 347 l 347 174 l 868 174 l 868 0 l 174 0 l 174 174 l 0 174 m 347 694 l 347 521 l 694 521 l 694 694 l 347 694 z "},"ж":{"ha":1389,"x_min":0,"x_max":1215,"o":"m 0 347 l 174 347 l 174 521 l 0 521 l 0 868 l 347 868 l 347 521 l 521 521 l 521 868 l 694 868 l 694 521 l 868 521 l 868 868 l 1215 868 l 1215 521 l 1042 521 l 1042 347 l 1215 347 l 1215 0 l 868 0 l 868 347 l 694 347 l 694 0 l 521 0 l 521 347 l 347 347 l 347 0 l 0 0 l 0 347 z "},"з":{"ha":1389,"x_min":0,"x_max":1215,"o":"m 0 174 l 0 347 l 347 347 l 347 174 l 868 174 l 868 347 l 521 347 l 521 521 l 868 521 l 868 694 l 347 694 l 347 521 l 0 521 l 0 694 l 174 694 l 174 868 l 1042 868 l 1042 694 l 1215 694 l 1215 521 l 1042 521 l 1042 347 l 1215 347 l 1215 174 l 1042 174 l 1042 0 l 174 0 l 174 174 l 0 174 z "},"и":{"ha":1389,"x_min":0,"x_max":1215,"o":"m 0 0 l 0 868 l 347 868 l 347 347 l 521 347 l 521 521 l 694 521 l 694 694 l 868 694 l 868 868 l 1215 868 l 1215 0 l 868 0 l 868 347 l 694 347 l 694 174 l 521 174 l 521 0 l 0 0 z "},"й":{"ha":1389,"x_min":0,"x_max":1215,"o":"m 0 0 l 0 868 l 347 868 l 347 347 l 521 347 l 521 521 l 694 521 l 694 694 l 868 694 l 868 868 l 1215 868 l 1215 0 l 868 0 l 868 347 l 694 347 l 694 174 l 521 174 l 521 0 l 0 0 m 347 868 l 347 1042 l 868 1042 l 868 868 l 347 868 z "},"к":{"ha":1389,"x_min":0,"x_max":1215,"o":"m 0 0 l 0 174 l 174 174 l 174 694 l 0 694 l 0 868 l 521 868 l 521 521 l 694 521 l 694 694 l 868 694 l 868 868 l 1215 868 l 1215 694 l 1042 694 l 1042 521 l 868 521 l 868 347 l 1042 347 l 1042 174 l 1215 174 l 1215 0 l 868 0 l 868 174 l 694 174 l 694 347 l 521 347 l 521 0 l 0 0 z "},"л":{"ha":1389,"x_min":0,"x_max":1215,"o":"m 0 0 l 0 174 l 174 174 l 174 521 l 347 521 l 347 694 l 521 694 l 521 868 l 1215 868 l 1215 0 l 868 0 l 868 694 l 694 694 l 694 521 l 521 521 l 521 174 l 347 174 l 347 0 l 0 0 z "},"м":{"ha":1389,"x_min":0,"x_max":1215,"o":"m 0 0 l 0 868 l 347 868 l 347 694 l 521 694 l 521 521 l 694 521 l 694 694 l 868 694 l 868 868 l 1215 868 l 1215 0 l 868 0 l 868 347 l 694 347 l 694 174 l 521 174 l 521 347 l 347 347 l 347 0 l 0 0 z "},"н":{"ha":1389,"x_min":0,"x_max":1042,"o":"m 0 0 l 0 868 l 347 868 l 347 521 l 694 521 l 694 868 l 1042 868 l 1042 0 l 694 0 l 694 347 l 347 347 l 347 0 l 0 0 z "},"о":{"ha":1389,"x_min":0,"x_max":1042,"o":"m 0 174 l 0 694 l 174 694 l 174 868 l 868 868 l 868 694 l 1042 694 l 1042 174 l 868 174 l 868 0 l 174 0 l 174 174 l 0 174 m 347 174 l 694 174 l 694 694 l 347 694 l 347 174 z "},"п":{"ha":1389,"x_min":0,"x_max":1042,"o":"m 0 0 l 0 868 l 1042 868 l 1042 0 l 694 0 l 694 694 l 347 694 l 347 0 l 0 0 z "},"р":{"ha":1389,"x_min":0,"x_max":1215,"o":"m 0 -174 l 0 0 l 174 0 l 174 694 l 0 694 l 0 868 l 347 868 l 347 694 l 521 694 l 521 347 l 868 347 l 868 694 l 521 694 l 521 868 l 1042 868 l 1042 694 l 1215 694 l 1215 347 l 1042 347 l 1042 174 l 521 174 l 521 0 l 694 0 l 694 -174 l 0 -174 z "},"с":{"ha":1389,"x_min":0,"x_max":1042,"o":"m 0 174 l 0 694 l 174 694 l 174 868 l 868 868 l 868 694 l 1042 694 l 1042 521 l 694 521 l 694 694 l 347 694 l 347 174 l 694 174 l 694 347 l 1042 347 l 1042 174 l 868 174 l 868 0 l 174 0 l 174 174 l 0 174 z "},"т":{"ha":1389,"x_min":0,"x_max":1042,"o":"m 0 868 l 1042 868 l 1042 521 l 868 521 l 868 694 l 694 694 l 694 174 l 868 174 l 868 0 l 174 0 l 174 174 l 347 174 l 347 694 l 174 694 l 174 521 l 0 521 l 0 868 z "},"у":{"ha":1389,"x_min":0,"x_max":1042,"o":"m 0 -174 l 0 0 l 694 0 l 694 174 l 174 174 l 174 347 l 0 347 l 0 868 l 347 868 l 347 347 l 694 347 l 694 868 l 1042 868 l 1042 0 l 868 0 l 868 -174 l 0 -174 z "},"ф":{"ha":1389,"x_min":0,"x_max":1215,"o":"m 0 347 l 0 694 l 174 694 l 174 868 l 521 868 l 521 1042 l 694 1042 l 694 868 l 1042 868 l 1042 694 l 1215 694 l 1215 347 l 1042 347 l 1042 174 l 694 174 l 694 0 l 868 0 l 868 -174 l 347 -174 l 347 0 l 521 0 l 521 174 l 174 174 l 174 347 l 0 347 m 347 347 l 521 347 l 521 694 l 347 694 l 347 347 m 694 347 l 868 347 l 868 694 l 694 694 l 694 347 z "},"х":{"ha":1389,"x_min":0,"x_max":1215,"o":"m 0 0 l 0 174 l 174 174 l 174 347 l 347 347 l 347 521 l 174 521 l 174 694 l 0 694 l 0 868 l 347 868 l 347 694 l 521 694 l 521 521 l 694 521 l 694 694 l 868 694 l 868 868 l 1215 868 l 1215 694 l 1042 694 l 1042 521 l 868 521 l 868 347 l 1042 347 l 1042 174 l 1215 174 l 1215 0 l 868 0 l 868 174 l 694 174 l 694 347 l 521 347 l 521 174 l 347 174 l 347 0 l 0 0 z "},"ц":{"ha":1389,"x_min":0,"x_max":1215,"o":"m 0 0 l 0 868 l 347 868 l 347 174 l 694 174 l 694 868 l 1042 868 l 1042 174 l 1215 174 l 1215 -174 l 868 -174 l 868 0 l 0 0 z "},"ч":{"ha":1389,"x_min":0,"x_max":1042,"o":"m 694 347 l 174 347 l 174 521 l 0 521 l 0 868 l 347 868 l 347 521 l 694 521 l 694 868 l 1042 868 l 1042 0 l 694 0 l 694 347 z "},"ш":{"ha":1389,"x_min":0,"x_max":1215,"o":"m 0 0 l 0 868 l 347 868 l 347 174 l 521 174 l 521 868 l 694 868 l 694 174 l 868 174 l 868 868 l 1215 868 l 1215 0 l 0 0 z "},"щ":{"ha":1389,"x_min":0,"x_max":1215,"o":"m 0 0 l 0 868 l 347 868 l 347 174 l 521 174 l 521 868 l 694 868 l 694 174 l 868 174 l 868 868 l 1215 868 l 1215 -174 l 868 -174 l 868 0 l 0 0 z "},"ъ":{"ha":1389,"x_min":0,"x_max":1215,"o":"m 0 694 l 0 868 l 521 868 l 521 521 l 1042 521 l 1042 347 l 1215 347 l 1215 174 l 1042 174 l 1042 0 l 174 0 l 174 694 l 0 694 m 521 347 l 521 174 l 868 174 l 868 347 l 521 347 z "},"ы":{"ha":1389,"x_min":0,"x_max":1215,"o":"m 0 0 l 0 868 l 347 868 l 347 521 l 694 521 l 694 347 l 868 347 l 868 174 l 694 174 l 694 0 l 0 0 m 347 347 l 347 174 l 521 174 l 521 347 l 347 347 m 868 347 l 868 868 l 1215 868 l 1215 0 l 868 0 l 868 174 l 1042 174 l 1042 347 l 868 347 z "},"ь":{"ha":1389,"x_min":0,"x_max":1042,"o":"m 0 0 l 0 868 l 347 868 l 347 521 l 868 521 l 868 347 l 1042 347 l 1042 174 l 868 174 l 868 0 l 0 0 m 347 347 l 347 174 l 694 174 l 694 347 l 347 347 z "},"э":{"ha":1389,"x_min":0,"x_max":1215,"o":"m 0 174 l 0 347 l 347 347 l 347 174 l 868 174 l 868 347 l 521 347 l 521 521 l 868 521 l 868 694 l 347 694 l 347 521 l 0 521 l 0 694 l 174 694 l 174 868 l 1042 868 l 1042 694 l 1215 694 l 1215 174 l 1042 174 l 1042 0 l 174 0 l 174 174 l 0 174 z "},"ю":{"ha":1389,"x_min":0,"x_max":1215,"o":"m 0 0 l 0 868 l 347 868 l 347 521 l 521 521 l 521 694 l 694 694 l 694 174 l 521 174 l 521 347 l 347 347 l 347 0 l 0 0 m 694 174 l 868 174 l 868 694 l 694 694 l 694 868 l 1042 868 l 1042 694 l 1215 694 l 1215 174 l 1042 174 l 1042 0 l 694 0 l 694 174 z "},"я":{"ha":1389,"x_min":0,"x_max":1215,"o":"m 0 0 l 0 174 l 174 174 l 174 521 l 0 521 l 0 694 l 174 694 l 174 868 l 1215 868 l 1215 694 l 1042 694 l 1042 174 l 1215 174 l 1215 0 l 694 0 l 694 347 l 521 347 l 521 174 l 347 174 l 347 0 l 0 0 m 347 694 l 347 521 l 694 521 l 694 694 l 347 694 z "},"ѐ":{"ha":1389,"x_min":0,"x_max":1042,"o":"m 0 174 l 0 694 l 174 694 l 174 868 l 868 868 l 868 694 l 1042 694 l 1042 347 l 347 347 l 347 174 l 868 174 l 868 0 l 174 0 l 174 174 l 0 174 m 0 1042 l 0 1215 l 521 1215 l 521 1042 l 0 1042 m 347 694 l 347 521 l 694 521 l 694 694 l 347 694 z "},"ё":{"ha":1389,"x_min":0,"x_max":1042,"o":"m 0 174 l 0 694 l 174 694 l 174 868 l 868 868 l 868 694 l 1042 694 l 1042 347 l 347 347 l 347 174 l 868 174 l 868 0 l 174 0 l 174 174 l 0 174 m 347 694 l 347 521 l 694 521 l 694 694 l 347 694 m 694 1042 l 694 1215 l 1042 1215 l 1042 1042 l 694 1042 m 174 1042 l 174 1215 l 521 1215 l 521 1042 l 174 1042 z "},"ђ":{"ha":1389,"x_min":0,"x_max":1215,"o":"m 0 0 l 0 174 l 174 174 l 174 868 l 0 868 l 0 1042 l 174 1042 l 174 1215 l 521 1215 l 521 1042 l 694 1042 l 694 868 l 521 868 l 521 521 l 694 521 l 694 347 l 521 347 l 521 0 l 0 0 m 694 -174 l 694 0 l 868 0 l 868 521 l 694 521 l 694 694 l 1042 694 l 1042 521 l 1215 521 l 1215 0 l 1042 0 l 1042 -174 l 694 -174 z "},"ѓ":{"ha":1389,"x_min":0,"x_max":1215,"o":"m 0 0 l 0 174 l 174 174 l 174 521 l 0 521 l 0 694 l 1215 694 l 1215 347 l 868 347 l 868 521 l 521 521 l 521 174 l 694 174 l 694 0 l 0 0 m 694 868 l 694 1042 l 1215 1042 l 1215 868 l 694 868 z "},"є":{"ha":1389,"x_min":0,"x_max":1215,"o":"m 0 174 l 0 694 l 174 694 l 174 868 l 1042 868 l 1042 694 l 1215 694 l 1215 521 l 868 521 l 868 694 l 347 694 l 347 521 l 694 521 l 694 347 l 347 347 l 347 174 l 868 174 l 868 347 l 1215 347 l 1215 174 l 1042 174 l 1042 0 l 174 0 l 174 174 l 0 174 z "},"ѕ":{"ha":1389,"x_min":0,"x_max":1042,"o":"m 0 0 l 0 174 l 694 174 l 694 347 l 174 347 l 174 521 l 0 521 l 0 694 l 174 694 l 174 868 l 1042 868 l 1042 694 l 347 694 l 347 521 l 868 521 l 868 347 l 1042 347 l 1042 174 l 868 174 l 868 0 l 0 0 z "},"і":{"ha":1389,"x_min":174,"x_max":868,"o":"m 174 0 l 174 174 l 347 174 l 347 694 l 174 694 l 174 868 l 694 868 l 694 174 l 868 174 l 868 0 l 174 0 m 347 1042 l 347 1215 l 694 1215 l 694 1042 l 347 1042 z "},"ї":{"ha":1389,"x_min":0,"x_max":1042,"o":"m 0 1042 l 0 1215 l 347 1215 l 347 1042 l 0 1042 m 174 0 l 174 174 l 347 174 l 347 694 l 174 694 l 174 868 l 694 868 l 694 174 l 868 174 l 868 0 l 174 0 m 694 1042 l 694 1215 l 1042 1215 l 1042 1042 l 694 1042 z "},"ј":{"ha":1389,"x_min":0,"x_max":1042,"o":"m 0 347 l 347 347 l 347 0 l 694 0 l 694 868 l 1042 868 l 1042 0 l 868 0 l 868 -174 l 174 -174 l 174 0 l 0 0 l 0 347 m 694 1042 l 694 1215 l 1042 1215 l 1042 1042 l 694 1042 z "},"љ":{"ha":1389,"x_min":0,"x_max":1215,"o":"m 0 0 l 0 174 l 174 174 l 174 694 l 0 694 l 0 868 l 868 868 l 868 521 l 1042 521 l 1042 347 l 868 347 l 868 174 l 1042 174 l 1042 0 l 521 0 l 521 694 l 347 694 l 347 0 l 0 0 m 1042 347 l 1215 347 l 1215 174 l 1042 174 l 1042 347 z "},"њ":{"ha":1389,"x_min":0,"x_max":1215,"o":"m 0 0 l 0 868 l 347 868 l 347 521 l 521 521 l 521 868 l 868 868 l 868 521 l 1042 521 l 1042 347 l 868 347 l 868 174 l 1042 174 l 1042 0 l 521 0 l 521 347 l 347 347 l 347 0 l 0 0 m 1042 347 l 1215 347 l 1215 174 l 1042 174 l 1042 347 z "},"ћ":{"ha":1389,"x_min":0,"x_max":1215,"o":"m 0 0 l 0 174 l 174 174 l 174 868 l 0 868 l 0 1042 l 174 1042 l 174 1215 l 521 1215 l 521 1042 l 694 1042 l 694 868 l 521 868 l 521 521 l 694 521 l 694 347 l 521 347 l 521 0 l 0 0 m 694 521 l 694 694 l 1042 694 l 1042 521 l 1215 521 l 1215 0 l 868 0 l 868 521 l 694 521 z "},"ќ":{"ha":1389,"x_min":0,"x_max":1215,"o":"m 0 0 l 0 174 l 174 174 l 174 694 l 0 694 l 0 868 l 521 868 l 521 521 l 694 521 l 694 694 l 868 694 l 868 868 l 1215 868 l 1215 694 l 1042 694 l 1042 521 l 868 521 l 868 347 l 1042 347 l 1042 174 l 1215 174 l 1215 0 l 868 0 l 868 174 l 694 174 l 694 347 l 521 347 l 521 0 l 0 0 m 694 1042 l 694 1215 l 1215 1215 l 1215 1042 l 694 1042 z "},"ѝ":{"ha":1389,"x_min":0,"x_max":1042,"o":"m 0 0 l 0 694 l 347 694 l 347 347 l 521 347 l 521 521 l 694 521 l 694 694 l 1042 694 l 1042 0 l 694 0 l 694 174 l 521 174 l 521 0 l 0 0 m 0 868 l 0 1042 l 521 1042 l 521 868 l 0 868 z "},"ў":{"ha":1389,"x_min":0,"x_max":1042,"o":"m 0 -174 l 0 0 l 694 0 l 694 174 l 174 174 l 174 347 l 0 347 l 0 868 l 347 868 l 347 347 l 694 347 l 694 868 l 1042 868 l 1042 0 l 868 0 l 868 -174 l 0 -174 m 347 1042 l 347 1215 l 694 1215 l 694 1042 l 347 1042 z "},"џ":{"ha":1389,"x_min":0,"x_max":1042,"o":"m 0 0 l 0 868 l 347 868 l 347 174 l 694 174 l 694 868 l 1042 868 l 1042 0 l 694 0 l 694 -174 l 347 -174 l 347 0 l 0 0 z "},"Ґ":{"ha":1389,"x_min":0,"x_max":1215,"o":"m 0 0 l 0 174 l 174 174 l 174 868 l 0 868 l 0 1042 l 868 1042 l 868 1215 l 1215 1215 l 1215 868 l 521 868 l 521 174 l 694 174 l 694 0 l 0 0 z "},"ґ":{"ha":1389,"x_min":0,"x_max":1215,"o":"m 0 0 l 0 174 l 174 174 l 174 694 l 0 694 l 0 868 l 868 868 l 868 1042 l 1215 1042 l 1215 694 l 521 694 l 521 174 l 694 174 l 694 0 l 0 0 z "},"־":{"ha":1389,"x_min":174,"x_max":1215,"o":"m 174 1042 l 174 1215 l 1215 1215 l 1215 1042 l 174 1042 z "},"א":{"ha":1389,"x_min":0,"x_max":1215,"o":"m 0 0 l 0 694 l 174 694 l 174 1042 l 0 1042 l 0 1215 l 347 1215 l 347 1042 l 521 1042 l 521 694 l 347 694 l 347 0 l 0 0 m 694 347 l 694 521 l 868 521 l 868 1215 l 1215 1215 l 1215 521 l 1042 521 l 1042 347 l 1215 347 l 1215 0 l 868 0 l 868 347 l 694 347 m 694 694 l 694 521 l 521 521 l 521 694 l 694 694 z "},"ב":{"ha":1389,"x_min":0,"x_max":1215,"o":"m 0 0 l 0 174 l 694 174 l 694 1042 l 0 1042 l 0 1215 l 868 1215 l 868 1042 l 1042 1042 l 1042 174 l 1215 174 l 1215 0 l 0 0 z "},"ג":{"ha":1389,"x_min":174,"x_max":1042,"o":"m 174 0 l 174 174 l 347 174 l 347 347 l 521 347 l 521 521 l 694 521 l 694 1042 l 347 1042 l 347 1215 l 868 1215 l 868 1042 l 1042 1042 l 1042 0 l 694 0 l 694 174 l 521 174 l 521 0 l 174 0 z "},"ד":{"ha":1389,"x_min":0,"x_max":1215,"o":"m 694 0 l 694 1042 l 0 1042 l 0 1215 l 1215 1215 l 1215 1042 l 1042 1042 l 1042 0 l 694 0 z "},"ה":{"ha":1389,"x_min":0,"x_max":1215,"o":"m 0 0 l 0 694 l 347 694 l 347 0 l 0 0 m 0 1042 l 0 1215 l 1042 1215 l 1042 1042 l 1215 1042 l 1215 0 l 868 0 l 868 1042 l 0 1042 z "},"ו":{"ha":1389,"x_min":174,"x_max":868,"o":"m 694 1215 l 694 1042 l 868 1042 l 868 0 l 521 0 l 521 1042 l 174 1042 l 174 1215 l 694 1215 z "},"ז":{"ha":1389,"x_min":347,"x_max":1042,"o":"m 347 0 l 347 174 l 521 174 l 521 347 l 694 347 l 694 694 l 521 694 l 521 1042 l 347 1042 l 347 1215 l 1042 1215 l 1042 1042 l 868 1042 l 868 694 l 1042 694 l 1042 347 l 868 347 l 868 174 l 694 174 l 694 0 l 347 0 z "},"ח":{"ha":1389,"x_min":0,"x_max":1215,"o":"m 0 0 l 0 1215 l 1042 1215 l 1042 1042 l 1215 1042 l 1215 0 l 868 0 l 868 1042 l 347 1042 l 347 0 l 0 0 z "},"ט":{"ha":1389,"x_min":0,"x_max":1215,"o":"m 0 0 l 0 1215 l 347 1215 l 347 174 l 694 174 l 694 347 l 868 347 l 868 1042 l 694 1042 l 694 1215 l 1042 1215 l 1042 1042 l 1215 1042 l 1215 347 l 1042 347 l 1042 174 l 868 174 l 868 0 l 0 0 m 521 694 l 521 1042 l 694 1042 l 694 694 l 521 694 z "},"י":{"ha":1389,"x_min":347,"x_max":1215,"o":"m 694 521 l 694 694 l 868 694 l 868 1042 l 347 1042 l 347 1215 l 1042 1215 l 1042 1042 l 1215 1042 l 1215 694 l 1042 694 l 1042 521 l 694 521 z "},"ך":{"ha":1389,"x_min":0,"x_max":1215,"o":"m 694 -174 l 694 868 l 868 868 l 868 1042 l 0 1042 l 0 1215 l 1215 1215 l 1215 868 l 1042 868 l 1042 -174 l 694 -174 z "},"כ":{"ha":1389,"x_min":0,"x_max":1042,"o":"m 0 0 l 0 174 l 694 174 l 694 1042 l 0 1042 l 0 1215 l 1042 1215 l 1042 0 l 0 0 z "},"ל":{"ha":1389,"x_min":0,"x_max":1215,"o":"m 0 868 l 0 1215 l 347 1215 l 347 1042 l 1042 1042 l 1042 868 l 1215 868 l 1215 521 l 1042 521 l 1042 347 l 868 347 l 868 174 l 694 174 l 694 0 l 347 0 l 347 174 l 521 174 l 521 347 l 694 347 l 694 521 l 868 521 l 868 868 l 0 868 z "},"ם":{"ha":1389,"x_min":0,"x_max":1215,"o":"m 0 0 l 0 868 l 174 868 l 174 1042 l 0 1042 l 0 1215 l 1042 1215 l 1042 1042 l 1215 1042 l 1215 0 l 0 0 m 347 174 l 868 174 l 868 1042 l 521 1042 l 521 868 l 347 868 l 347 174 z "},"מ":{"ha":1389,"x_min":0,"x_max":1215,"o":"m 0 0 l 0 694 l 174 694 l 174 1042 l 0 1042 l 0 1215 l 347 1215 l 347 1042 l 521 1042 l 521 1215 l 1215 1215 l 1215 0 l 521 0 l 521 174 l 868 174 l 868 868 l 521 868 l 521 694 l 347 694 l 347 0 l 0 0 z "},"ן":{"ha":1389,"x_min":521,"x_max":1215,"o":"m 694 -174 l 694 868 l 868 868 l 868 1042 l 521 1042 l 521 1215 l 1042 1215 l 1042 1042 l 1215 1042 l 1215 868 l 1042 868 l 1042 -174 l 694 -174 z "},"נ":{"ha":1389,"x_min":174,"x_max":868,"o":"m 694 1215 l 694 1042 l 868 1042 l 868 0 l 174 0 l 174 174 l 521 174 l 521 1042 l 347 1042 l 347 1215 l 694 1215 z "},"ס":{"ha":1389,"x_min":0,"x_max":1215,"o":"m 0 347 l 0 868 l 174 868 l 174 1042 l 0 1042 l 0 1215 l 1042 1215 l 1042 1042 l 1215 1042 l 1215 347 l 1042 347 l 1042 174 l 868 174 l 868 0 l 347 0 l 347 174 l 174 174 l 174 347 l 0 347 m 347 347 l 521 347 l 521 174 l 694 174 l 694 347 l 868 347 l 868 1042 l 521 1042 l 521 868 l 347 868 l 347 347 z "},"ע":{"ha":1389,"x_min":0,"x_max":1215,"o":"m 0 0 l 0 174 l 174 174 l 174 1215 l 521 1215 l 521 174 l 694 174 l 694 347 l 868 347 l 868 1215 l 1215 1215 l 1215 347 l 1042 347 l 1042 174 l 868 174 l 868 0 l 0 0 z "},"ף":{"ha":1389,"x_min":0,"x_max":1215,"o":"m 0 1042 l 0 1215 l 1042 1215 l 1042 1042 l 1215 1042 l 1215 -174 l 868 -174 l 868 1042 l 521 1042 l 521 694 l 694 694 l 694 521 l 174 521 l 174 1042 l 0 1042 z "},"פ":{"ha":1389,"x_min":0,"x_max":1215,"o":"m 0 0 l 0 174 l 868 174 l 868 1042 l 521 1042 l 521 694 l 694 694 l 694 521 l 174 521 l 174 1042 l 0 1042 l 0 1215 l 1042 1215 l 1042 1042 l 1215 1042 l 1215 0 l 0 0 z "},"ץ":{"ha":1389,"x_min":0,"x_max":1215,"o":"m 0 1042 l 0 1215 l 347 1215 l 347 1042 l 521 1042 l 521 694 l 694 694 l 694 868 l 868 868 l 868 1215 l 1215 1215 l 1215 868 l 1042 868 l 1042 694 l 868 694 l 868 521 l 694 521 l 694 -174 l 347 -174 l 347 694 l 174 694 l 174 1042 l 0 1042 z "},"צ":{"ha":1389,"x_min":0,"x_max":1215,"o":"m 0 0 l 0 174 l 868 174 l 868 347 l 694 347 l 694 521 l 521 521 l 521 694 l 347 694 l 347 868 l 174 868 l 174 1042 l 0 1042 l 0 1215 l 347 1215 l 347 1042 l 521 1042 l 521 868 l 694 868 l 694 694 l 868 694 l 868 1215 l 1215 1215 l 1215 694 l 1042 694 l 1042 347 l 1215 347 l 1215 0 l 0 0 z "},"ק":{"ha":1389,"x_min":0,"x_max":1215,"o":"m 0 1042 l 0 1215 l 1042 1215 l 1042 1042 l 1215 1042 l 1215 521 l 1042 521 l 1042 347 l 868 347 l 868 174 l 694 174 l 694 521 l 868 521 l 868 1042 l 0 1042 m 174 -174 l 174 694 l 521 694 l 521 -174 l 174 -174 z "},"ר":{"ha":1389,"x_min":0,"x_max":1215,"o":"m 0 1042 l 0 1215 l 1042 1215 l 1042 1042 l 1215 1042 l 1215 0 l 868 0 l 868 1042 l 0 1042 z "},"ש":{"ha":1389,"x_min":0,"x_max":1215,"o":"m 0 0 l 0 1215 l 347 1215 l 347 521 l 521 521 l 521 347 l 347 347 l 347 174 l 694 174 l 694 347 l 868 347 l 868 1215 l 1215 1215 l 1215 347 l 1042 347 l 1042 174 l 868 174 l 868 0 l 0 0 m 521 521 l 521 1215 l 694 1215 l 694 521 l 521 521 z "},"ת":{"ha":1389,"x_min":0,"x_max":1215,"o":"m 0 0 l 0 174 l 174 174 l 174 1042 l 0 1042 l 0 1215 l 1042 1215 l 1042 1042 l 1215 1042 l 1215 0 l 868 0 l 868 1042 l 521 1042 l 521 0 l 0 0 z "},"װ":{"ha":1389,"x_min":0,"x_max":1215,"o":"m 0 1042 l 0 1215 l 347 1215 l 347 1042 l 521 1042 l 521 0 l 174 0 l 174 1042 l 0 1042 m 694 1042 l 694 1215 l 1042 1215 l 1042 1042 l 1215 1042 l 1215 0 l 868 0 l 868 1042 l 694 1042 z "},"ױ":{"ha":1389,"x_min":0,"x_max":1215,"o":"m 0 1042 l 0 1215 l 347 1215 l 347 1042 l 521 1042 l 521 521 l 174 521 l 174 1042 l 0 1042 m 694 1042 l 694 1215 l 1042 1215 l 1042 1042 l 1215 1042 l 1215 0 l 868 0 l 868 1042 l 694 1042 z "},"ײ":{"ha":1389,"x_min":0,"x_max":1215,"o":"m 0 1042 l 0 1215 l 347 1215 l 347 1042 l 521 1042 l 521 521 l 174 521 l 174 1042 l 0 1042 m 694 1042 l 694 1215 l 1042 1215 l 1042 1042 l 1215 1042 l 1215 521 l 868 521 l 868 1042 l 694 1042 z "},"׳":{"ha":1389,"x_min":347,"x_max":868,"o":"m 694 868 l 694 694 l 347 694 l 347 868 l 521 868 l 521 1215 l 868 1215 l 868 868 l 694 868 z "},"״":{"ha":1389,"x_min":0,"x_max":1215,"o":"m 0 694 l 0 868 l 174 868 l 174 1215 l 521 1215 l 521 868 l 347 868 l 347 694 l 0 694 m 694 694 l 694 868 l 868 868 l 868 1215 l 1215 1215 l 1215 868 l 1042 868 l 1042 694 l 694 694 z "},"ᴛ":{"ha":1389,"x_min":0,"x_max":1215,"o":"m 0 694 l 0 868 l 174 868 l 174 1042 l 694 1042 l 694 868 l 868 868 l 868 1042 l 1215 1042 l 1215 868 l 1042 868 l 1042 694 l 868 694 l 868 0 l 521 0 l 521 868 l 347 868 l 347 694 l 0 694 z "},"ᴦ":{"ha":1389,"x_min":0,"x_max":1042,"o":"m 0 0 l 0 1042 l 1042 1042 l 1042 694 l 694 694 l 694 868 l 347 868 l 347 0 l 0 0 z "},"ᴨ":{"ha":1389,"x_min":0,"x_max":1215,"o":"m 694 0 l 694 868 l 521 868 l 521 0 l 174 0 l 174 868 l 0 868 l 0 1042 l 1215 1042 l 1215 868 l 1042 868 l 1042 0 l 694 0 z "},"Ẁ":{"ha":1389,"x_min":0,"x_max":1215,"o":"m 0 0 l 0 868 l 347 868 l 347 521 l 521 521 l 521 694 l 694 694 l 694 521 l 868 521 l 868 868 l 1215 868 l 1215 0 l 868 0 l 868 174 l 694 174 l 694 347 l 521 347 l 521 174 l 347 174 l 347 0 l 0 0 m 0 1042 l 0 1215 l 521 1215 l 521 1042 l 0 1042 z "},"ẁ":{"ha":1389,"x_min":0,"x_max":1215,"o":"m 0 174 l 0 868 l 347 868 l 347 521 l 521 521 l 521 694 l 694 694 l 694 521 l 868 521 l 868 868 l 1215 868 l 1215 174 l 1042 174 l 1042 0 l 694 0 l 694 174 l 521 174 l 521 0 l 174 0 l 174 174 l 0 174 m 0 1042 l 0 1215 l 521 1215 l 521 1042 l 0 1042 z "},"Ẃ":{"ha":1389,"x_min":0,"x_max":1215,"o":"m 0 0 l 0 868 l 347 868 l 347 521 l 521 521 l 521 694 l 694 694 l 694 521 l 868 521 l 868 868 l 1215 868 l 1215 0 l 868 0 l 868 174 l 694 174 l 694 347 l 521 347 l 521 174 l 347 174 l 347 0 l 0 0 m 694 1042 l 694 1215 l 1215 1215 l 1215 1042 l 694 1042 z "},"ẃ":{"ha":1389,"x_min":0,"x_max":1215,"o":"m 0 174 l 0 868 l 347 868 l 347 521 l 521 521 l 521 694 l 694 694 l 694 521 l 868 521 l 868 868 l 1215 868 l 1215 174 l 1042 174 l 1042 0 l 694 0 l 694 174 l 521 174 l 521 0 l 174 0 l 174 174 l 0 174 m 694 1042 l 694 1215 l 1215 1215 l 1215 1042 l 694 1042 z "},"Ẅ":{"ha":1389,"x_min":0,"x_max":1215,"o":"m 0 0 l 0 868 l 347 868 l 347 521 l 521 521 l 521 694 l 694 694 l 694 521 l 868 521 l 868 868 l 1215 868 l 1215 0 l 868 0 l 868 174 l 694 174 l 694 347 l 521 347 l 521 174 l 347 174 l 347 0 l 0 0 m 0 1042 l 0 1215 l 347 1215 l 347 1042 l 0 1042 m 868 1042 l 868 1215 l 1215 1215 l 1215 1042 l 868 1042 z "},"ẅ":{"ha":1389,"x_min":0,"x_max":1215,"o":"m 0 174 l 0 868 l 347 868 l 347 521 l 521 521 l 521 694 l 694 694 l 694 521 l 868 521 l 868 868 l 1215 868 l 1215 174 l 1042 174 l 1042 0 l 694 0 l 694 174 l 521 174 l 521 0 l 174 0 l 174 174 l 0 174 m 0 1042 l 0 1215 l 347 1215 l 347 1042 l 0 1042 m 868 1042 l 868 1215 l 1215 1215 l 1215 1042 l 868 1042 z "},"ẟ":{"ha":1389,"x_min":0,"x_max":1042,"o":"m 0 174 l 0 521 l 174 521 l 174 694 l 521 694 l 521 868 l 347 868 l 347 1042 l 521 1042 l 521 1215 l 1042 1215 l 1042 1042 l 694 1042 l 694 868 l 868 868 l 868 694 l 1042 694 l 1042 174 l 868 174 l 868 0 l 174 0 l 174 174 l 0 174 m 347 174 l 694 174 l 694 521 l 347 521 l 347 174 z "},"Ỳ":{"ha":1389,"x_min":0,"x_max":1042,"o":"m 0 868 l 347 868 l 347 521 l 694 521 l 694 868 l 1042 868 l 1042 521 l 868 521 l 868 347 l 694 347 l 694 174 l 868 174 l 868 0 l 174 0 l 174 174 l 347 174 l 347 347 l 174 347 l 174 521 l 0 521 l 0 868 m 0 1042 l 0 1215 l 521 1215 l 521 1042 l 0 1042 z "},"ỳ":{"ha":1389,"x_min":0,"x_max":1042,"o":"m 0 -174 l 0 0 l 694 0 l 694 174 l 174 174 l 174 347 l 0 347 l 0 694 l 347 694 l 347 347 l 694 347 l 694 694 l 1042 694 l 1042 0 l 868 0 l 868 -174 l 0 -174 m 0 868 l 0 1042 l 521 1042 l 521 868 l 0 868 z "},"‐":{"ha":1389,"x_min":0,"x_max":1042,"o":"m 0 521 l 0 694 l 1042 694 l 1042 521 l 0 521 z "},"‒":{"ha":1389,"x_min":174,"x_max":1042,"o":"m 174 521 l 174 694 l 1042 694 l 1042 521 l 174 521 z "},"–":{"ha":1389,"x_min":174,"x_max":1042,"o":"m 174 521 l 174 694 l 1042 694 l 1042 521 l 174 521 z "},"—":{"ha":1389,"x_min":0,"x_max":1389,"o":"m 0 521 l 0 694 l 1389 694 l 1389 521 l 0 521 z "},"―":{"ha":1389,"x_min":0,"x_max":1389,"o":"m 0 521 l 0 694 l 1389 694 l 1389 521 l 0 521 z "},"‗":{"ha":1389,"x_min":0,"x_max":1389,"o":"m 0 174 l 0 347 l 1389 347 l 1389 174 l 0 174 m 0 -174 l 0 0 l 1389 0 l 1389 -174 l 0 -174 z "},"‘":{"ha":1389,"x_min":347,"x_max":868,"o":"m 694 694 l 347 694 l 347 1042 l 521 1042 l 521 1215 l 868 1215 l 868 1042 l 694 1042 l 694 694 z "},"’":{"ha":1389,"x_min":174,"x_max":694,"o":"m 694 868 l 521 868 l 521 694 l 174 694 l 174 868 l 347 868 l 347 1215 l 694 1215 l 694 868 z "},"‚":{"ha":1389,"x_min":174,"x_max":694,"o":"m 694 0 l 521 0 l 521 -174 l 174 -174 l 174 0 l 347 0 l 347 347 l 694 347 l 694 0 z "},"‛":{"ha":1389,"x_min":347,"x_max":868,"o":"m 694 868 l 868 868 l 868 694 l 521 694 l 521 868 l 347 868 l 347 1215 l 694 1215 l 694 868 z "},"“":{"ha":1389,"x_min":0,"x_max":1215,"o":"m 0 694 l 0 1042 l 174 1042 l 174 1215 l 521 1215 l 521 1042 l 347 1042 l 347 694 l 0 694 m 694 694 l 694 1042 l 868 1042 l 868 1215 l 1215 1215 l 1215 1042 l 1042 1042 l 1042 694 l 694 694 z "},"”":{"ha":1389,"x_min":0,"x_max":1215,"o":"m 0 694 l 0 868 l 174 868 l 174 1215 l 521 1215 l 521 868 l 347 868 l 347 694 l 0 694 m 694 694 l 694 868 l 868 868 l 868 1215 l 1215 1215 l 1215 868 l 1042 868 l 1042 694 l 694 694 z "},"„":{"ha":1389,"x_min":0,"x_max":1215,"o":"m 0 -174 l 0 0 l 174 0 l 174 347 l 521 347 l 521 0 l 347 0 l 347 -174 l 0 -174 m 694 -174 l 694 0 l 868 0 l 868 347 l 1215 347 l 1215 0 l 1042 0 l 1042 -174 l 694 -174 z "},"‟":{"ha":1389,"x_min":0,"x_max":1215,"o":"m 0 868 l 0 1215 l 347 1215 l 347 868 l 521 868 l 521 694 l 174 694 l 174 868 l 0 868 m 694 868 l 694 1215 l 1042 1215 l 1042 868 l 1215 868 l 1215 694 l 868 694 l 868 868 l 694 868 z "},"†":{"ha":1389,"x_min":0,"x_max":1042,"o":"m 694 -174 l 347 -174 l 347 694 l 0 694 l 0 868 l 347 868 l 347 1215 l 694 1215 l 694 868 l 1042 868 l 1042 694 l 694 694 l 694 -174 z "},"‡":{"ha":1389,"x_min":0,"x_max":1042,"o":"m 0 174 l 0 347 l 347 347 l 347 694 l 0 694 l 0 868 l 347 868 l 347 1215 l 694 1215 l 694 868 l 1042 868 l 1042 694 l 694 694 l 694 347 l 1042 347 l 1042 174 l 694 174 l 694 -174 l 347 -174 l 347 174 l 0 174 z "},"•":{"ha":1389,"x_min":347,"x_max":1042,"o":"m 868 347 l 868 174 l 521 174 l 521 347 l 347 347 l 347 694 l 521 694 l 521 868 l 868 868 l 868 694 l 1042 694 l 1042 347 l 868 347 z "},"…":{"ha":1389,"x_min":0,"x_max":1389,"o":"m 0 347 l 347 347 l 347 0 l 0 0 l 0 347 m 1389 347 l 1389 0 l 1042 0 l 1042 347 l 1389 347 m 868 347 l 868 0 l 521 0 l 521 347 l 868 347 z "},"‧":{"ha":1389,"x_min":521,"x_max":868,"o":"m 868 347 l 521 347 l 521 694 l 868 694 l 868 347 z "},"‰":{"ha":1389,"x_min":0,"x_max":1389,"o":"m 0 347 l 174 347 l 174 521 l 347 521 l 347 694 l 521 694 l 521 868 l 694 868 l 694 1042 l 1042 1042 l 1042 868 l 868 868 l 868 694 l 694 694 l 694 521 l 521 521 l 521 347 l 347 347 l 347 174 l 174 174 l 174 0 l 0 0 l 0 347 m 0 694 l 0 1042 l 347 1042 l 347 694 l 0 694 m 1042 347 l 1389 347 l 1389 0 l 1042 0 l 1042 347 m 521 347 l 868 347 l 868 0 l 521 0 l 521 347 z "},"′":{"ha":1389,"x_min":174,"x_max":868,"o":"m 694 868 l 521 868 l 521 694 l 174 694 l 174 868 l 347 868 l 347 1042 l 521 1042 l 521 1215 l 868 1215 l 868 1042 l 694 1042 l 694 868 z "},"″":{"ha":1389,"x_min":0,"x_max":1215,"o":"m 0 694 l 0 868 l 174 868 l 174 1042 l 347 1042 l 347 1215 l 694 1215 l 694 1042 l 521 1042 l 521 868 l 347 868 l 347 694 l 0 694 m 521 868 l 694 868 l 694 1042 l 868 1042 l 868 1215 l 1215 1215 l 1215 1042 l 1042 1042 l 1042 868 l 868 868 l 868 694 l 521 694 l 521 868 z "},"‵":{"ha":1389,"x_min":174,"x_max":868,"o":"m 694 868 l 868 868 l 868 694 l 521 694 l 521 868 l 347 868 l 347 1042 l 174 1042 l 174 1215 l 521 1215 l 521 1042 l 694 1042 l 694 868 z "},"‹":{"ha":1389,"x_min":174,"x_max":868,"o":"m 174 521 l 174 694 l 347 694 l 347 868 l 521 868 l 521 1042 l 868 1042 l 868 868 l 694 868 l 694 694 l 521 694 l 521 521 l 694 521 l 694 347 l 868 347 l 868 174 l 521 174 l 521 347 l 347 347 l 347 521 l 174 521 z "},"›":{"ha":1389,"x_min":174,"x_max":868,"o":"m 174 174 l 174 347 l 347 347 l 347 521 l 521 521 l 521 694 l 347 694 l 347 868 l 174 868 l 174 1042 l 521 1042 l 521 868 l 694 868 l 694 694 l 868 694 l 868 521 l 694 521 l 694 347 l 521 347 l 521 174 l 174 174 z "},"‼":{"ha":1389,"x_min":174,"x_max":1215,"o":"m 174 0 l 174 174 l 521 174 l 521 0 l 174 0 m 174 347 l 174 1215 l 521 1215 l 521 347 l 174 347 m 868 0 l 868 174 l 1215 174 l 1215 0 l 868 0 m 868 347 l 868 1215 l 1215 1215 l 1215 347 l 868 347 z "},"‾":{"ha":1389,"x_min":0,"x_max":1389,"o":"m 0 1042 l 0 1215 l 1389 1215 l 1389 1042 l 0 1042 z "},"‿":{"ha":1389,"x_min":0,"x_max":1215,"o":"m 0 0 l 0 174 l 347 174 l 347 0 l 868 0 l 868 174 l 1215 174 l 1215 0 l 1042 0 l 1042 -174 l 174 -174 l 174 0 l 0 0 z "},"⁀":{"ha":1389,"x_min":0,"x_max":1215,"o":"m 0 868 l 0 1042 l 174 1042 l 174 1215 l 1042 1215 l 1042 1042 l 1215 1042 l 1215 868 l 868 868 l 868 1042 l 347 1042 l 347 868 l 0 868 z "},"⁄":{"ha":1389,"x_min":0,"x_max":1215,"o":"m 0 347 l 174 347 l 174 521 l 347 521 l 347 694 l 521 694 l 521 868 l 694 868 l 694 1042 l 868 1042 l 868 1215 l 1215 1215 l 1215 1042 l 1042 1042 l 1042 868 l 868 868 l 868 694 l 694 694 l 694 521 l 521 521 l 521 347 l 347 347 l 347 174 l 174 174 l 174 0 l 0 0 l 0 347 z "},"⁔":{"ha":1389,"x_min":0,"x_max":1215,"o":"m 0 -174 l 0 0 l 174 0 l 174 174 l 1042 174 l 1042 0 l 1215 0 l 1215 -174 l 868 -174 l 868 0 l 347 0 l 347 -174 l 0 -174 z "},"⁴":{"ha":1389,"x_min":174,"x_max":1042,"o":"m 174 868 l 347 868 l 347 1042 l 521 1042 l 521 1215 l 868 1215 l 868 694 l 1042 694 l 1042 521 l 868 521 l 868 347 l 521 347 l 521 521 l 174 521 l 174 868 z "},"⁵":{"ha":1389,"x_min":174,"x_max":868,"o":"m 174 347 l 174 521 l 521 521 l 521 694 l 174 694 l 174 1215 l 868 1215 l 868 1042 l 521 1042 l 521 868 l 694 868 l 694 694 l 868 694 l 868 521 l 694 521 l 694 347 l 174 347 z "},"⁶":{"ha":1389,"x_min":174,"x_max":1042,"o":"m 174 521 l 174 1042 l 347 1042 l 347 1215 l 868 1215 l 868 1042 l 521 1042 l 521 868 l 868 868 l 868 694 l 1042 694 l 1042 521 l 868 521 l 868 347 l 347 347 l 347 521 l 174 521 m 521 694 l 521 521 l 694 521 l 694 694 l 521 694 z "},"⁷":{"ha":1389,"x_min":174,"x_max":1042,"o":"m 174 1042 l 174 1215 l 1042 1215 l 1042 868 l 868 868 l 868 694 l 694 694 l 694 347 l 347 347 l 347 694 l 521 694 l 521 868 l 694 868 l 694 1042 l 174 1042 z "},"⁸":{"ha":1389,"x_min":174,"x_max":1042,"o":"m 347 347 l 347 521 l 174 521 l 174 694 l 347 694 l 347 868 l 174 868 l 174 1042 l 347 1042 l 347 1215 l 868 1215 l 868 1042 l 1042 1042 l 1042 868 l 868 868 l 868 694 l 1042 694 l 1042 521 l 868 521 l 868 347 l 347 347 m 694 868 l 694 1042 l 521 1042 l 521 868 l 694 868 m 694 694 l 521 694 l 521 521 l 694 521 l 694 694 z "},"⁹":{"ha":1389,"x_min":174,"x_max":1042,"o":"m 174 868 l 174 1042 l 347 1042 l 347 1215 l 868 1215 l 868 1042 l 1042 1042 l 1042 521 l 868 521 l 868 347 l 347 347 l 347 521 l 694 521 l 694 694 l 347 694 l 347 868 l 174 868 m 521 868 l 694 868 l 694 1042 l 521 1042 l 521 868 z "},"⁺":{"ha":1389,"x_min":0,"x_max":1042,"o":"m 694 347 l 347 347 l 347 694 l 0 694 l 0 868 l 347 868 l 347 1215 l 694 1215 l 694 868 l 1042 868 l 1042 694 l 694 694 l 694 347 z "},"⁻":{"ha":1389,"x_min":174,"x_max":868,"o":"m 174 694 l 174 868 l 868 868 l 868 694 l 174 694 z "},"ⁿ":{"ha":1389,"x_min":174,"x_max":1042,"o":"m 694 347 l 694 1042 l 521 1042 l 521 347 l 174 347 l 174 1215 l 868 1215 l 868 1042 l 1042 1042 l 1042 347 l 694 347 z "},"₁":{"ha":1389,"x_min":174,"x_max":868,"o":"m 694 0 l 868 0 l 868 -174 l 174 -174 l 174 0 l 347 0 l 347 347 l 174 347 l 174 521 l 347 521 l 347 694 l 694 694 l 694 0 z "},"₂":{"ha":1389,"x_min":174,"x_max":868,"o":"m 174 174 l 347 174 l 347 347 l 521 347 l 521 521 l 174 521 l 174 694 l 694 694 l 694 521 l 868 521 l 868 347 l 694 347 l 694 174 l 521 174 l 521 0 l 868 0 l 868 -174 l 174 -174 l 174 174 z "},"₃":{"ha":1389,"x_min":174,"x_max":868,"o":"m 174 -174 l 174 0 l 521 0 l 521 174 l 347 174 l 347 347 l 521 347 l 521 521 l 174 521 l 174 694 l 694 694 l 694 521 l 868 521 l 868 347 l 694 347 l 694 174 l 868 174 l 868 0 l 694 0 l 694 -174 l 174 -174 z "},"₄":{"ha":1389,"x_min":174,"x_max":1042,"o":"m 174 347 l 347 347 l 347 521 l 521 521 l 521 694 l 868 694 l 868 174 l 1042 174 l 1042 0 l 868 0 l 868 -174 l 521 -174 l 521 0 l 174 0 l 174 347 z "},"₅":{"ha":1389,"x_min":174,"x_max":868,"o":"m 174 -174 l 174 0 l 521 0 l 521 174 l 174 174 l 174 694 l 868 694 l 868 521 l 521 521 l 521 347 l 694 347 l 694 174 l 868 174 l 868 0 l 694 0 l 694 -174 l 174 -174 z "},"₆":{"ha":1389,"x_min":174,"x_max":1042,"o":"m 174 0 l 174 521 l 347 521 l 347 694 l 868 694 l 868 521 l 521 521 l 521 347 l 868 347 l 868 174 l 1042 174 l 1042 0 l 868 0 l 868 -174 l 347 -174 l 347 0 l 174 0 m 521 174 l 521 0 l 694 0 l 694 174 l 521 174 z "},"₇":{"ha":1389,"x_min":174,"x_max":1042,"o":"m 174 521 l 174 694 l 1042 694 l 1042 347 l 868 347 l 868 174 l 694 174 l 694 -174 l 347 -174 l 347 174 l 521 174 l 521 347 l 694 347 l 694 521 l 174 521 z "},"₈":{"ha":1389,"x_min":174,"x_max":1042,"o":"m 347 347 l 174 347 l 174 521 l 347 521 l 347 694 l 868 694 l 868 521 l 1042 521 l 1042 347 l 868 347 l 868 174 l 1042 174 l 1042 0 l 868 0 l 868 -174 l 347 -174 l 347 0 l 174 0 l 174 174 l 347 174 l 347 347 m 694 347 l 694 521 l 521 521 l 521 347 l 694 347 m 694 174 l 521 174 l 521 0 l 694 0 l 694 174 z "},"₉":{"ha":1389,"x_min":174,"x_max":1042,"o":"m 174 347 l 174 521 l 347 521 l 347 694 l 868 694 l 868 521 l 1042 521 l 1042 0 l 868 0 l 868 -174 l 347 -174 l 347 0 l 694 0 l 694 174 l 347 174 l 347 347 l 174 347 m 521 347 l 694 347 l 694 521 l 521 521 l 521 347 z "},"₊":{"ha":1389,"x_min":0,"x_max":1042,"o":"m 0 174 l 0 347 l 347 347 l 347 694 l 694 694 l 694 347 l 1042 347 l 1042 174 l 694 174 l 694 -174 l 347 -174 l 347 174 l 0 174 z "},"₋":{"ha":1389,"x_min":174,"x_max":868,"o":"m 174 174 l 174 347 l 868 347 l 868 174 l 174 174 z "},"₣":{"ha":1389,"x_min":0,"x_max":1215,"o":"m 0 0 l 0 174 l 174 174 l 174 1042 l 0 1042 l 0 1215 l 1215 1215 l 1215 868 l 1042 868 l 1042 1042 l 521 1042 l 521 694 l 694 694 l 694 868 l 868 868 l 868 347 l 694 347 l 694 521 l 521 521 l 521 174 l 694 174 l 694 0 l 521 0 l 521 -174 l 174 -174 l 174 0 l 0 0 z "},"₤":{"ha":1389,"x_min":0,"x_max":1215,"o":"m 0 347 l 0 521 l 174 521 l 174 694 l 0 694 l 0 868 l 174 868 l 174 1042 l 347 1042 l 347 1215 l 868 1215 l 868 1042 l 1042 1042 l 1042 694 l 868 694 l 868 868 l 694 868 l 694 1042 l 521 1042 l 521 868 l 694 868 l 694 694 l 521 694 l 521 521 l 694 521 l 694 347 l 521 347 l 521 174 l 868 174 l 868 347 l 1215 347 l 1215 174 l 1042 174 l 1042 0 l 0 0 l 0 174 l 174 174 l 174 347 l 0 347 z "},"₧":{"ha":1389,"x_min":0,"x_max":1389,"o":"m 0 -174 l 0 1215 l 868 1215 l 868 1042 l 1042 1042 l 1042 694 l 868 694 l 868 521 l 347 521 l 347 -174 l 0 -174 m 347 694 l 694 694 l 694 1042 l 347 1042 l 347 694 m 694 174 l 694 347 l 868 347 l 868 521 l 1042 521 l 1042 694 l 1215 694 l 1215 347 l 1389 347 l 1389 174 l 1215 174 l 1215 0 l 1389 0 l 1389 -174 l 868 -174 l 868 174 l 694 174 z "},"₪":{"ha":1389,"x_min":0,"x_max":1215,"o":"m 0 0 l 0 1042 l 868 1042 l 868 347 l 694 347 l 694 868 l 174 868 l 174 0 l 0 0 m 347 0 l 347 694 l 521 694 l 521 174 l 1042 174 l 1042 1042 l 1215 1042 l 1215 0 l 347 0 z "},"€":{"ha":1389,"x_min":0,"x_max":1215,"o":"m 0 347 l 0 521 l 174 521 l 174 694 l 0 694 l 0 868 l 174 868 l 174 1042 l 347 1042 l 347 1215 l 1042 1215 l 1042 1042 l 1215 1042 l 1215 868 l 868 868 l 868 1042 l 521 1042 l 521 868 l 694 868 l 694 694 l 521 694 l 521 521 l 694 521 l 694 347 l 521 347 l 521 174 l 868 174 l 868 347 l 1215 347 l 1215 174 l 1042 174 l 1042 0 l 347 0 l 347 174 l 174 174 l 174 347 l 0 347 z "},"℅":{"ha":1389,"x_min":0,"x_max":1389,"o":"m 0 0 l 0 174 l 174 174 l 174 347 l 347 347 l 347 521 l 174 521 l 174 694 l 0 694 l 0 1042 l 174 1042 l 174 1215 l 694 1215 l 694 1042 l 347 1042 l 347 694 l 694 694 l 694 868 l 868 868 l 868 1042 l 1042 1042 l 1042 1215 l 1389 1215 l 1389 1042 l 1215 1042 l 1215 868 l 1042 868 l 1042 694 l 868 694 l 868 521 l 1215 521 l 1215 347 l 1389 347 l 1389 0 l 1215 0 l 1215 -174 l 694 -174 l 694 0 l 521 0 l 521 174 l 347 174 l 347 0 l 0 0 m 1042 347 l 868 347 l 868 0 l 1042 0 l 1042 347 z "},"ℓ":{"ha":1389,"x_min":0,"x_max":868,"o":"m 0 0 l 0 174 l 174 174 l 174 0 l 0 0 m 0 868 l 174 868 l 174 1042 l 347 1042 l 347 1215 l 521 1215 l 521 1042 l 694 1042 l 694 868 l 868 868 l 868 521 l 694 521 l 694 347 l 521 347 l 521 174 l 694 174 l 694 0 l 347 0 l 347 174 l 174 174 l 174 521 l 0 521 l 0 868 m 347 521 l 521 521 l 521 868 l 347 868 l 347 521 m 694 347 l 868 347 l 868 174 l 694 174 l 694 347 z "},"№":{"ha":1389,"x_min":0,"x_max":1389,"o":"m 0 0 l 0 1215 l 347 1215 l 347 1042 l 521 1042 l 521 868 l 694 868 l 694 1215 l 1389 1215 l 1389 694 l 1042 694 l 1042 521 l 1389 521 l 1389 347 l 1042 347 l 1042 0 l 694 0 l 694 521 l 521 521 l 521 694 l 347 694 l 347 0 l 0 0 m 1042 868 l 1215 868 l 1215 1042 l 1042 1042 l 1042 868 z "},"™":{"ha":1389,"x_min":0,"x_max":1389,"o":"m 1389 521 l 1215 521 l 1215 868 l 1042 868 l 1042 694 l 868 694 l 868 868 l 694 868 l 694 521 l 521 521 l 521 1042 l 347 1042 l 347 521 l 174 521 l 174 1042 l 0 1042 l 0 1215 l 868 1215 l 868 1042 l 1042 1042 l 1042 1215 l 1389 1215 l 1389 521 z "},"Ω":{"ha":1389,"x_min":0,"x_max":1215,"o":"m 0 0 l 0 174 l 174 174 l 174 521 l 0 521 l 0 868 l 174 868 l 174 1042 l 347 1042 l 347 1215 l 868 1215 l 868 1042 l 1042 1042 l 1042 868 l 1215 868 l 1215 521 l 1042 521 l 1042 174 l 1215 174 l 1215 0 l 694 0 l 694 521 l 868 521 l 868 868 l 694 868 l 694 1042 l 521 1042 l 521 868 l 347 868 l 347 521 l 521 521 l 521 0 l 0 0 z "},"℮":{"ha":1389,"x_min":0,"x_max":1042,"o":"m 0 174 l 0 694 l 174 694 l 174 868 l 868 868 l 868 694 l 1042 694 l 1042 347 l 347 347 l 347 174 l 868 174 l 868 0 l 174 0 l 174 174 l 0 174 m 347 694 l 347 521 l 694 521 l 694 694 l 347 694 z "},"⅐":{"ha":1389,"x_min":0,"x_max":1389,"o":"m 0 0 l 0 174 l 174 174 l 174 347 l 347 347 l 347 521 l 521 521 l 521 694 l 694 694 l 694 868 l 868 868 l 868 1042 l 1042 1042 l 1042 1215 l 1389 1215 l 1389 1042 l 1215 1042 l 1215 868 l 1042 868 l 1042 694 l 868 694 l 868 521 l 1389 521 l 1389 174 l 1215 174 l 1215 -174 l 868 -174 l 868 174 l 1042 174 l 1042 347 l 521 347 l 521 174 l 347 174 l 347 0 l 0 0 m 0 521 l 0 1215 l 347 1215 l 347 521 l 0 521 z "},"⅑":{"ha":1389,"x_min":0,"x_max":1389,"o":"m 0 0 l 0 174 l 174 174 l 174 347 l 347 347 l 347 521 l 521 521 l 521 694 l 694 694 l 694 868 l 868 868 l 868 1042 l 1042 1042 l 1042 1215 l 1389 1215 l 1389 1042 l 1215 1042 l 1215 868 l 1042 868 l 1042 694 l 1215 694 l 1215 521 l 1389 521 l 1389 0 l 1215 0 l 1215 -174 l 694 -174 l 694 0 l 1042 0 l 1042 174 l 694 174 l 694 347 l 521 347 l 521 174 l 347 174 l 347 0 l 0 0 m 0 521 l 0 1215 l 347 1215 l 347 521 l 0 521 m 1042 347 l 1042 521 l 868 521 l 868 347 l 1042 347 z "},"⅓":{"ha":1389,"x_min":0,"x_max":1389,"o":"m 0 0 l 0 174 l 174 174 l 174 347 l 347 347 l 347 521 l 521 521 l 521 694 l 694 694 l 694 868 l 868 868 l 868 1042 l 1042 1042 l 1042 1215 l 1389 1215 l 1389 1042 l 1215 1042 l 1215 868 l 1042 868 l 1042 694 l 1215 694 l 1215 521 l 1389 521 l 1389 347 l 1215 347 l 1215 174 l 1389 174 l 1389 0 l 1215 0 l 1215 -174 l 694 -174 l 694 0 l 1042 0 l 1042 174 l 868 174 l 868 347 l 1042 347 l 1042 521 l 694 521 l 694 347 l 521 347 l 521 174 l 347 174 l 347 0 l 0 0 m 0 521 l 0 1215 l 347 1215 l 347 521 l 0 521 z "},"⅔":{"ha":1389,"x_min":0,"x_max":1389,"o":"m 0 0 l 0 174 l 174 174 l 174 347 l 347 347 l 347 521 l 0 521 l 0 868 l 174 868 l 174 1042 l 0 1042 l 0 1215 l 347 1215 l 347 1042 l 521 1042 l 521 868 l 347 868 l 347 694 l 694 694 l 694 868 l 868 868 l 868 1042 l 1042 1042 l 1042 1215 l 1389 1215 l 1389 1042 l 1215 1042 l 1215 868 l 1042 868 l 1042 694 l 1215 694 l 1215 521 l 1389 521 l 1389 347 l 1215 347 l 1215 174 l 1389 174 l 1389 0 l 1215 0 l 1215 -174 l 694 -174 l 694 0 l 1042 0 l 1042 174 l 868 174 l 868 347 l 1042 347 l 1042 521 l 694 521 l 694 347 l 521 347 l 521 174 l 347 174 l 347 0 l 0 0 z "},"⅕":{"ha":1389,"x_min":0,"x_max":1389,"o":"m 0 0 l 0 174 l 174 174 l 174 347 l 347 347 l 347 521 l 521 521 l 521 694 l 694 694 l 694 868 l 868 868 l 868 1042 l 1042 1042 l 1042 1215 l 1389 1215 l 1389 1042 l 1215 1042 l 1215 868 l 1042 868 l 1042 694 l 1389 694 l 1389 521 l 1042 521 l 1042 347 l 1215 347 l 1215 174 l 1389 174 l 1389 0 l 1215 0 l 1215 -174 l 694 -174 l 694 0 l 1042 0 l 1042 174 l 694 174 l 694 347 l 521 347 l 521 174 l 347 174 l 347 0 l 0 0 m 0 521 l 0 1215 l 347 1215 l 347 521 l 0 521 z "},"⅖":{"ha":1389,"x_min":0,"x_max":1389,"o":"m 0 0 l 0 174 l 174 174 l 174 347 l 347 347 l 347 521 l 0 521 l 0 868 l 174 868 l 174 1042 l 0 1042 l 0 1215 l 347 1215 l 347 1042 l 521 1042 l 521 868 l 347 868 l 347 694 l 694 694 l 694 868 l 868 868 l 868 1042 l 1042 1042 l 1042 1215 l 1389 1215 l 1389 1042 l 1215 1042 l 1215 868 l 1042 868 l 1042 694 l 1389 694 l 1389 521 l 1042 521 l 1042 347 l 1215 347 l 1215 174 l 1389 174 l 1389 0 l 1215 0 l 1215 -174 l 694 -174 l 694 0 l 1042 0 l 1042 174 l 694 174 l 694 347 l 521 347 l 521 174 l 347 174 l 347 0 l 0 0 z "},"⅗":{"ha":1389,"x_min":0,"x_max":1389,"o":"m 0 347 l 0 521 l 347 521 l 347 694 l 174 694 l 174 868 l 347 868 l 347 1042 l 0 1042 l 0 1215 l 521 1215 l 521 1042 l 694 1042 l 694 868 l 521 868 l 521 694 l 694 694 l 694 868 l 868 868 l 868 1042 l 1042 1042 l 1042 1215 l 1389 1215 l 1389 1042 l 1215 1042 l 1215 868 l 1042 868 l 1042 694 l 1389 694 l 1389 521 l 1042 521 l 1042 347 l 1215 347 l 1215 174 l 1389 174 l 1389 0 l 1215 0 l 1215 -174 l 694 -174 l 694 0 l 1042 0 l 1042 174 l 694 174 l 694 347 l 521 347 l 521 174 l 347 174 l 347 0 l 0 0 l 0 174 l 174 174 l 174 347 l 0 347 z "},"⅘":{"ha":1389,"x_min":0,"x_max":1389,"o":"m 0 0 l 0 174 l 174 174 l 174 347 l 347 347 l 347 694 l 0 694 l 0 868 l 174 868 l 174 1042 l 347 1042 l 347 1215 l 694 1215 l 694 868 l 868 868 l 868 1042 l 1042 1042 l 1042 1215 l 1389 1215 l 1389 1042 l 1215 1042 l 1215 868 l 1042 868 l 1042 694 l 1389 694 l 1389 521 l 1042 521 l 1042 347 l 1215 347 l 1215 174 l 1389 174 l 1389 0 l 1215 0 l 1215 -174 l 694 -174 l 694 0 l 1042 0 l 1042 174 l 694 174 l 694 347 l 521 347 l 521 174 l 347 174 l 347 0 l 0 0 z "},"⅙":{"ha":1389,"x_min":0,"x_max":1389,"o":"m 0 0 l 0 174 l 174 174 l 174 347 l 347 347 l 347 521 l 521 521 l 521 694 l 694 694 l 694 868 l 868 868 l 868 1042 l 1042 1042 l 1042 1215 l 1389 1215 l 1389 1042 l 1215 1042 l 1215 868 l 1042 868 l 1042 694 l 1215 694 l 1215 521 l 868 521 l 868 347 l 1215 347 l 1215 174 l 1389 174 l 1389 0 l 1215 0 l 1215 -174 l 694 -174 l 694 0 l 521 0 l 521 174 l 347 174 l 347 0 l 0 0 m 0 521 l 0 1215 l 347 1215 l 347 521 l 0 521 m 1042 174 l 868 174 l 868 0 l 1042 0 l 1042 174 z "},"⅚":{"ha":1389,"x_min":0,"x_max":1389,"o":"m 0 347 l 0 521 l 347 521 l 347 694 l 0 694 l 0 1215 l 694 1215 l 694 1042 l 347 1042 l 347 868 l 521 868 l 521 694 l 694 694 l 694 868 l 868 868 l 868 1042 l 1042 1042 l 1042 1215 l 1389 1215 l 1389 1042 l 1215 1042 l 1215 868 l 1042 868 l 1042 694 l 1215 694 l 1215 521 l 868 521 l 868 347 l 1215 347 l 1215 174 l 1389 174 l 1389 0 l 1215 0 l 1215 -174 l 694 -174 l 694 0 l 521 0 l 521 174 l 347 174 l 347 0 l 0 0 l 0 174 l 174 174 l 174 347 l 0 347 m 1042 174 l 868 174 l 868 0 l 1042 0 l 1042 174 z "},"⅛":{"ha":1389,"x_min":0,"x_max":1389,"o":"m 0 0 l 0 174 l 174 174 l 174 347 l 347 347 l 347 521 l 521 521 l 521 694 l 694 694 l 694 868 l 868 868 l 868 1042 l 1042 1042 l 1042 1215 l 1389 1215 l 1389 1042 l 1215 1042 l 1215 868 l 1042 868 l 1042 694 l 1215 694 l 1215 521 l 1389 521 l 1389 347 l 1215 347 l 1215 174 l 1389 174 l 1389 0 l 1215 0 l 1215 -174 l 694 -174 l 694 0 l 521 0 l 521 174 l 694 174 l 694 347 l 521 347 l 521 174 l 347 174 l 347 0 l 0 0 m 0 521 l 0 1215 l 347 1215 l 347 521 l 0 521 m 1042 347 l 1042 521 l 868 521 l 868 347 l 1042 347 m 1042 174 l 868 174 l 868 0 l 1042 0 l 1042 174 z "},"⅜":{"ha":1389,"x_min":0,"x_max":1389,"o":"m 0 347 l 0 521 l 347 521 l 347 694 l 174 694 l 174 868 l 347 868 l 347 1042 l 0 1042 l 0 1215 l 521 1215 l 521 1042 l 694 1042 l 694 868 l 521 868 l 521 694 l 694 694 l 694 868 l 868 868 l 868 1042 l 1042 1042 l 1042 1215 l 1389 1215 l 1389 1042 l 1215 1042 l 1215 868 l 1042 868 l 1042 694 l 1215 694 l 1215 521 l 1389 521 l 1389 347 l 1215 347 l 1215 174 l 1389 174 l 1389 0 l 1215 0 l 1215 -174 l 694 -174 l 694 0 l 521 0 l 521 174 l 694 174 l 694 347 l 521 347 l 521 174 l 347 174 l 347 0 l 0 0 l 0 174 l 174 174 l 174 347 l 0 347 m 1042 347 l 1042 521 l 868 521 l 868 347 l 1042 347 m 1042 174 l 868 174 l 868 0 l 1042 0 l 1042 174 z "},"⅝":{"ha":1389,"x_min":0,"x_max":1389,"o":"m 0 347 l 0 521 l 347 521 l 347 694 l 0 694 l 0 1215 l 694 1215 l 694 1042 l 347 1042 l 347 868 l 521 868 l 521 694 l 694 694 l 694 868 l 868 868 l 868 1042 l 1042 1042 l 1042 1215 l 1389 1215 l 1389 1042 l 1215 1042 l 1215 868 l 1042 868 l 1042 694 l 1215 694 l 1215 521 l 1389 521 l 1389 347 l 1215 347 l 1215 174 l 1389 174 l 1389 0 l 1215 0 l 1215 -174 l 694 -174 l 694 0 l 521 0 l 521 174 l 694 174 l 694 347 l 521 347 l 521 174 l 347 174 l 347 0 l 0 0 l 0 174 l 174 174 l 174 347 l 0 347 m 1042 347 l 1042 521 l 868 521 l 868 347 l 1042 347 m 1042 174 l 868 174 l 868 0 l 1042 0 l 1042 174 z "},"⅞":{"ha":1389,"x_min":0,"x_max":1389,"o":"m 0 0 l 0 174 l 174 174 l 174 347 l 347 347 l 347 521 l 521 521 l 521 694 l 694 694 l 694 868 l 868 868 l 868 1042 l 1042 1042 l 1042 1215 l 1389 1215 l 1389 1042 l 1215 1042 l 1215 868 l 1042 868 l 1042 694 l 1215 694 l 1215 521 l 1389 521 l 1389 347 l 1215 347 l 1215 174 l 1389 174 l 1389 0 l 1215 0 l 1215 -174 l 694 -174 l 694 0 l 521 0 l 521 174 l 694 174 l 694 347 l 521 347 l 521 174 l 347 174 l 347 0 l 0 0 m 0 521 l 0 694 l 174 694 l 174 868 l 347 868 l 347 1042 l 0 1042 l 0 1215 l 694 1215 l 694 868 l 521 868 l 521 694 l 347 694 l 347 521 l 0 521 m 1042 347 l 1042 521 l 868 521 l 868 347 l 1042 347 m 1042 174 l 868 174 l 868 0 l 1042 0 l 1042 174 z "},"←":{"ha":1389,"x_min":0,"x_max":1215,"o":"m 0 521 l 0 694 l 174 694 l 174 868 l 347 868 l 347 1042 l 694 1042 l 694 868 l 521 868 l 521 694 l 1215 694 l 1215 521 l 521 521 l 521 347 l 694 347 l 694 174 l 347 174 l 347 347 l 174 347 l 174 521 l 0 521 z "},"↑":{"ha":1389,"x_min":174,"x_max":1215,"o":"m 174 694 l 174 868 l 347 868 l 347 1042 l 521 1042 l 521 1215 l 868 1215 l 868 1042 l 1042 1042 l 1042 868 l 1215 868 l 1215 694 l 868 694 l 868 0 l 521 0 l 521 694 l 174 694 z "},"→":{"ha":1389,"x_min":0,"x_max":1215,"o":"m 0 521 l 0 694 l 694 694 l 694 868 l 521 868 l 521 1042 l 868 1042 l 868 868 l 1042 868 l 1042 694 l 1215 694 l 1215 521 l 1042 521 l 1042 347 l 868 347 l 868 174 l 521 174 l 521 347 l 694 347 l 694 521 l 0 521 z "},"↓":{"ha":1389,"x_min":174,"x_max":1215,"o":"m 174 347 l 174 521 l 521 521 l 521 1215 l 868 1215 l 868 521 l 1215 521 l 1215 347 l 1042 347 l 1042 174 l 868 174 l 868 0 l 521 0 l 521 174 l 347 174 l 347 347 l 174 347 z "},"↔":{"ha":1389,"x_min":0,"x_max":1389,"o":"m 0 521 l 0 694 l 174 694 l 174 868 l 347 868 l 347 1042 l 521 1042 l 521 694 l 868 694 l 868 1042 l 1042 1042 l 1042 868 l 1215 868 l 1215 694 l 1389 694 l 1389 521 l 1215 521 l 1215 347 l 1042 347 l 1042 174 l 868 174 l 868 521 l 521 521 l 521 174 l 347 174 l 347 347 l 174 347 l 174 521 l 0 521 z "},"↕":{"ha":1389,"x_min":174,"x_max":1215,"o":"m 347 174 l 174 174 l 174 347 l 521 347 l 521 694 l 174 694 l 174 868 l 347 868 l 347 1042 l 521 1042 l 521 1215 l 868 1215 l 868 1042 l 1042 1042 l 1042 868 l 1215 868 l 1215 694 l 868 694 l 868 347 l 1215 347 l 1215 174 l 1042 174 l 1042 0 l 868 0 l 868 -174 l 521 -174 l 521 0 l 347 0 l 347 174 z "},"↨":{"ha":1389,"x_min":0,"x_max":1389,"o":"m 0 -174 l 0 0 l 521 0 l 521 174 l 347 174 l 347 347 l 174 347 l 174 521 l 521 521 l 521 694 l 174 694 l 174 868 l 347 868 l 347 1042 l 521 1042 l 521 1215 l 868 1215 l 868 1042 l 1042 1042 l 1042 868 l 1215 868 l 1215 694 l 868 694 l 868 521 l 1215 521 l 1215 347 l 1042 347 l 1042 174 l 868 174 l 868 0 l 1389 0 l 1389 -174 l 0 -174 z "},"∂":{"ha":1389,"x_min":0,"x_max":1042,"o":"m 0 174 l 0 521 l 174 521 l 174 694 l 694 694 l 694 1042 l 521 1042 l 521 868 l 174 868 l 174 1042 l 347 1042 l 347 1215 l 868 1215 l 868 1042 l 1042 1042 l 1042 174 l 868 174 l 868 0 l 174 0 l 174 174 l 0 174 m 347 174 l 694 174 l 694 521 l 347 521 l 347 174 z "},"∅":{"ha":1389,"x_min":0,"x_max":1389,"o":"m 0 347 l 0 694 l 174 694 l 174 868 l 694 868 l 694 1042 l 868 1042 l 868 1215 l 1215 1215 l 1215 1042 l 1042 1042 l 1042 868 l 1215 868 l 1215 694 l 1389 694 l 1389 347 l 1215 347 l 1215 174 l 694 174 l 694 0 l 521 0 l 521 -174 l 174 -174 l 174 0 l 347 0 l 347 174 l 174 174 l 174 347 l 0 347 m 347 347 l 521 347 l 521 694 l 347 694 l 347 347 m 1042 347 l 1042 694 l 868 694 l 868 347 l 1042 347 z "},"∆":{"ha":1389,"x_min":0,"x_max":1215,"o":"m 0 0 l 0 694 l 174 694 l 174 868 l 347 868 l 347 1042 l 521 1042 l 521 1215 l 694 1215 l 694 1042 l 868 1042 l 868 868 l 1042 868 l 1042 694 l 1215 694 l 1215 0 l 0 0 m 347 174 l 868 174 l 868 694 l 694 694 l 694 868 l 521 868 l 521 694 l 347 694 l 347 174 z "},"∈":{"ha":1389,"x_min":0,"x_max":868,"o":"m 0 347 l 0 868 l 174 868 l 174 1042 l 347 1042 l 347 1215 l 868 1215 l 868 1042 l 521 1042 l 521 868 l 347 868 l 347 694 l 868 694 l 868 521 l 347 521 l 347 347 l 521 347 l 521 174 l 868 174 l 868 0 l 347 0 l 347 174 l 174 174 l 174 347 l 0 347 z "},"∏":{"ha":1389,"x_min":0,"x_max":1215,"o":"m 0 -174 l 0 1215 l 1215 1215 l 1215 -174 l 868 -174 l 868 1042 l 347 1042 l 347 -174 l 0 -174 z "},"∑":{"ha":1389,"x_min":0,"x_max":1042,"o":"m 0 347 l 174 347 l 174 521 l 347 521 l 347 694 l 174 694 l 174 868 l 0 868 l 0 1215 l 1042 1215 l 1042 868 l 694 868 l 694 1042 l 347 1042 l 347 868 l 521 868 l 521 694 l 694 694 l 694 521 l 521 521 l 521 347 l 347 347 l 347 174 l 694 174 l 694 347 l 1042 347 l 1042 0 l 0 0 l 0 347 z "},"−":{"ha":1389,"x_min":0,"x_max":1042,"o":"m 0 521 l 0 694 l 1042 694 l 1042 521 l 0 521 z "},"∕":{"ha":1389,"x_min":0,"x_max":1215,"o":"m 0 347 l 174 347 l 174 521 l 347 521 l 347 694 l 521 694 l 521 868 l 694 868 l 694 1042 l 868 1042 l 868 1215 l 1215 1215 l 1215 1042 l 1042 1042 l 1042 868 l 868 868 l 868 694 l 694 694 l 694 521 l 521 521 l 521 347 l 347 347 l 347 174 l 174 174 l 174 0 l 0 0 l 0 347 z "},"∙":{"ha":1389,"x_min":521,"x_max":868,"o":"m 868 347 l 521 347 l 521 694 l 868 694 l 868 347 z "},"√":{"ha":1389,"x_min":0,"x_max":1389,"o":"m 0 347 l 0 521 l 521 521 l 521 174 l 694 174 l 694 1215 l 1389 1215 l 1389 1042 l 1042 1042 l 1042 -174 l 521 -174 l 521 0 l 347 0 l 347 174 l 174 174 l 174 347 l 0 347 z "},"∞":{"ha":1389,"x_min":0,"x_max":1389,"o":"m 0 347 l 0 694 l 174 694 l 174 868 l 1215 868 l 1215 694 l 1389 694 l 1389 347 l 1215 347 l 1215 174 l 174 174 l 174 347 l 0 347 m 347 347 l 521 347 l 521 694 l 347 694 l 347 347 m 868 347 l 1042 347 l 1042 694 l 868 694 l 868 347 z "},"∟":{"ha":1389,"x_min":0,"x_max":1215,"o":"m 0 174 l 0 868 l 347 868 l 347 347 l 1215 347 l 1215 174 l 0 174 z "},"∩":{"ha":1389,"x_min":0,"x_max":1042,"o":"m 0 0 l 0 1042 l 174 1042 l 174 1215 l 868 1215 l 868 1042 l 1042 1042 l 1042 0 l 694 0 l 694 1042 l 347 1042 l 347 0 l 0 0 z "},"∫":{"ha":1389,"x_min":0,"x_max":1389,"o":"m 0 347 l 347 347 l 347 0 l 521 0 l 521 1042 l 694 1042 l 694 1215 l 1215 1215 l 1215 1042 l 1389 1042 l 1389 694 l 1042 694 l 1042 1042 l 868 1042 l 868 0 l 694 0 l 694 -174 l 174 -174 l 174 0 l 0 0 l 0 347 z "},"≈":{"ha":1389,"x_min":0,"x_max":1215,"o":"m 0 174 l 0 347 l 174 347 l 174 521 l 694 521 l 694 347 l 868 347 l 868 521 l 1215 521 l 1215 347 l 1042 347 l 1042 174 l 521 174 l 521 347 l 347 347 l 347 174 l 0 174 m 0 694 l 0 868 l 174 868 l 174 1042 l 694 1042 l 694 868 l 868 868 l 868 1042 l 1215 1042 l 1215 868 l 1042 868 l 1042 694 l 521 694 l 521 868 l 347 868 l 347 694 l 0 694 z "},"≠":{"ha":1389,"x_min":0,"x_max":1215,"o":"m 0 174 l 0 347 l 347 347 l 347 521 l 521 521 l 521 694 l 0 694 l 0 868 l 694 868 l 694 1042 l 1042 1042 l 1042 868 l 1215 868 l 1215 694 l 868 694 l 868 521 l 694 521 l 694 347 l 1215 347 l 1215 174 l 521 174 l 521 0 l 174 0 l 174 174 l 0 174 z "},"≡":{"ha":1389,"x_min":0,"x_max":1042,"o":"m 0 174 l 0 347 l 1042 347 l 1042 174 l 0 174 m 0 868 l 0 1042 l 1042 1042 l 1042 868 l 0 868 m 0 521 l 0 694 l 1042 694 l 1042 521 l 0 521 z "},"≤":{"ha":1389,"x_min":0,"x_max":1042,"o":"m 0 0 l 0 174 l 1042 174 l 1042 0 l 0 0 m 174 694 l 174 868 l 347 868 l 347 1042 l 521 1042 l 521 1215 l 868 1215 l 868 1042 l 694 1042 l 694 868 l 521 868 l 521 694 l 694 694 l 694 521 l 868 521 l 868 347 l 521 347 l 521 521 l 347 521 l 347 694 l 174 694 z "},"≥":{"ha":1389,"x_min":0,"x_max":1042,"o":"m 0 0 l 0 174 l 1042 174 l 1042 0 l 0 0 m 174 347 l 174 521 l 347 521 l 347 694 l 521 694 l 521 868 l 347 868 l 347 1042 l 174 1042 l 174 1215 l 521 1215 l 521 1042 l 694 1042 l 694 868 l 868 868 l 868 694 l 694 694 l 694 521 l 521 521 l 521 347 l 174 347 z "},"⊙":{"ha":1389,"x_min":0,"x_max":1215,"o":"m 0 174 l 0 1042 l 174 1042 l 174 1215 l 1042 1215 l 1042 1042 l 1215 1042 l 1215 174 l 1042 174 l 1042 0 l 174 0 l 174 174 l 0 174 m 347 174 l 868 174 l 868 1042 l 347 1042 l 347 174 m 521 521 l 521 694 l 694 694 l 694 521 l 521 521 z "},"⌀":{"ha":1389,"x_min":0,"x_max":1215,"o":"m 0 174 l 0 1042 l 174 1042 l 174 1215 l 1042 1215 l 1042 1042 l 1215 1042 l 1215 174 l 1042 174 l 1042 0 l 174 0 l 174 174 l 0 174 m 347 521 l 521 521 l 521 694 l 694 694 l 694 868 l 868 868 l 868 1042 l 347 1042 l 347 521 m 694 347 l 521 347 l 521 174 l 868 174 l 868 521 l 694 521 l 694 347 z "},"⌂":{"ha":1389,"x_min":0,"x_max":1215,"o":"m 0 0 l 0 521 l 174 521 l 174 694 l 347 694 l 347 868 l 521 868 l 521 1042 l 694 1042 l 694 868 l 868 868 l 868 694 l 1042 694 l 1042 521 l 1215 521 l 1215 0 l 0 0 m 347 174 l 868 174 l 868 521 l 694 521 l 694 694 l 521 694 l 521 521 l 347 521 l 347 174 z "},"⌐":{"ha":1389,"x_min":0,"x_max":1042,"o":"m 0 174 l 0 694 l 1042 694 l 1042 521 l 347 521 l 347 174 l 0 174 z "},"⌠":{"ha":1389,"x_min":521,"x_max":1389,"o":"m 1389 694 l 1042 694 l 1042 1042 l 868 1042 l 868 -174 l 521 -174 l 521 1042 l 694 1042 l 694 1215 l 1215 1215 l 1215 1042 l 1389 1042 l 1389 694 z "},"⌡":{"ha":1389,"x_min":0,"x_max":868,"o":"m 0 347 l 347 347 l 347 0 l 521 0 l 521 1215 l 868 1215 l 868 0 l 694 0 l 694 -174 l 174 -174 l 174 0 l 0 0 l 0 347 z "},"─":{"ha":1389,"x_min":0,"x_max":1389,"o":"m 0 347 l 0 521 l 1389 521 l 1389 347 l 0 347 z "},"│":{"ha":1389,"x_min":521,"x_max":868,"o":"m 868 -174 l 521 -174 l 521 1215 l 868 1215 l 868 -174 z "},"┌":{"ha":1389,"x_min":521,"x_max":1389,"o":"m 1389 347 l 868 347 l 868 -174 l 521 -174 l 521 521 l 1389 521 l 1389 347 z "},"┐":{"ha":1389,"x_min":0,"x_max":868,"o":"m 0 347 l 0 521 l 868 521 l 868 -174 l 521 -174 l 521 347 l 0 347 z "},"└":{"ha":1389,"x_min":521,"x_max":1389,"o":"m 1389 347 l 521 347 l 521 1215 l 868 1215 l 868 521 l 1389 521 l 1389 347 z "},"┘":{"ha":1389,"x_min":0,"x_max":868,"o":"m 0 347 l 0 521 l 521 521 l 521 1215 l 868 1215 l 868 347 l 0 347 z "},"├":{"ha":1389,"x_min":521,"x_max":1389,"o":"m 1389 347 l 868 347 l 868 -174 l 521 -174 l 521 1215 l 868 1215 l 868 521 l 1389 521 l 1389 347 z "},"┤":{"ha":1389,"x_min":0,"x_max":868,"o":"m 0 347 l 0 521 l 521 521 l 521 1215 l 868 1215 l 868 -174 l 521 -174 l 521 347 l 0 347 z "},"┬":{"ha":1389,"x_min":0,"x_max":1389,"o":"m 0 347 l 0 521 l 1389 521 l 1389 347 l 868 347 l 868 -174 l 521 -174 l 521 347 l 0 347 z "},"┴":{"ha":1389,"x_min":0,"x_max":1389,"o":"m 0 347 l 0 521 l 521 521 l 521 1215 l 868 1215 l 868 521 l 1389 521 l 1389 347 l 0 347 z "},"┼":{"ha":1389,"x_min":0,"x_max":1389,"o":"m 0 347 l 0 521 l 521 521 l 521 1215 l 868 1215 l 868 521 l 1389 521 l 1389 347 l 868 347 l 868 -174 l 521 -174 l 521 347 l 0 347 z "},"═":{"ha":1389,"x_min":0,"x_max":1389,"o":"m 0 347 l 0 521 l 1389 521 l 1389 347 l 0 347 m 0 694 l 0 868 l 1389 868 l 1389 694 l 0 694 z "},"║":{"ha":1389,"x_min":347,"x_max":1215,"o":"m 694 -174 l 347 -174 l 347 1215 l 694 1215 l 694 -174 m 868 -174 l 868 1215 l 1215 1215 l 1215 -174 l 868 -174 z "}}}
